<?xml version="1.0" encoding="UTF-8"?><svg id="OBJECTS" xmlns="http://www.w3.org/2000/svg" xmlns:xlink="http://www.w3.org/1999/xlink" viewBox="0 0 226.98 258.11"><defs><linearGradient id="Degradado_sin_nombre_91" x1="205.41" y1="-8.88" x2="3.48" y2="55.14" gradientUnits="userSpaceOnUse"><stop offset="0" stop-color="#a37b57"/><stop offset=".08" stop-color="#a67e5b"/><stop offset=".16" stop-color="#b08a67"/><stop offset=".24" stop-color="#c19d7b"/><stop offset=".32" stop-color="#d9b797"/><stop offset=".34" stop-color="#debd9d"/><stop offset=".6" stop-color="#ba8e65"/><stop offset="1" stop-color="#946a43"/></linearGradient><linearGradient id="Degradado_sin_nombre_91-2" x1="202.61" y1="-17.71" x2=".68" y2="46.31" xlink:href="#Degradado_sin_nombre_91"/><linearGradient id="Degradado_sin_nombre_91-3" x1="211.18" y1="9.33" x2="9.25" y2="73.36" xlink:href="#Degradado_sin_nombre_91"/><linearGradient id="Degradado_sin_nombre_91-4" x1="207.6" y1="-1.97" x2="5.67" y2="62.05" xlink:href="#Degradado_sin_nombre_91"/><linearGradient id="Degradado_sin_nombre_91-5" x1="210.75" y1="7.97" x2="8.82" y2="72" xlink:href="#Degradado_sin_nombre_91"/><linearGradient id="Degradado_sin_nombre_91-6" x1="203.98" y1="-13.39" x2="2.05" y2="50.64" xlink:href="#Degradado_sin_nombre_91"/><linearGradient id="Degradado_sin_nombre_91-7" x1="205.17" y1="-9.65" x2="3.23" y2="54.37" xlink:href="#Degradado_sin_nombre_91"/><linearGradient id="Degradado_sin_nombre_91-8" x1="212.02" y1="11.96" x2="10.08" y2="75.98" xlink:href="#Degradado_sin_nombre_91"/><linearGradient id="Degradado_sin_nombre_91-9" x1="207.68" y1="-1.73" x2="5.75" y2="62.3" xlink:href="#Degradado_sin_nombre_91"/><linearGradient id="Degradado_sin_nombre_91-10" x1="200.75" y1="-23.57" x2="-1.18" y2="40.46" xlink:href="#Degradado_sin_nombre_91"/><linearGradient id="Degradado_sin_nombre_91-11" x1="208.3" y1=".22" x2="6.36" y2="64.25" xlink:href="#Degradado_sin_nombre_91"/><linearGradient id="Degradado_sin_nombre_91-12" x1="214.28" y1="19.1" x2="12.35" y2="83.13" xlink:href="#Degradado_sin_nombre_91"/><linearGradient id="Degradado_sin_nombre_91-13" x1="198.67" y1="-30.14" x2="-3.26" y2="33.88" xlink:href="#Degradado_sin_nombre_91"/><linearGradient id="Degradado_sin_nombre_91-14" x1="212.56" y1="13.66" x2="10.62" y2="77.69" xlink:href="#Degradado_sin_nombre_91"/><linearGradient id="Degradado_sin_nombre_91-15" x1="215.72" y1="23.63" x2="13.79" y2="87.65" xlink:href="#Degradado_sin_nombre_91"/><linearGradient id="Degradado_sin_nombre_91-16" x1="197.46" y1="-33.94" x2="-4.47" y2="30.09" xlink:href="#Degradado_sin_nombre_91"/><linearGradient id="Degradado_sin_nombre_91-17" x1="204.62" y1="-11.38" x2="2.68" y2="52.64" xlink:href="#Degradado_sin_nombre_91"/><linearGradient id="Degradado_sin_nombre_91-18" x1="212.04" y1="12.03" x2="10.11" y2="76.06" xlink:href="#Degradado_sin_nombre_91"/><linearGradient id="Degradado_sin_nombre_91-19" x1="214.3" y1="19.16" x2="12.37" y2="83.19" xlink:href="#Degradado_sin_nombre_91"/><linearGradient id="Degradado_sin_nombre_91-20" x1="206.68" y1="-4.87" x2="4.75" y2="59.15" xlink:href="#Degradado_sin_nombre_91"/><linearGradient id="Degradado_sin_nombre_91-21" x1="216.09" y1="24.79" x2="14.16" y2="88.82" xlink:href="#Degradado_sin_nombre_91"/><linearGradient id="Degradado_sin_nombre_91-22" x1="212.77" y1="14.32" x2="10.83" y2="78.34" xlink:href="#Degradado_sin_nombre_91"/><linearGradient id="Degradado_sin_nombre_91-23" x1="208.02" y1="-.65" x2="6.09" y2="63.38" xlink:href="#Degradado_sin_nombre_91"/></defs><g><g><path d="M87.84,87.32c1.61-3.73,3.59-7.27,6.09-10.48,4.41-5.65,9.05-11.1,14.28-16.02,2.56-2.41,5.24-4.69,7.83-7.07,4.12-3.79,8.11-7.72,11.53-12.16,1.75-2.27,3.31-4.7,4.97-7.05,.3-.43,.66-.83,.99-1.24,.06,.03,.11,.07,.17,.1-.07,.19-.1,.42-.21,.58-2.57,3.65-4.92,7.47-7.92,10.82-4.16,4.66-8.66,8.97-13.38,13.04-5.32,4.59-10.01,9.77-14.58,15.09-3.71,4.31-6.91,8.94-9.52,13.99-.07,.14-.16,.27-.24,.4Z" style="fill:#4c3f3e;"/><path d="M136.8,23.4c.28,2.48-.33,4.79-1.3,6.99-.78,1.78-1.72,3.49-2.61,5.23-2.56,4.97-4.29,10.24-5.74,15.61-1.36,5.02-3.21,9.82-5.84,14.33-2.11,3.61-4.79,6.72-8.16,9.18-2.5,1.83-5.08,3.55-7.69,5.23-3.37,2.17-6.55,4.57-9.63,7.12-1.67,1.38-3.43,2.66-5.2,3.92-.75,.53-1.61,.91-2.44,1.32-.84,.42-1.74,.58-2.69,.56-1.56-.04-2.67-.77-3.38-2.12-.71-1.37-.76-2.84-.47-4.3,.62-3.18,1.76-6.2,3.04-9.16,.71-1.64,1.44-3.28,2.18-4.9,1.73-3.79,3.05-7.71,3.88-11.8,.63-3.1,2.2-5.69,4.42-7.92,3.09-3.12,6.85-5.13,11.01-6.35,3.58-1.06,7.21-1.94,10.81-2.9,2.97-.79,5.91-1.69,8.59-3.22,5.66-3.24,9.44-7.93,10.78-14.42,.12-.56,.17-1.14,.26-1.7,.04-.23,.13-.46,.19-.69Zm-4.58,12.23s-.07-.05-.1-.07c-.15,.15-.3,.29-.45,.44-2.75,2.97-6.02,5.18-9.87,6.4-3.58,1.14-7.22,2.12-10.86,3.08-3.24,.86-6.48,1.72-9.48,3.26-.42,.22-.85,.46-1.21,.76-3.28,2.77-4.7,6.41-4.97,10.6-.15,2.32-.26,4.66-.59,6.95-.46,3.18-1.61,6.12-3.75,8.57-1.41,1.61-2.87,3.18-4.35,4.72-1.77,1.85-3.12,3.95-4.18,6.27-.35,.76-.48,1.52-.36,2.33,.25,1.75,1.35,3.75,4.13,3.42,.59-.07,1.19-.24,1.75-.46,1.91-.76,3.55-1.93,4.75-3.61,1.7-2.36,3.33-4.76,4.94-7.18,1.35-2.01,2.61-4.09,3.98-6.1,1.5-2.2,3.41-3.96,5.82-5.16,.83-.41,1.63-.89,2.46-1.29,5-2.38,9.36-5.59,12.98-9.8,1.48-1.71,2.77-3.5,3.24-5.78,.13-.62,.35-1.23,.53-1.84,1.26-4.32,2.46-8.66,4.39-12.75,.43-.91,.79-1.85,1.19-2.78Zm-7.88,22.33c-.24,.13-.31,.15-.35,.19-.17,.19-.34,.39-.51,.58-2.41,2.7-4.88,5.34-7.96,7.28-1.75,1.1-3.58,2.1-5.4,3.09-4.44,2.42-8.1,5.66-10.73,10.01-1.82,3-3.64,6.01-5.82,8.78-.06,.08-.07,.19-.17,.5,.53-.42,.89-.68,1.22-.97,3.99-3.46,8.28-6.51,12.76-9.31,1.73-1.08,3.41-2.26,5.05-3.47,2.43-1.79,4.62-3.84,6.4-6.29,2.18-2.98,3.88-6.23,5.27-9.64,.08-.2,.12-.41,.23-.75Zm-26.35-6.84c-.17-.01-.21-.03-.23-.02-2.64,1.96-4.81,4.32-5.9,7.47-.61,1.77-.98,3.62-1.44,5.45-.81,3.27-2.16,6.33-3.51,9.4-1.54,3.5-3.16,6.97-4.2,10.68-.1,.36-.2,.71-.3,1.07,.06,.03,.11,.06,.17,.09,.05-.08,.1-.15,.14-.23,1.29-2.7,3.32-4.81,5.37-6.93,1.09-1.12,2.11-2.32,3.06-3.55,1.7-2.19,2.58-4.75,3.03-7.46,.34-2.08,.39-4.19,.4-6.3,0-1.5,.26-2.98,.67-4.43,.54-1.9,1.52-3.57,2.73-5.23Z" style="fill:#4c3f3e;"/></g><path d="M139.08-4.06c0,.48,.04,.88,0,1.27-.21,2-.46,3.99-.67,5.99-.23,2.16-.45,4.32-.65,6.48-.19,2.13-.39,4.26-.51,6.4-.12,2.11-.23,4.22-.18,6.32,.09,3.29,.25,6.58,.53,9.86,.28,3.37,.97,6.69,1.78,9.98,.85,3.45,1.48,6.93,1.61,10.48,.19,4.89-.71,9.62-2.61,14.11-1.54,3.64-3.3,7.19-4.99,10.78-.88,1.88-1.86,3.71-2.71,5.61-.42,.92-.65,1.92-1.02,3.05-.06-.32-.18-.54-.14-.73,.22-.86,.39-1.75,.75-2.56,.82-1.84,1.72-3.64,2.62-5.44,2.01-4.03,4.07-8.04,5.59-12.29,1.51-4.23,2.25-8.58,2-13.07-.19-3.35-.79-6.65-1.6-9.91-.82-3.29-1.46-6.61-1.78-9.98-.51-5.22-.7-10.46-.38-15.7,.25-3.98,.69-7.95,1.07-11.92,.25-2.64,.54-5.27,.81-7.9,.03-.3-.02-.64,.5-.82Z" style="fill:#4c3f3e;"/><g><path d="M93.39,129.73c2.71-11.49,7.25-22.04,15.38-30.8-7.78,8.94-12.19,19.57-15.38,30.8Z" style="fill:#4c3f3e;"/><path d="M123.3,91.06c-.02,.05-.04,.12-.08,.15-4.25,2.29-7.53,5.67-10.53,9.36-3.23,3.98-5.98,8.27-8.39,12.78-.27,.5-.55,.99-.99,1.41,.26-.54,.5-1.1,.78-1.63,3.2-6.1,6.94-11.83,11.81-16.76,2.03-2.06,4.23-3.89,6.88-5.12,.14-.07,.29-.14,.43-.2,.02,0,.05,.01,.08,.02Z" style="fill:#4c3f3e;"/><path d="M133.21,91.25c.26,.3,.54,.59,.78,.91,1.06,1.42,1.78,3.02,2.37,4.69,1.04,2.93,1.73,5.95,2.13,9.04,.4,3.1,.74,6.22,1.08,9.33,.07,.63,.06,1.27,0,1.92-.34-2.72-.67-5.45-1.02-8.17-.5-3.87-1.2-7.7-2.45-11.42-.69-2.04-1.56-3.99-2.84-5.73-.09-.13-.17-.26-.25-.4,.06-.06,.12-.11,.18-.17Z" style="fill:#4c3f3e;"/><path d="M118.28,131.56c2.48-8.99,5.13-17.95,7.05-27.09,.18,3.06-5.5,23.14-7.05,27.09Z" style="fill:#4c3f3e;"/><path d="M108.71,89.76c-2.58,1.18-4.9,2.75-7.09,4.52-3.86,3.12-7.01,6.9-9.91,10.89-1.18,1.62-2.3,3.28-3.55,4.87,.13-.23,.25-.46,.39-.68,2.18-3.47,4.58-6.78,7.26-9.87,2.98-3.43,6.36-6.38,10.33-8.63,.8-.46,1.65-.84,2.47-1.26,.04,.05,.07,.11,.11,.16Z" style="fill:#4c3f3e;"/><path d="M111.67,121.3c3.07-5.95,6.13-11.9,9.24-17.92-.09,1.29-7.19,15.24-9.24,17.92Z" style="fill:#4c3f3e;"/><path d="M119.18,121.14c-.3,1.52-5.88,16.8-6.58,18.01,.15-1.07,5.97-16.99,6.58-18.01Z" style="fill:#4c3f3e;"/><path d="M135.15,137.64c-.09-.31-.23-.61-.26-.93-.16-1.56-.34-3.11-.42-4.68-.14-2.62-.23-5.24-.33-7.85-.02-.51,0-1.02,.13-1.53,.15,2.49,.28,4.98,.47,7.47,.19,2.49,.43,4.98,.65,7.46-.08,.02-.16,.04-.23,.06Z" style="fill:#4c3f3e;"/><path d="M103.97,125.57c-1.41,4.02-2.81,8.04-4.28,12.24-.34-.52-.18-.85-.08-1.15,.59-1.76,1.15-3.52,1.8-5.26,.72-1.91,1.52-3.79,2.29-5.69,.03-.08,.11-.15,.16-.23,.03,.03,.07,.05,.1,.08Z" style="fill:#4c3f3e;"/><path d="M109.74,107.01c2.25-4.34,5.27-8.08,8.97-11.28-3.38,3.45-6.34,7.23-8.97,11.28Z" style="fill:#4c3f3e;"/><path d="M120.03,151.32c1.32-3.59,2.64-7.19,3.99-10.88,.09,1.18-2.87,9.69-3.76,10.95-.08-.02-.15-.05-.23-.07Z" style="fill:#4c3f3e;"/><path d="M85.69,119.74c-1.36,3.25-2.73,6.5-4.1,9.75-.04,.1-.17,.16-.29,.26-.12-1.1,2.07-6.22,4.39-10.01Z" style="fill:#4c3f3e;"/><path d="M141.4,116.44c.36,4.8,.72,9.61,1.09,14.45-.53-1.01-1.35-10.78-1.09-14.45Z" style="fill:#4c3f3e;"/><path d="M142.11,139.23c.47,3.55,.68,6.9,.77,10.26-.07,.02-.14,.04-.21,.07-.08-.17-.22-.33-.22-.5-.16-3.12-.31-6.24-.46-9.36,0-.08,.04-.16,.12-.46Z" style="fill:#4c3f3e;"/><path d="M135.41,100.56c.72,1.43,1.69,8.13,1.52,10.32-.53-3.58-1.03-6.95-1.52-10.32Z" style="fill:#4c3f3e;"/><path d="M113.59,150.16c.78-2.23,1.52-4.37,2.3-6.59,.17,1.56-1.35,5.98-2.3,6.59Z" style="fill:#4c3f3e;"/><path d="M101.3,136.89c.7-2.06,1.39-4.12,2.09-6.18,.04,1.04-1.49,5.79-1.89,6.25-.07-.03-.13-.05-.2-.08Z" style="fill:#4c3f3e;"/><path d="M84.82,124.38c-.59,1.46-1.17,2.92-1.76,4.37-.07-.03-.14-.05-.21-.08,.34-1.54,1.08-2.93,1.72-4.36l.24,.07Z" style="fill:#4c3f3e;"/><path d="M133.39,135.05c-.57-.83-.9-3.26-.69-4.94,.22,1.59,.44,3.17,.69,4.94Z" style="fill:#4c3f3e;"/><path d="M123.36,147.07c-.39,1.08-.79,2.16-1.18,3.23-.09-.03-.18-.07-.27-.1,.39-1.08,.78-2.15,1.17-3.23,.09,.03,.19,.06,.28,.09Z" style="fill:#4c3f3e;"/></g><path d="M130.24,83.41c0,1.12-.07,2.2,.02,3.26,.11,1.25,.71,2.31,1.64,3.16,.61,.56,1.23,1.12,1.88,1.63,2.62,2.07,4.74,4.54,6.35,7.47,2.65,4.81,4.17,9.96,4.69,15.4,.4,4.23,.68,8.47,.9,12.72,.21,3.93,.67,7.83,1.32,11.71,.38,2.27,.66,4.56,.5,6.87-.09,1.22-.32,2.41-1,3.46-.87,1.36-1.94,1.73-3.45,1.17-1.3-.48-2.33-1.36-3.12-2.46-.68-.95-1.36-1.97-1.74-3.07-1.18-3.42-2.74-6.59-5.04-9.41-.76-.93-1.28-2.06-1.9-3.1-.16-.27-.31-.54-.6-1.04-.09,.44-.16,.65-.17,.87-.1,3.19-.71,6.29-1.85,9.26-1.23,3.2-3.03,6.06-5.57,8.39-1.22,1.12-2.58,1.98-4.26,2.25-1.4,.22-2.7-.03-3.8-.91-.99-.79-2.08-1.16-3.33-1.32-3.45-.45-5.83-3.05-5.98-6.53-.13-3.06,.28-6.06,1.52-8.9,.05-.11,.06-.23,.12-.5-.34,.24-.58,.37-.79,.54-1.5,1.24-3.17,2.12-5.01,2.76-.92,.32-1.82,.8-2.6,1.38-1.32,.98-2.71,1.36-4.32,1-1.2-.27-2.42-.23-3.62-.04-1.66,.27-2.78-.06-3.57-2.24-.42-1.14-.55-2.43-.6-3.66-.1-2.56,.27-5.1,.76-7.62,.1-.5,.17-1,.15-1.54-.15,.22-.32,.44-.46,.66-.94,1.44-2.12,2.62-3.59,3.54-1.02,.65-1.97,1.41-2.97,2.1-.5,.34-.99,.72-1.55,.94-.99,.41-1.7,.05-2-.98-.15-.51-.2-1.07-.22-1.61-.08-1.96,.5-3.78,1.12-5.6,1.69-5.02,4.36-9.52,7.36-13.83,3.31-4.76,6.87-9.31,11.16-13.24,4.01-3.67,8.5-6.56,13.77-8.09,4.23-1.23,8.54-1.53,12.91-1.02,2.2,.26,4.04-.37,5.5-2.05,.51-.59,.99-1.22,1.46-1.8Zm-43.01,49.56c.04,.58,.06,1.38,.14,2.17,.1,.99,.33,1.95,.89,2.81,.56,.85,1.3,1.29,2.35,1.11,1.43-.24,2.87-.27,4.29,.04,1.42,.31,2.61-.11,3.77-.93,.82-.58,1.73-1.11,2.68-1.43,2.07-.71,3.87-1.8,5.51-3.22,3.27-2.81,5.82-6.2,7.85-9.96,1.63-3,3.17-6.05,4.61-9.15,1.3-2.78,2.58-5.58,3.55-8.48,1.42-4.24,2.55-8.57,3.79-12.87,.25-.88,.19-1.77-.16-2.63-.28-.69-.75-1.25-1.49-1.37-.97-.16-1.98-.35-2.94-.23-4.08,.48-7.92,1.7-11.49,3.77-6.16,3.57-11.01,8.48-14.86,14.42-2.8,4.32-4.84,8.99-6.39,13.89-1.22,3.86-1.97,7.8-2.12,12.07Zm59.93,10.66c-.1-.93-.2-2.47-.45-3.98-.78-4.67-1.35-9.36-1.51-14.1-.15-4.38-.42-8.75-1.06-13.09-.78-5.29-2.47-10.24-5.28-14.8-1.39-2.26-3.19-4.14-5.28-5.77-.78-.61-1.69-.91-2.66-.96-1.2-.06-1.89,.37-2.25,1.52-.2,.63-.25,1.31-.28,1.98-.12,2.65-.1,5.31-.32,7.95-.41,4.85-.6,9.7-.31,14.56,.45,7.36,2.51,14.13,7.15,19.99,1.24,1.57,2.15,3.32,2.81,5.21,.36,1.03,.73,2.05,1.18,3.04,.81,1.82,1.98,3.37,3.73,4.38,1.76,1.01,3.15,.5,3.92-1.38,.52-1.27,.64-2.6,.64-4.54Zm-19.44-51.48c-.08,0-.16,0-.24-.01-.07,.1-.16,.2-.19,.31-.31,1.11-.6,2.22-.92,3.33-.91,3.19-1.71,6.43-2.79,9.57-2.14,6.2-4.98,12.1-8.12,17.86-1.66,3.04-3.49,5.98-5.99,8.4-1.37,1.32-2.03,2.9-2.53,4.63-.14,.49-.24,1-.33,1.5-.39,2.11-.69,4.24-.34,6.38,.12,.74,.34,1.53,.75,2.14,1.16,1.7,2.72,2.87,4.85,3.07,1.25,.11,2.35,.53,3.32,1.33,1.18,.97,2.54,1.12,3.98,.79,1.21-.28,2.25-.91,3.19-1.69,2.55-2.15,4.31-4.88,5.61-7.9,1.18-2.75,1.81-5.66,2.09-8.63,.16-1.72,.13-3.4-.54-5.08-1-2.5-1.58-5.13-1.91-7.81-.68-5.55-.54-11.1-.08-16.65,.29-3.54,.52-7.07,.31-10.63-.02-.3-.08-.59-.12-.89Zm-4.32-3.99c0-.08,.01-.16,.02-.24-.85-.36-1.77-.44-2.68-.47-3.93-.12-7.78,.36-11.52,1.64-5.06,1.74-9.33,4.73-13.16,8.39-3.53,3.37-6.54,7.18-9.38,11.13-3.28,4.55-6.17,9.33-8.1,14.63-.58,1.59-1.08,3.22-1.16,4.93-.03,.7,0,1.41,.12,2.1,.19,1.08,.76,1.34,1.72,.88,.37-.18,.71-.43,1.05-.67,1.18-.83,2.37-1.63,3.51-2.51,.83-.64,1.64-1.33,2.33-2.11,1.37-1.55,2.25-3.41,2.89-5.37,1.01-3.1,2.18-6.14,3.67-9.05,2.72-5.31,6.17-10.08,10.61-14.09,5.38-4.84,11.5-8.17,18.8-9.01,.43-.05,.86-.12,1.29-.18Z" style="fill:#4c3f3e;"/></g><g><path d="M177.82,57.26c-.07-.2-.19-.4-.19-.6-.03-1.69-.03-3.39-.06-5.08-.07-3.85-.2-7.69-.22-11.54-.05-8.37,1.78-16.26,6.07-23.53,2.29-3.88,4.42-7.85,6.22-11.98,2.06-4.73,3.42-9.64,3.94-14.78,.3-2.93,.65-5.85,.59-8.8,0-.13,.03-.27,.06-.44,.15-.02,.28-.03,.48-.05,0,1.1,.07,2.16-.01,3.22-.21,2.55-.47,5.1-.76,7.64-.55,4.78-1.87,9.37-3.92,13.71-1.79,3.79-3.75,7.5-5.76,11.17-2.08,3.78-3.93,7.63-4.99,11.83-.66,2.63-.98,5.3-1.18,7.99-.43,5.65,.16,11.29,.09,16.94-.01,1.14,0,2.29,0,3.43,0,.29-.09,.58-.13,.87-.06,0-.13,.01-.19,.02Z" style="fill:#4c3f3e;"/><g><path d="M187.66,66.49c.08,.22,.14,.46,.26,.66,2.21,3.66,3.44,7.66,4.33,11.81,1.04,4.84,1.23,9.75,.99,14.66-.26,5.18-1,10.3-2.67,15.25-.14,.42-.3,.84-.46,1.26-.04,.09-.12,.16-.25,.35,.44-1.62,.87-3.12,1.26-4.63,.75-2.84,1.14-5.74,1.41-8.67,.27-2.97,.51-5.94,.36-8.91-.35-6.77-1.42-13.41-4.53-19.53-1.01-1.99-2.33-3.83-3.62-5.9,.77,.99,1.42,1.85,2.09,2.69,.27,.34,.57,.66,.86,.99l-.02-.02Z" style="fill:#4c3f3e;"/><path d="M160.75,94.42c1.56-11.97,5.46-22.94,13.76-32.04-.08,.15-.15,.3-.24,.43-.1,.14-.22,.27-.32,.41-4.4,5.64-7.91,11.76-10.11,18.6-1.2,3.72-2.02,7.52-2.81,11.34-.09,.42-.18,.84-.27,1.26Z" style="fill:#4c3f3e;"/><path d="M179.72,75.88c-1.44,10.56-4.18,20.77-8.62,30.49,4.06-9.83,6.63-20.07,8.62-30.49Z" style="fill:#4c3f3e;"/><path d="M178.15,64.48c-4.62,8.83-7.24,18.41-10.54,27.74,2.85-9.5,5.35-19.14,10.54-27.74Z" style="fill:#4c3f3e;"/><path d="M189.86,62.26c2.66,.68,4.93,2.07,6.92,3.94,4.69,4.4,7.59,9.8,8.93,16.06,.06,.27,.06,.55-.04,.86-.16-.55-.33-1.09-.48-1.64-1.35-4.91-3.58-9.35-6.97-13.18-2.33-2.62-5.02-4.76-8.35-6.03Z" style="fill:#4c3f3e;"/><path d="M168.94,83.6c.85-2.47,1.68-4.95,2.57-7.41,1.37-3.8,2.83-7.57,4.8-11.11,.64-1.14,1.41-2.21,2.16-3.29,.22-.31,.56-.54,.88-.76-4.1,5.65-6.37,12.13-8.75,18.56-.5,1.36-.97,2.72-1.46,4.09-.07-.03-.14-.05-.2-.08Z" style="fill:#4c3f3e;"/><path d="M187.94,88.33c-.2,7.22-1.71,14.11-4.73,20.65,.13-.45,.24-.9,.38-1.34,.15-.46,.33-.91,.49-1.36,1.51-4.38,2.7-8.84,3.24-13.45,.17-1.5,.41-3,.62-4.5Z" style="fill:#4c3f3e;"/><path d="M205.3,105.13c1.13-4.86,1.63-9.79,1.59-14.78,.66,5.02-.16,13.23-1.59,14.78Z" style="fill:#4c3f3e;"/><path d="M154.64,74.44c1.98-3.76,8.46-10.9,10.57-11.57-1.24,1.19-2.52,2.33-3.7,3.57-1.22,1.28-2.34,2.64-3.49,3.98-1.14,1.33-2.25,2.68-3.38,4.02Z" style="fill:#4c3f3e;"/><path d="M187.68,66.51c.06-.08,.12-.15,.19-.25,4.14,5.37,6.35,11.45,6.78,18.18-.37-1.82-.7-3.65-1.11-5.46-1.01-4.47-3.01-8.51-5.57-12.28-.07-.1-.21-.15-.31-.22l.02,.02Z" style="fill:#4c3f3e;"/><path d="M165.58,100.14c-.97,4.01-1.94,8.03-2.9,12.04-.1,0-.19-.01-.29-.02-.01-.35-.09-.72-.02-1.05,.75-3.69,1.74-7.31,3.04-10.84,.02-.06,.06-.12,.1-.18,.03,.02,.05,.03,.08,.05Z" style="fill:#4c3f3e;"/><path d="M170.3,61.91c-.5,.36-1,.72-1.5,1.09-2.15,1.58-3.58,3.74-4.87,6.01-.94,1.65-1.8,3.35-2.73,5.08,.76-2.26,3.36-7.28,4.88-9.04,.92-1.06,2.06-1.93,3.13-2.86,.27-.23,.64-.33,.96-.49,.04,.07,.08,.15,.12,.22Z" style="fill:#4c3f3e;"/><path d="M194.04,67.15c3.28,3.26,5.8,7.01,6.47,11.75-.52-1.37-.97-2.78-1.58-4.11-.64-1.37-1.37-2.71-2.19-3.99-.82-1.27-1.79-2.44-2.7-3.66Z" style="fill:#4c3f3e;"/><path d="M178.94,87.18c-.25,4.1-1.64,7.92-3.19,11.7,1.19-3.86,2.43-7.7,3.19-11.7Z" style="fill:#4c3f3e;"/><path d="M155.48,74.66c-1.34,3.52-3.74,7.28-4.8,7.59,1.64-2.59,3.22-5.09,4.8-7.59Z" style="fill:#4c3f3e;"/><path d="M182.44,115.6c-.06-.59,2.01-5.69,3.25-8.03-.16,1.75-2.45,7.39-3.25,8.03Z" style="fill:#4c3f3e;"/><path d="M213.91,78.62c-3.25-1.78-6.64-3.34-9.07-6.27,.05-.09,.06-.12,.09-.14,.02-.02,.07-.03,.09-.02,.17,.12,.34,.23,.49,.36,.8,.71,1.54,1.5,2.42,2.11,1.96,1.37,3.99,2.64,5.99,3.95Z" style="fill:#4c3f3e;"/><path d="M203.7,103.51c.55-2.71,1.09-5.42,1.61-7.99,.18,2.45-.63,7.06-1.61,7.99Z" style="fill:#4c3f3e;"/><path d="M213.53,81.8c2.49,1.42,4.98,2.84,7.52,4.29-1.01,.06-6.04-2.78-7.52-4.29Z" style="fill:#4c3f3e;"/><path d="M206.96,75.06c1.51,1.12,2.94,2.17,4.37,3.23-1.24-.35-3.8-2.21-4.37-3.23Z" style="fill:#4c3f3e;"/><path d="M160.89,111.92l1-3.69c.02,1.32-.24,2.57-.58,3.81-.14-.04-.28-.08-.42-.11Z" style="fill:#4c3f3e;"/><path d="M195.49,70.89c1.1,1.2,1.98,2.53,2.36,4.14-.79-1.38-1.57-2.76-2.36-4.14Z" style="fill:#4c3f3e;"/></g><path d="M178.02,53.47c.14,.39,.33,.76,.42,1.16,.48,2.14,1.85,3.58,3.78,4.41,1.61,.69,3.3,1.29,5.01,1.62,4.15,.8,7.91,2.42,11.4,4.77,5.32,3.59,10.96,6.64,16.53,9.81,1.59,.91,3.13,1.93,4.64,2.96,1.59,1.09,2.89,2.49,3.93,4.1,.3,.46,.56,.96,.76,1.47,.66,1.76-.4,3.08-2.28,2.82-.51-.07-1.02-.2-1.51-.37-1.61-.53-3.23-1.03-4.8-1.65-1.71-.67-3.34-1.52-4.72-2.77-.15-.13-.32-.25-.66-.51,.16,.49,.24,.77,.35,1.05,1.41,3.48,2.39,7.09,2.74,10.83,.38,4.02,.24,8.03-.99,11.93-.28,.88-.63,1.78-1.11,2.56-1.13,1.8-3.06,1.97-4.55,.47-.29-.29-.54-.63-.8-.96-1.04-1.34-2.02-2.73-3.14-4-2.18-2.48-3.06-5.45-3.43-8.64-.03-.27-.05-.55-.1-.82-.03-.13-.12-.24-.24-.45-.11,1.46-.2,2.82-.32,4.18-.38,4.22-1.54,8.23-3.36,12.03-.89,1.87-1.94,3.68-3.02,5.44-.9,1.46-2.13,2.64-3.69,3.42-.91,.46-1.85,.75-2.88,.77-1.45,.02-2.6-.57-3.27-1.83-1.09-2.04-2.22-4.08-2.54-6.43-.26-1.94-.19-3.87,.17-5.78,.03-.16,.05-.32-.08-.56-.22,.37-.44,.73-.64,1.1-1.19,2.17-2.51,4.24-4.36,5.91-1.46,1.32-3.09,2.33-5.08,2.64-2.25,.35-4.36-.03-6.27-1.23-.81-.51-1.54-.71-2.52-.54-2.06,.36-3.81-.22-5.08-2.03-1.88-2.68-3.15-5.57-3.53-8.87-.34-3.02-.08-6.01,.19-9.01,.35-3.84,1.07-7.59,2.27-11.26,.04-.12,0-.26,0-.44-.14,.08-.24,.12-.3,.19-1.71,1.95-3.89,3.2-6.2,4.27-1.85,.86-3.7,1.75-5.59,2.51-1.34,.54-2.74,.94-4.14,1.3-.95,.25-1.93,.13-2.86-.22-1.35-.5-1.71-1.67-.84-2.81,.35-.46,.8-.88,1.29-1.19,.88-.55,1.78-1.08,2.73-1.49,4.72-2.03,8.78-5,12.38-8.61,1.88-1.89,3.71-3.84,5.57-5.75,2.35-2.42,4.8-4.71,7.76-6.39,1.91-1.08,3.93-1.87,6.08-2.32,.8-.17,1.59-.47,2.34-.81,2.44-1.1,3.73-3.1,4.31-5.63,.03-.12,.07-.24,.1-.36,.07,0,.13,0,.2,0Zm-24.98,45.03c-.15,3.54,.82,7.28,3,10.74,1.37,2.17,3.16,3.14,5.67,2.61,.79-.17,1.41,0,2.05,.43,3.46,2.3,7.72,2.01,10.97-1,1.57-1.45,2.83-3.14,3.87-4.99,2.64-4.7,4.69-9.65,6.18-14.82,1.73-5.98,2.81-12.07,2.1-18.34-.33-2.94-1.06-5.78-2.18-8.51-.99-2.42-2.91-3.76-5.33-4.37-1.98-.5-4-.38-5.93,.32-4.83,1.74-8.73,4.77-11.8,8.85-3.18,4.24-5.23,9.04-6.64,14.11-1.32,4.72-1.85,9.57-1.96,14.98Zm30.88-36.75s-.09,.08-.13,.12c.07,.14,.14,.29,.21,.43,.53,1.05,1.15,2.06,1.57,3.15,2.18,5.7,2.5,11.6,1.61,17.59-.79,5.29-2.21,10.41-4.25,15.36-.64,1.56-1.15,3.18-1.65,4.8-1.46,4.77-.87,9.29,1.72,13.57,.73,1.2,1.69,1.88,3.14,1.79,1.68-.1,3.1-.82,4.24-1.97,.94-.95,1.8-2.03,2.5-3.17,4-6.54,5.94-13.68,5.82-21.35-.06-3.82-.61-7.57-1.61-11.27-1.98-7.34-5.88-13.4-11.85-18.11-.42-.33-.87-.62-1.31-.93Zm.39-.89c-.02,.08-.05,.17-.07,.25,.26,.25,.49,.53,.78,.75,8.01,6.04,12.17,14.25,13.65,24,.31,2.05,.54,4.11,.84,6.16,.17,1.13,.42,2.24,.63,3.36,.51,2.75,1.34,5.35,3.27,7.51,1.15,1.29,2.14,2.71,3.23,4.06,.34,.43,.7,.89,1.15,1.19,.41,.26,.95,.41,1.44,.43,.84,.03,1.46-.49,1.82-1.19,.47-.92,.92-1.87,1.19-2.86,1.43-5.19,1.26-10.4,.12-15.62-.91-4.16-2.59-8.02-4.56-11.76-4.84-9.21-12.38-14.71-22.67-16.36-.26-.04-.54,.06-.81,.1Zm-13.91,.41c-.03-.09-.07-.18-.1-.26-.52,.13-1.06,.22-1.56,.4-2.51,.88-4.84,2.14-6.81,3.9-2.34,2.1-4.6,4.31-6.75,6.61-4.81,5.13-10,9.69-16.64,12.33-.16,.06-.31,.15-.46,.24-.61,.39-1.25,.75-1.82,1.2-.56,.45-1.21,1.01-.95,1.81,.28,.87,1.14,1.01,1.95,1.1,.03,0,.07,0,.1,0,1.99,.13,3.66-.6,5.1-1.92,.67-.61,1.33-1.22,1.93-1.89,1.77-2,4.01-2.8,6.64-2.89,1.66-.06,3.22-.64,4.12-2.21,.85-1.46,1.67-2.95,2.41-4.47,2.82-5.77,6.67-10.6,12.43-13.69,.14-.08,.27-.19,.41-.28Zm32.22,7.38s-.08,.09-.12,.13c.1,.13,.2,.28,.31,.4,2.54,2.65,4.49,5.71,6.1,8.98,1.05,2.14,2.69,3.63,4.7,4.82,2.38,1.41,5.12,1.86,7.63,2.91,.46,.19,1.02,.22,1.52,.21,1.13-.03,1.64-.71,1.35-1.79-.13-.49-.36-.98-.62-1.41-1.02-1.68-2.33-3.11-3.94-4.22-1.62-1.12-3.29-2.18-4.98-3.18-3.82-2.24-7.67-4.42-11.51-6.63-.14-.08-.3-.14-.45-.21Zm-59.54,18.44c3.12-1.49,6.49-2.44,9.39-4.67-4.01,.02-7.08,1.6-9.39,4.67Z" style="fill:#4c3f3e;"/></g><g><path d="M67.58,29.29c.13-.18,.24-.37,.39-.53,.08-.09,.21-.15,.33-.2,3.79-1.67,7.55-3.42,11.38-5,3.56-1.47,7.31-2.24,11.12-2.7,3.15-.38,6.3-.54,9.46-.54,7.8-.01,15.6,.06,23.4-.04,2.9-.04,5.79-.4,8.68-.72,5.02-.55,9.94-1.63,14.8-3.01,8.16-2.32,15.64-6.06,22.68-10.74,5.14-3.42,10.05-7.16,14.87-11.01,.36-.29,.67-.72,1.31-.51-.1,.13-.18,.26-.28,.34-6.6,5.32-13.33,10.46-20.65,14.76-7.41,4.35-15.34,7.38-23.75,9.16-3.84,.81-7.71,1.47-11.61,1.87-4.87,.5-9.76,.47-14.65,.44-5.72-.03-11.44-.08-17.17,0-7.88,.11-15.47,1.56-22.6,5.09-2.14,1.06-4.38,1.93-6.56,2.91-.33,.15-.63,.37-.94,.56-.06-.04-.13-.08-.2-.13Z" style="fill:url(#Degradado_sin_nombre_91);"/><g><path d="M24.59,41.81c10.03-9.5,21.68-15.09,35.74-14.9-13.88,.23-25.5,5.9-35.74,14.9Z" style="fill:url(#Degradado_sin_nombre_91-2);"/><path d="M70.3,39.56c.43,2.05,.41,3.95,.22,5.81-.23,2.31-.92,4.55-1.8,6.71-1.91,4.73-4.69,8.92-8.07,12.71-3.26,3.66-6.78,7.04-10.81,9.86-.41,.29-.83,.56-1.34,.7,.34-.25,.68-.51,1.02-.77,5.44-4.11,10.26-8.83,14.26-14.36,2.6-3.59,4.65-7.47,5.77-11.79,.64-2.47,1.15-4.97,.75-7.55-.06-.37,0-.75,0-1.32Z" style="fill:url(#Degradado_sin_nombre_91-3);"/><path d="M33.84,60.53c1.52-.77,3.05-1.53,4.57-2.32,6.79-3.52,12.99-7.89,18.58-13.11,2.65-2.47,4.93-5.27,6.87-8.34,.2-.32,.42-.63,.74-.89-.1,.21-.18,.42-.29,.62-2.42,4.2-5.61,7.75-9.26,10.91-6.2,5.38-13.07,9.69-20.58,12.97-.2,.09-.39,.16-.59,.24-.01-.03-.03-.06-.04-.09Z" style="fill:url(#Degradado_sin_nombre_91-4);"/><path d="M68.49,44.13c-.13,.34-.28,.68-.4,1.03-1.39,3.94-3.6,7.39-6.38,10.48-3.55,3.95-7.29,7.71-11.73,10.68-1.67,1.12-3.39,2.16-5.09,3.23-.23,.14-.47,.26-.78,.27,.25-.17,.5-.35,.76-.51,6.13-3.68,11.49-8.27,16.22-13.62,2.9-3.28,5.39-6.8,6.95-10.92,.09-.23,.22-.45,.32-.68,.05,.02,.09,.03,.14,.05Z" style="fill:url(#Degradado_sin_nombre_91-5);"/><path d="M18.39,51.17c5.77-8.56,13.69-14.46,22.96-18.71-8.92,4.68-16.88,10.54-22.96,18.71Z" style="fill:url(#Degradado_sin_nombre_91-6);"/><path d="M32.51,47.52c1.36-1.57,15.02-9.47,18.67-10.77-6.19,3.57-12.37,7.14-18.67,10.77Z" style="fill:url(#Degradado_sin_nombre_91-7);"/><path d="M39.55,65.29c-3.2,2.6-14.74,7.98-17.41,8.04,.04-.47,.45-.48,.74-.6,2.31-.91,4.68-1.71,6.94-2.74,3.34-1.51,6.61-3.18,9.73-4.7Z" style="fill:url(#Degradado_sin_nombre_91-8);"/><path d="M67.27,35.9c-2.87,7.53-8.03,13.3-14.21,18.28l-.16-.14c.28-.25,.56-.51,.85-.76,3.92-3.33,7.33-7.1,10.2-11.37,1.28-1.91,2.36-3.93,3.32-6.01Z" style="fill:url(#Degradado_sin_nombre_91-9);"/><path d="M29.05,29.65c6.26-2.58,12.78-3.81,19.54-3.75,0,.06,.01,.12,.02,.19-1.28,.09-2.57,.16-3.85,.27-1.33,.12-2.66,.25-3.99,.43-1.35,.19-2.7,.42-4.04,.71-1.3,.28-2.59,.63-3.88,.99-1.28,.36-2.54,.77-3.8,1.15Z" style="fill:url(#Degradado_sin_nombre_91-10);"/><path d="M31.08,55.4c-3.69,1.9-7.38,3.79-11.22,5.76,.11-.29,.13-.5,.24-.58,.52-.37,1.03-.77,1.59-1.04,3.04-1.44,6.1-2.85,9.16-4.27,.05-.02,.12,0,.18,0,.02,.04,.03,.08,.05,.12Z" style="fill:url(#Degradado_sin_nombre_91-11);"/><path d="M60.25,73.5c1.45-4.38,2.75-8.82,5.02-12.87,.08,.03,.16,.06,.24,.1-.89,2.12-1.81,4.22-2.65,6.36-.85,2.16-1.63,4.34-2.44,6.52-.05-.03-.11-.07-.16-.1Z" style="fill:url(#Degradado_sin_nombre_91-12);"/><path d="M40.04,23.89c-5.08,.78-9.66-.79-14.09-3.01,2.32,.77,4.62,1.57,6.95,2.3,2.32,.72,4.75,.57,7.14,.71Z" style="fill:url(#Degradado_sin_nombre_91-13);"/><path d="M16.37,71.18c.1,.14,.24,.26,.3,.42,.47,1.15,1.21,2.11,2.12,2.92,1.45,1.29,2.94,2.53,4.49,3.86-.24-.1-.43-.15-.59-.25-1.95-1.18-3.7-2.61-5.22-4.3-.5-.56-.83-1.27-1.19-1.94-.1-.18-.06-.44-.09-.66,.06-.02,.12-.04,.18-.06Z" style="fill:url(#Degradado_sin_nombre_91-14);"/><path d="M40.46,78.55c-2.86,1.72-5.92,2.98-9.02,4.15-.05-.12-.1-.24-.15-.36,3.02-1.35,6.13-2.48,9.17-3.79Z" style="fill:url(#Degradado_sin_nombre_91-15);"/><path d="M27.24,23.38c-1.51-.66-3.05-1.27-4.52-2.01-.75-.38-1.41-.97-2.07-1.51-.24-.2-.36-.54-.54-.82,.05-.05,.1-.09,.16-.14,.11,.08,.24,.13,.32,.23,.76,.99,1.75,1.66,2.85,2.2,1.31,.63,2.63,1.26,3.95,1.89-.05,.05-.1,.11-.15,.16Z" style="fill:url(#Degradado_sin_nombre_91-16);"/><path d="M38.31,42.08c2.18-1.52,4.53-2.77,6.95-3.88-2.28,1.35-4.57,2.7-6.85,4.05-.03-.06-.07-.12-.1-.17Z" style="fill:url(#Degradado_sin_nombre_91-17);"/><path d="M15.14,71.59c.87,1.74,2.15,3.15,3.55,4.61-1.83-1.03-3.58-3.27-3.55-4.61Z" style="fill:url(#Degradado_sin_nombre_91-18);"/><path d="M60.32,70.42c.56-1.96,1.19-3.86,2.27-5.59-.55,1.95-1.39,3.79-2.27,5.59Z" style="fill:url(#Degradado_sin_nombre_91-19);"/><path d="M11.15,54.4c.51,1.77,.66,3.45,1.74,4.89-.63,.19-.85-.21-.97-.56-.3-.93-.55-1.87-.76-2.83-.09-.42-.02-.87-.02-1.5Z" style="fill:url(#Degradado_sin_nombre_91-20);"/><path d="M30.86,83.52c1.7-.66,3.4-1.32,5.09-1.98-1.58,.98-3.25,1.73-4.98,2.31l-.11-.33Z" style="fill:url(#Degradado_sin_nombre_91-21);"/><path d="M26.96,73.17c-1.2,.67-2.47,1.14-3.84,1.29,1.16-.78,2.55-.89,3.84-1.29Z" style="fill:url(#Degradado_sin_nombre_91-22);"/></g><path d="M57.75,71.62c-.32,.35-.64,.7-.97,1.05-3.88,4.16-8.17,7.83-13.11,10.68-2.66,1.53-5.44,2.83-8.44,3.57-1.02,.25-2.05,.45-3.11,.12-1.35-.42-2.04-1.63-1.63-2.99,.32-1.06,.76-2.1,.59-3.32-.44,.05-.87,.16-1.3,.14-4.53-.22-8.93-.98-13-3.13-.23-.12-.44-.26-.66-.4-1.89-1.26-2.44-2.28-2.44-4.48-.87-.52-1.74-.99-2.54-1.55-1.46-1.02-2.23-2.41-2.12-4.25,.04-.63-.05-1.28-.17-1.9-.34-1.67-.39-3.3,.55-4.78-1.99-2.63-1.97-5.45-.97-8.32,.84-2.41,2.24-4.51,3.92-6.42,1.95-2.22,4.1-4.21,6.38-6.08,.57-.47,1.1-.98,1.61-1.5,1.36-1.37,2.95-2.44,4.6-3.44,1.28-.78,2.61-1.48,3.92-2.22,.27-.15,.53-.32,.73-.64-.28,.1-.58,.16-.85,.29-1.59,.75-3.16,1.52-4.75,2.28-1.53,.73-3.03,1.53-4.59,2.16-2.39,.97-4.4,2.41-6.17,4.27-.96,1.01-2.05,1.92-3.14,2.8-.62,.51-1.39,.78-2.23,.73-.93-.05-1.3-.45-1.33-1.38-.03-.94,.28-1.79,.79-2.52,.69-.99,1.42-1.98,2.26-2.84,3.17-3.27,6.97-5.69,10.95-7.84,2.64-1.43,5.4-2.62,8.26-3.56,.3-.1,.6-.21,1.06-.38-.45-.14-.76-.23-1.06-.32-3.88-1.14-7.08-3.12-9.12-6.79-.88-1.58-2.13-2.95-3.17-4.44-.4-.57-.77-1.18-1-1.83-.39-1.12,.23-2.11,1.37-2.43,.9-.26,1.78-.08,2.65,.1,1.65,.34,3.13,1.09,4.49,2.07,4.38,3.16,9.17,5.55,14.18,7.54,4.04,1.6,8.22,2.76,12.4,3.92,3.1,.86,6.23,1.64,9.33,2.49,.89,.24,1.74,.62,2.6,.96,3.14,1.23,6.27,1.38,9.38-.1,1.01-.48,1.51-.58,2.34-.53-.18,.17-.3,.31-.44,.4-2.46,1.52-3.45,3.85-3.59,6.62-.11,2.08,.11,4.13,.47,6.19,.45,2.62,.52,5.27,.2,7.92-.61,5.12-2.04,10.05-3.42,14.99-1.41,5.07-2.71,10.16-3.67,15.33-.4,2.13-.59,4.29-.86,6.44-.34,2.75-.59,5.52-.99,8.26-.23,1.59-.97,2.97-2.43,3.84-.76,.45-1.32,.46-1.84-.03-.22-.21-.42-.5-.49-.79-.22-.89-.46-1.8-.51-2.71-.08-1.43-.05-2.88,0-4.31,.05-1.74-.3-3.43-.61-5.12-.7-3.8-.14-7.42,1.51-10.9,.12-.26,.24-.51,.36-.77-.05-.04-.1-.08-.15-.13Zm11.58-33.36c.14-1.15-.4-2.82-1.06-4.46-1.03-2.54-2.78-3.69-5.54-3.77-2.23-.07-4.39,.27-6.51,.9-5.83,1.75-11.42,4.08-16.79,6.93-4.24,2.25-8.28,4.84-11.97,7.93-1.69,1.42-3.33,2.91-4.48,4.83-1.73,2.88-2.64,5.99-2.67,9.37-.01,1.88-.14,3.77-.16,5.65,0,1.11-.05,2.26,.19,3.33,1.1,4.92,5.46,8.79,11.66,8.08,2.55-.29,5.01-.97,7.41-1.84,12.22-4.4,21.12-12.57,26.95-24.12,1.92-3.81,2.84-7.91,2.98-12.84ZM20.44,54.9c.09-.25,.18-.46,.25-.67,.92-2.89,2.46-5.4,4.73-7.42,1.1-.98,2.18-1.98,3.35-2.86,4.71-3.56,9.74-6.57,15.14-8.96,5.25-2.33,10.54-4.55,16.26-5.53,.37-.06,.73-.23,1.06-.42,.77-.45,.8-1.08,.03-1.54-.42-.26-.94-.42-1.43-.49-1.83-.25-3.67-.42-5.5-.65-2.6-.33-5.17-.03-7.73,.32-3.32,.46-6.54,1.37-9.67,2.59-4.87,1.9-9.46,4.32-13.8,7.23-1.45,.97-2.66,2.17-3.69,3.59-.75,1.03-1.59,2-2.41,2.98-.77,.94-1.57,1.85-2.35,2.79-.79,.95-1.35,2.02-1.5,3.26-.15,1.23-.31,2.47-.35,3.7-.07,2.05,.55,2.76,2.55,3.13,.22,.04,.45,.04,.67,.04,1.54,.04,2.95-.43,4.38-1.09Zm49.72-15.23c-.09,0-.17,0-.26,0-.02,.12-.06,.24-.06,.37-.12,2.21-.5,4.37-1.1,6.49-1.18,4.2-3.24,7.98-5.77,11.5-6.4,8.89-14.72,15.17-25.26,18.36-2.09,.63-3.8,1.8-5.22,3.4-.4,.45-.64,1.09-.82,1.68-.26,.85-.37,1.74-.61,2.59-.33,1.17,.14,2.06,1.3,2.45,.94,.32,1.84,.09,2.73-.14,3.75-.97,7.18-2.66,10.38-4.81,9.28-6.26,16.4-14.45,21.58-24.34,2.43-4.63,3.64-9.58,3.37-14.85-.05-.9-.18-1.8-.27-2.7Zm-21.36-15.79s.01-.07,.02-.1c-.64-.15-1.28-.31-1.93-.45-2.79-.61-5.65-.47-8.46-.76-1.68-.17-3.38-.23-5.01-.62-4.03-.96-7.61-2.76-10.11-6.24-.54-.75-1.09-1.5-1.65-2.23-.48-.63-.97-1.27-1.49-1.88-.51-.6-1.15-1.01-1.91-1.21-.77-.2-1.48,0-2.02,.57-.55,.59-.34,1.25-.02,1.87,.19,.37,.44,.7,.68,1.04,1.3,1.85,2.63,3.68,3.91,5.55,.88,1.28,1.89,2.42,3.18,3.27,1.61,1.06,3.37,1.81,5.21,2.35,.89,.26,1.82,.38,2.74,.16,2.45-.57,4.9-1.14,7.42-1.3,1.72-.11,3.44-.19,5.16-.2,1.42,0,2.85,.12,4.28,.18Zm-31.47,12.74c.04,.07,.08,.13,.12,.2,1.76-.81,3.52-1.61,5.28-2.42,2.52-1.16,5.01-2.39,7.57-3.46,1.61-.67,3.36-1.01,4.99-1.65,4.02-1.58,8.13-2.83,12.44-3.28,2.16-.22,4.32-.45,6.5-.2,1,.12,2.02,.13,3.23,.2-.35-.14-.51-.22-.69-.26-3.14-.76-6.32-1.2-9.54-1.43-1.75-.12-3.5-.15-5.25-.06-1.86,.1-3.68,.37-5.44,.95-5.11,1.69-9.73,4.32-14.19,7.28-1.81,1.2-3.49,2.58-5.01,4.14Zm48.1,31.15c-.05-.01-.1-.02-.15-.03-.09,.2-.17,.41-.26,.61-1.21,2.5-2.24,5.11-3.67,7.47-3.22,5.31-4.2,11.1-4.16,17.15,0,.78,.23,1.58,.47,2.33,.28,.89,.86,1.09,1.61,.51,.54-.42,1.11-.93,1.39-1.53,.44-.94,.78-1.97,.92-2.99,.39-2.81,.68-5.63,.97-8.45,.37-3.62,1.03-7.18,1.88-10.72,.35-1.45,.67-2.9,1-4.35Zm-53.77-7.3c.35,.37,.56,.64,.82,.86,.99,.85,1.62,1.92,1.78,3.18,.12,.94,.06,1.9,0,2.85-.06,.82-.27,1.63-.35,2.45-.07,.67,0,1.34,.54,1.83,1.92-.98,3.89-1.05,6-.27-.13-.4-.19-.61-.26-.82-.42-1.18-.66-2.38-.61-3.65,.09-2.74,.14-5.48,.22-8.22,0-.28,.07-.57,.1-.85,.09-.68,.17-1.37,.27-2.11-1.19,.31-2.28,.6-3.35,.88-.76,1-1.59,1.86-2.72,2.4-.81,.39-1.56,.93-2.44,1.46Zm22.61,16.9c-1.38,.1-2.65,.24-3.92,.26-3.77,.05-6.72-1.56-8.87-4.61-.52-.73-1.15-1.14-1.96-1.42-1.37-.48-2.71-.29-4.03,.14-.98,.31-1.44,1.18-1.27,2.19,.15,.91,.49,1.75,1.26,2.29,.83,.59,1.67,1.19,2.59,1.61,3.54,1.65,7.31,2.37,11.2,2.55,1.25,.06,2.27-.11,3.06-1.26,.47-.68,1.25-1.16,1.93-1.76Zm.08-51.93c-.01-.06-.02-.11-.03-.17-.21,.03-.43,.05-.64,.1-6.98,1.57-13.31,4.59-19.13,8.7-2.02,1.42-3.88,3.03-5.51,4.89-.76,.87-1.42,1.81-1.8,2.92-.18,.53-.26,1.05-.05,1.59,.67,.5,1.34,.3,1.99-.02,1.28-.63,2.26-1.65,3.27-2.64,2.36-2.3,4.62-4.7,7.13-6.82,3.6-3.04,7.74-5.3,11.99-7.32,.92-.44,1.86-.83,2.79-1.24Zm22.58,60.38c.07,0,.13,0,.2-.01,.12-.62,.23-1.23,.36-1.85,.61-2.94,1.83-5.63,3.32-8.22,3.29-5.71,5.49-11.84,7.1-18.21,.03-.11,0-.24-.03-.55-.21,.38-.33,.6-.45,.82-1.66,3.26-3.61,6.33-5.89,9.19-1.32,1.66-2.41,3.45-3.35,5.35-1.23,2.49-2.04,5.12-1.95,7.91,.06,1.86,.44,3.72,.67,5.57ZM20.15,10.85c1.23,1.58,2.4,3.01,3.48,4.51,2.32,3.23,5.62,4.94,9.31,6.02,2.15,.63,4.4,.69,6.62,.85,.89,.06,1.78,.12,2.67,.16,.54,.02,1.09,0,1.63,0-.29-.25-.58-.36-.88-.45-5.31-1.69-10.42-3.84-15.21-6.7-1.62-.97-3.16-2.06-4.74-3.08-.85-.55-1.72-1.08-2.88-1.31Zm-2.18,30.26c-.06-.04-.12-.08-.19-.12-2.63,2.29-5.15,4.69-7.05,7.64-1.21,1.88-2.2,3.87-2.42,6.17-.14,1.52,.12,2.93,.84,4.24,.72,1.31,1.62,1.45,2.84,.6,.62-.43,1.28-.83,1.95-1.17,.84-.43,1.53-1,2.1-1.83-.59-.13-1.12-.22-1.63-.37-1.45-.43-2.12-1.29-2.11-2.81,.01-1.27,.07-2.55,.22-3.81,.19-1.61,.77-3.08,1.86-4.33,.97-1.1,1.92-2.23,2.87-3.35,.24-.28,.47-.57,.71-.86Zm-8.11,19.58c-.53,.99-.97,1.94-.73,3.16,.26,1.33,.32,2.71,.43,4.07,.07,.79,.35,1.48,.88,2.07,.82,.91,1.81,1.6,2.91,2.13,.17,.08,.38,.1,.79,.21-1.02-1.28-.94-2.53-.64-3.8,.1-.43,.22-.86,.27-1.3,.22-1.85,.12-3.64-1.28-5.09-.44-.46-.9-.89-1.35-1.34-.42-.03-.83-.06-1.28-.09Z" style="fill:url(#Degradado_sin_nombre_91-23);"/></g></svg>