<?xml version="1.0" encoding="UTF-8"?><svg id="OBJECTS" xmlns="http://www.w3.org/2000/svg" xmlns:xlink="http://www.w3.org/1999/xlink" viewBox="0 0 226.98 258.11"><defs><linearGradient id="Degradado_sin_nombre_91" x1="-7.48" y1="128.48" x2="214.64" y2="259.34" gradientUnits="userSpaceOnUse"><stop offset="0" stop-color="#a37b57"/><stop offset=".08" stop-color="#a67e5b"/><stop offset=".16" stop-color="#b08a67"/><stop offset=".24" stop-color="#c19d7b"/><stop offset=".32" stop-color="#d9b797"/><stop offset=".34" stop-color="#debd9d"/><stop offset=".6" stop-color="#ba8e65"/><stop offset="1" stop-color="#946a43"/></linearGradient><linearGradient id="Degradado_sin_nombre_91-2" x1="-.43" y1="116.52" x2="221.68" y2="247.38" xlink:href="#Degradado_sin_nombre_91"/><linearGradient id="Degradado_sin_nombre_91-3" x1="-2.2" y1="119.52" x2="219.92" y2="250.37" xlink:href="#Degradado_sin_nombre_91"/><linearGradient id="Degradado_sin_nombre_91-4" x1=".26" y1="115.35" x2="222.38" y2="246.21" xlink:href="#Degradado_sin_nombre_91"/><linearGradient id="Degradado_sin_nombre_91-5" x1=".48" y1="114.98" x2="222.59" y2="245.84" xlink:href="#Degradado_sin_nombre_91"/><linearGradient id="Degradado_sin_nombre_91-6" x1="-3.18" y1="121.18" x2="218.94" y2="252.04" xlink:href="#Degradado_sin_nombre_91"/><linearGradient id="Degradado_sin_nombre_91-7" x1="14.79" y1="90.69" x2="236.9" y2="221.55" xlink:href="#Degradado_sin_nombre_91"/><linearGradient id="Degradado_sin_nombre_91-8" x1="-7.37" y1="128.29" x2="214.75" y2="259.15" xlink:href="#Degradado_sin_nombre_91"/><linearGradient id="Degradado_sin_nombre_91-9" x1="-9.83" y1="132.48" x2="212.28" y2="263.34" xlink:href="#Degradado_sin_nombre_91"/><linearGradient id="Degradado_sin_nombre_91-10" x1="10.66" y1="97.69" x2="232.78" y2="228.55" xlink:href="#Degradado_sin_nombre_91"/><linearGradient id="Degradado_sin_nombre_91-11" x1="3.54" y1="109.79" x2="225.65" y2="240.65" xlink:href="#Degradado_sin_nombre_91"/><linearGradient id="Degradado_sin_nombre_91-12" x1="-10.97" y1="134.4" x2="211.15" y2="265.26" xlink:href="#Degradado_sin_nombre_91"/><linearGradient id="Degradado_sin_nombre_91-13" x1="21.28" y1="79.67" x2="243.39" y2="210.53" xlink:href="#Degradado_sin_nombre_91"/><linearGradient id="Degradado_sin_nombre_91-14" x1="19.33" y1="82.98" x2="241.44" y2="213.84" xlink:href="#Degradado_sin_nombre_91"/><linearGradient id="Degradado_sin_nombre_91-15" x1="-8.47" y1="130.16" x2="213.65" y2="261.02" xlink:href="#Degradado_sin_nombre_91"/><linearGradient id="Degradado_sin_nombre_91-16" x1="-4.19" y1="122.9" x2="217.93" y2="253.76" xlink:href="#Degradado_sin_nombre_91"/><linearGradient id="Degradado_sin_nombre_91-17" x1="21.73" y1="78.91" x2="243.84" y2="209.77" xlink:href="#Degradado_sin_nombre_91"/><linearGradient id="Degradado_sin_nombre_91-18" x1="4.32" y1="108.46" x2="226.43" y2="239.32" xlink:href="#Degradado_sin_nombre_91"/><linearGradient id="Degradado_sin_nombre_91-19" x1="14.23" y1="91.63" x2="236.35" y2="222.49" xlink:href="#Degradado_sin_nombre_91"/><linearGradient id="Degradado_sin_nombre_91-20" x1="21.2" y1="79.8" x2="243.32" y2="210.66" xlink:href="#Degradado_sin_nombre_91"/><linearGradient id="Degradado_sin_nombre_91-21" x1="19.11" y1="83.35" x2="241.22" y2="214.21" xlink:href="#Degradado_sin_nombre_91"/><linearGradient id="Degradado_sin_nombre_91-22" x1="1.29" y1="113.59" x2="223.41" y2="244.45" xlink:href="#Degradado_sin_nombre_91"/><linearGradient id="Degradado_sin_nombre_91-23" x1="-41.55" y1="186.31" x2="180.57" y2="317.17" xlink:href="#Degradado_sin_nombre_91"/><linearGradient id="Degradado_sin_nombre_91-24" x1="-30.52" y1="274.3" x2="79.68" y2="28.94" xlink:href="#Degradado_sin_nombre_91"/><linearGradient id="Degradado_sin_nombre_91-25" x1="-27.42" y1="275.7" x2="82.78" y2="30.34" xlink:href="#Degradado_sin_nombre_91"/><linearGradient id="Degradado_sin_nombre_91-26" x1="-48.8" y1="272.66" x2="61.4" y2="27.3" xlink:href="#Degradado_sin_nombre_91"/><linearGradient id="Degradado_sin_nombre_91-27" x1="-36.58" y1="278.15" x2="73.62" y2="32.79" xlink:href="#Degradado_sin_nombre_91"/><linearGradient id="Degradado_sin_nombre_91-28" x1="-52.95" y1="270.8" x2="57.25" y2="25.44" xlink:href="#Degradado_sin_nombre_91"/><linearGradient id="Degradado_sin_nombre_91-29" x1="-28.97" y1="281.57" x2="81.23" y2="36.21" xlink:href="#Degradado_sin_nombre_91"/><linearGradient id="Degradado_sin_nombre_91-30" x1="-10.44" y1="289.89" x2="99.76" y2="44.53" xlink:href="#Degradado_sin_nombre_91"/><linearGradient id="Degradado_sin_nombre_91-31" x1="-33.25" y1="279.65" x2="76.95" y2="34.29" xlink:href="#Degradado_sin_nombre_91"/><linearGradient id="Degradado_sin_nombre_91-32" x1="-36.9" y1="278.01" x2="73.29" y2="32.64" xlink:href="#Degradado_sin_nombre_91"/><linearGradient id="Degradado_sin_nombre_91-33" x1="-15.11" y1="287.79" x2="95.08" y2="42.43" xlink:href="#Degradado_sin_nombre_91"/><linearGradient id="Degradado_sin_nombre_91-34" x1="-35.09" y1="278.82" x2="75.1" y2="33.46" xlink:href="#Degradado_sin_nombre_91"/><linearGradient id="Degradado_sin_nombre_91-35" x1="-51.41" y1="271.49" x2="58.78" y2="26.13" xlink:href="#Degradado_sin_nombre_91"/><linearGradient id="Degradado_sin_nombre_91-36" x1="-30.06" y1="281.08" x2="80.14" y2="35.72" xlink:href="#Degradado_sin_nombre_91"/><linearGradient id="Degradado_sin_nombre_91-37" x1="-6.47" y1="291.67" x2="103.73" y2="46.32" xlink:href="#Degradado_sin_nombre_91"/><linearGradient id="Degradado_sin_nombre_91-38" x1="-70.86" y1="262.75" x2="39.34" y2="17.4" xlink:href="#Degradado_sin_nombre_91"/><linearGradient id="Degradado_sin_nombre_91-39" x1="-8.09" y1="290.94" x2="102.1" y2="45.58" xlink:href="#Degradado_sin_nombre_91"/><linearGradient id="Degradado_sin_nombre_91-40" x1="-10.76" y1="289.75" x2="99.43" y2="44.39" xlink:href="#Degradado_sin_nombre_91"/><linearGradient id="Degradado_sin_nombre_91-41" x1="-38.95" y1="277.09" x2="71.25" y2="31.73" xlink:href="#Degradado_sin_nombre_91"/><linearGradient id="Degradado_sin_nombre_91-42" x1="-50.95" y1="271.69" x2="59.24" y2="26.33" xlink:href="#Degradado_sin_nombre_91"/><linearGradient id="Degradado_sin_nombre_91-43" x1="-70.94" y1="262.72" x2="39.26" y2="17.36" xlink:href="#Degradado_sin_nombre_91"/><linearGradient id="Degradado_sin_nombre_91-44" x1="-17.3" y1="286.81" x2="92.89" y2="41.45" xlink:href="#Degradado_sin_nombre_91"/><linearGradient id="Degradado_sin_nombre_91-45" x1="-30.08" y1="281.07" x2="80.12" y2="35.71" xlink:href="#Degradado_sin_nombre_91"/><linearGradient id="Degradado_sin_nombre_91-46" x1="-40.61" y1="276.34" x2="69.59" y2="30.98" xlink:href="#Degradado_sin_nombre_91"/><linearGradient id="Degradado_sin_nombre_91-47" x1="8.8" y1="298.53" x2="118.99" y2="53.17" xlink:href="#Degradado_sin_nombre_91"/></defs><g><g><path d="M131.31,232.1c.33-.03,.65-.08,.98-.08,13.09-.06,24.64-4.65,35.2-12.06,2.62-1.84,5.05-3.95,7.48-5.87-1.53,2.63-12.43,10.21-19.08,13.14-7.82,3.44-15.91,5.58-24.57,4.86Z" style="fill:url(#Degradado_sin_nombre_91);"/><path d="M119.11,216.64c-.93-5.24-.02-10.23,1.93-15.09,2.28-5.68,5.58-10.73,9.62-15.3,4.07-4.61,8.49-8.86,13.54-12.41,.49-.34,1-.67,1.59-.86-1.5,1.17-3.04,2.29-4.48,3.52-6.84,5.85-13.04,12.25-17.47,20.19-2.24,4.02-3.83,8.27-4.57,12.81-.29,1.76-.48,3.56-.17,5.37,.1,.57,.02,1.17,.02,1.77Z" style="fill:url(#Degradado_sin_nombre_91-2);"/><path d="M163.69,191.05c-5.04,2.58-10.03,5.25-14.77,8.36-4.88,3.21-9.45,6.82-13.7,10.82-3.18,2.98-5.9,6.36-8.23,10.05-.24,.37-.48,.74-.72,1.12l-.2-.13c.3-.52,.6-1.05,.92-1.57,3.26-5.39,7.59-9.8,12.4-13.82,7.23-6.03,15.18-10.84,23.78-14.62,.17-.08,.36-.14,.54-.2Z" style="fill:url(#Degradado_sin_nombre_91-3);"/><path d="M151.19,179.79c-1.88,1.24-3.79,2.46-5.65,3.73-7.36,5.04-13.6,11.23-18.96,18.34-1.91,2.54-3.36,5.34-4.55,8.29-.15,.38-.32,.74-.57,1.07,1.06-3.01,2.22-5.97,4-8.64,2.79-4.19,6.25-7.79,9.81-11.32,4.7-4.66,10.09-8.35,15.92-11.47Z" style="fill:url(#Degradado_sin_nombre_91-4);"/><path d="M182.66,202.59c-7.06,10.47-16.75,17.7-28.1,22.89,10.91-5.73,20.66-12.89,28.1-22.89Z" style="fill:url(#Degradado_sin_nombre_91-5);"/><path d="M165.39,207.38c-7.3,4.85-14.91,9.18-22.87,12.87,7.57-4.36,15.14-8.73,22.71-13.09,.05,.07,.11,.15,.16,.22Z" style="fill:url(#Degradado_sin_nombre_91-6);"/><path d="M156.59,185.51c4.3-3.48,18.33-10,21.55-9.86-.26,.17-.49,.4-.77,.49-7.27,2.36-14.05,5.8-20.78,9.37Z" style="fill:url(#Degradado_sin_nombre_91-7);"/><path d="M140.32,198.96c-3.53,3.23-6.97,6.53-9.97,10.28-2.99,3.73-5.62,7.67-7.56,12.08,.09-.31,.16-.63,.27-.93,1.5-3.85,3.69-7.3,6.23-10.54,2.85-3.64,6.02-6.97,9.64-9.87,.37-.29,.73-.58,1.11-.87,.08-.06,.19-.1,.28-.15Z" style="fill:url(#Degradado_sin_nombre_91-8);"/><path d="M145.67,233.34c8.19-.28,16.17-1.64,23.88-4.42-3.43,2.36-17.17,4.96-23.88,4.42Z" style="fill:url(#Degradado_sin_nombre_91-9);"/><path d="M167.11,197.43c4.52-2.33,9.05-4.65,13.81-7.1-.2,.42-.23,.67-.37,.76-.67,.47-1.33,.97-2.06,1.32-3.65,1.73-7.33,3.42-11,5.13-.09,.04-.22,.02-.33,.03-.02-.05-.04-.09-.06-.14Z" style="fill:url(#Degradado_sin_nombre_91-10);"/><path d="M131.22,175.18c-.91,4.89-4.65,14.28-6.32,15.94,1.18-2.81,2.3-5.37,3.33-7.96,1.05-2.64,2-5.32,2.99-7.98Z" style="fill:url(#Degradado_sin_nombre_91-11);"/><path d="M173.32,239.63c-2.73-.91-5.51-1.91-8.34-2.77-2.87-.88-5.85-.77-8.99-.75,2.65-1.51,12.76,.64,17.32,3.52Z" style="fill:url(#Degradado_sin_nombre_91-12);"/><path d="M176.71,169.42c2.94,1.51,5.47,3.5,7.55,6.01,.61,.74,1.14,1.56,1.08,2.76-.25-.19-.45-.27-.5-.41-.83-2.21-2.52-3.73-4.24-5.21-1.26-1.09-2.59-2.11-3.89-3.16Z" style="fill:url(#Degradado_sin_nombre_91-13);"/><path d="M155.55,169.05c3.38-2.01,7.01-3.38,10.58-4.87,.19-.08,.44-.01,.9-.01-.37,.28-.55,.48-.77,.57-3.51,1.48-7.03,2.95-10.55,4.42-.02,0-.06-.04-.17-.11Z" style="fill:url(#Degradado_sin_nombre_91-14);"/><path d="M180.39,242.04c-2.28-2.82-5.73-3.66-8.71-5.29,2.47,.71,4.83,1.66,6.99,3.06,.8,.52,1.56,1.13,1.72,2.23Z" style="fill:url(#Degradado_sin_nombre_91-15);"/><path d="M158.33,213.83c-2.8,1.63-5.61,3.26-8.41,4.88-.05-.08-.09-.16-.14-.24,2.79-1.65,5.58-3.3,8.37-4.96,.06,.11,.12,.21,.19,.32Z" style="fill:url(#Degradado_sin_nombre_91-16);"/><path d="M186.66,177.62c-.65-.98-1.25-1.97-1.94-2.89-.7-.93-1.51-1.79-2.25-2.65,2.02,1.02,4.37,4.09,4.19,5.54Z" style="fill:url(#Degradado_sin_nombre_91-17);"/><path d="M128.36,185.79c.96-2.26,1.92-4.53,2.89-6.79-.54,2.43-1.35,4.76-2.51,6.94-.12-.05-.25-.1-.37-.14Z" style="fill:url(#Degradado_sin_nombre_91-18);"/><path d="M191.51,198.64c-.62-2.17-.82-4.23-2.12-5.99,.77-.23,1.04,.27,1.18,.7,.36,1.14,.67,2.29,.92,3.46,.11,.51,.02,1.06,.02,1.84Z" style="fill:url(#Degradado_sin_nombre_91-19);"/><path d="M161.12,165.35c1.99-1.07,4-2.09,6.23-2.57-1.96,1.13-4.11,1.81-6.23,2.57Z" style="fill:url(#Degradado_sin_nombre_91-20);"/><path d="M176.87,174.13c-1.47,.87-3.13,1.13-4.74,1.55,1.49-.8,3.04-1.41,4.74-1.55Z" style="fill:url(#Degradado_sin_nombre_91-21);"/></g><path d="M115.41,232.55c.27-.35,.51-.74,.83-1.05,2.17-2.13,3.01-4.78,3.07-7.74,.05-2.39-.24-4.74-.62-7.1-.52-3.17-.61-6.37-.22-9.58,.81-6.61,2.7-12.97,4.47-19.36,1.64-5.9,3.12-11.84,4.23-17.86,.48-2.56,.71-5.17,1.02-7.77,.41-3.37,.72-6.75,1.21-10.1,.28-1.95,1.18-3.64,2.97-4.7,.58-.34,1.22-.68,1.86-.23,.39,.28,.83,.68,.95,1.11,.33,1.11,.62,2.27,.69,3.42,.11,1.75,.06,3.52,0,5.28-.07,2.13,.36,4.19,.75,6.26,.87,4.69,.17,9.16-1.89,13.44-.13,.28-.27,.56-.26,.99,.3-.3,.6-.6,.89-.91,4.45-4.83,9.35-9.12,14.95-12.58,3.67-2.27,7.53-4.14,11.73-5.21,1.21-.31,2.43-.55,3.69-.18,1.8,.53,2.66,1.99,2.11,3.78-.39,1.26-.88,2.5-.71,3.97,.53-.06,1.06-.19,1.58-.16,5.54,.26,10.93,1.2,15.91,3.82,.34,.18,.67,.4,.99,.62,1.92,1.32,2.81,2.38,2.8,5.34,1.06,.64,2.13,1.2,3.11,1.89,1.79,1.25,2.74,2.93,2.61,5.19-.04,.77,.06,1.56,.21,2.32,.41,2.04,.49,4.04-.7,5.89,1.2,1.44,1.83,3.04,1.93,4.85,.09,1.81-.02,3.58-.69,5.29-1.13,2.91-2.76,5.51-4.82,7.85-2.36,2.68-4.96,5.1-7.71,7.37-.75,.62-1.45,1.3-2.15,1.99-1.71,1.69-3.69,3.02-5.74,4.25-1.5,.91-3.06,1.73-4.59,2.6-.33,.19-.66,.39-.91,.8,.34-.12,.7-.2,1.03-.35,1.94-.92,3.87-1.86,5.81-2.79,1.87-.89,3.7-1.87,5.62-2.64,2.92-1.18,5.39-2.95,7.56-5.22,1.18-1.24,2.51-2.35,3.83-3.43,.76-.62,1.7-.96,2.73-.9,1.15,.06,1.61,.54,1.65,1.67,.04,1.15-.33,2.19-.96,3.09-.84,1.22-1.74,2.42-2.76,3.48-3.85,3.98-8.46,6.92-13.29,9.54-3.27,1.78-6.67,3.26-10.21,4.41-.39,.13-.78,.29-1.09,.41,1.77,.7,3.57,1.34,5.3,2.13,2.59,1.18,4.59,3.05,6.16,5.44,1.48,2.25,3.11,4.4,4.64,6.62,.46,.67,.91,1.38,1.19,2.13,.54,1.5-.21,2.72-1.73,3.12-1.07,.29-2.1,.07-3.13-.14-2.15-.43-4.03-1.46-5.79-2.72-5.73-4.1-12-7.19-18.59-9.59-6.79-2.48-13.75-4.39-20.77-6.09-2.7-.65-5.32-1.5-7.91-2.51-3.63-1.42-7.32-1.48-10.93,.21-.54,.25-1.11,.46-1.66,.69-.08-.11-.17-.23-.25-.34Zm4.91-14.19c-.21,1.69,.61,3.93,1.58,6.12,.9,2.03,2.43,3.32,4.64,3.74,2.3,.43,4.59,.3,6.87-.15,3.04-.59,5.94-1.64,8.84-2.69,9.69-3.51,18.77-8.17,27.03-14.36,2.51-1.88,4.94-3.89,6.82-6.41,2.9-3.88,4.21-8.31,4.21-13.15,0-2.15,.14-4.29,.2-6.44,.03-1.06,.14-2.13-.02-3.16-1.03-6.6-6.55-11.83-14.48-10.92-3.12,.36-6.13,1.19-9.06,2.24-14.96,5.38-25.84,15.38-32.97,29.5-2.35,4.66-3.47,9.68-3.64,15.69Zm59.81-20.33c-.06,.19-.13,.37-.19,.55-1.12,3.44-2.82,6.53-5.53,8.97-1.48,1.33-2.95,2.69-4.53,3.9-7.57,5.78-15.92,10.18-24.78,13.62-4.4,1.71-8.83,3.35-13.53,4.07-.77,.12-1.5,.43-2,1.12-.16,.9,.46,1.27,1.11,1.56,.42,.19,.9,.28,1.36,.34,2.2,.27,4.41,.49,6.61,.77,3.18,.41,6.33,.04,9.46-.39,4.1-.56,8.08-1.68,11.94-3.2,5.95-2.34,11.58-5.28,16.87-8.87,1.46-.99,2.76-2.17,3.86-3.56,1.52-1.93,3.1-3.82,4.66-5.73,.72-.88,1.51-1.7,2.12-2.65,.56-.87,1.06-1.84,1.34-2.84,.55-2,.65-4.08,.55-6.16-.06-1.16-.6-2.03-1.74-2.39-.74-.23-1.51-.42-2.28-.45-1.88-.08-3.6,.53-5.29,1.33Zm-60.57,18.91c.09-.46,.14-.64,.15-.81,.15-2.66,.61-5.27,1.33-7.83,1.46-5.18,3.98-9.84,7.11-14.17,7.84-10.87,18.03-18.53,30.93-22.43,2.6-.79,4.7-2.27,6.45-4.27,.44-.5,.69-1.21,.88-1.87,.31-1.08,.37-2.25,.78-3.28,.45-1.14-.33-2.5-1.47-2.9-1.22-.43-2.4-.16-3.57,.15-4.12,1.07-7.91,2.92-11.51,5.14-6.44,3.99-11.95,9.06-16.86,14.8-4.49,5.25-8.46,10.85-11.38,17.14-2.88,6.2-4.04,12.68-3.18,19.49,.03,.2,.15,.39,.33,.85Zm25.93,19.03l-.03,.14c.79,.18,1.59,.35,2.38,.53,3.41,.75,6.91,.57,10.36,.93,2.01,.21,4.06,.29,6.02,.75,4.99,1.17,9.38,3.39,12.46,7.7,.64,.89,1.29,1.77,1.95,2.64,.59,.78,1.19,1.55,1.81,2.3,.64,.77,1.47,1.31,2.44,1.54,.94,.23,1.8-.03,2.45-.75,.62-.69,.38-1.47,.01-2.19-.25-.48-.58-.93-.89-1.37-1.57-2.23-3.17-4.45-4.72-6.7-.98-1.43-2.08-2.74-3.5-3.75-2.09-1.5-4.42-2.47-6.87-3.19-1.09-.32-2.23-.44-3.36-.17-2.96,.69-5.92,1.39-8.97,1.57-2.18,.13-4.36,.23-6.54,.24-1.67,.01-3.34-.13-5.01-.2Zm38.7-15.71c-.39,0-.52-.04-.6,0-2.1,.95-4.22,1.86-6.29,2.87-3.37,1.64-6.69,3.38-10.26,4.58-2.81,.94-5.6,1.95-8.41,2.89-1.4,.47-2.82,.91-4.25,1.29-3.36,.9-6.75,1.61-10.25,1.65-1.91,.02-3.82,.02-5.73,0-1.1-.02-2.2-.11-3.3-.16,4.03,1.22,8.16,1.75,12.32,2.04,2.13,.15,4.28,.2,6.43,.07,2.24-.13,4.43-.43,6.54-1.15,7.2-2.45,13.74-6.17,19.83-10.69,1.33-.99,2.53-2.17,3.97-3.4Zm-59.09-38.03c.05,.03,.11,.07,.16,.1,.12-.28,.23-.57,.36-.85,1.52-3.12,2.84-6.37,4.62-9.34,3.86-6.45,4.99-13.47,4.92-20.8,0-.99-.33-2-.65-2.95-.29-.87-.92-1.1-1.65-.58-.71,.51-1.42,1.14-1.88,1.87-.48,.77-.8,1.71-.96,2.61-.28,1.57-.37,3.17-.56,4.76-.28,2.32-.54,4.64-.88,6.95-.48,3.24-.95,6.47-1.57,9.69-.55,2.86-1.27,5.69-1.92,8.54Zm59.46,13.68c.96-1.27,2.06-2.37,3.59-3.05,.93-.41,1.74-1.09,2.71-1.71-.44-.45-.71-.78-1.03-1.05-1.21-1.04-1.96-2.36-2.16-3.91-.14-1.11-.08-2.25,0-3.37,.08-1.04,.35-2.07,.45-3.12,.08-.81,0-1.62-.68-2.18-2.37,1.16-4.74,1.26-7.3,.34,.14,.46,.23,.74,.3,1.03,.24,.9,.67,1.81,.67,2.71-.03,4.21-.18,8.42-.29,12.63,0,.12-.06,.23-.07,.34-.1,.79-.19,1.59-.28,2.42,1.44-.38,2.75-.73,4.09-1.08Zm-21.17-25.42c1.54-.1,3.13-.29,4.72-.3,4.57-.04,8.13,1.95,10.74,5.64,.63,.89,1.4,1.39,2.39,1.75,1.68,.6,3.32,.35,4.94-.16,1.21-.38,1.77-1.43,1.57-2.68-.18-1.11-.61-2.12-1.54-2.81-.75-.56-1.49-1.18-2.33-1.55-1.89-.82-3.81-1.62-5.79-2.19-3.27-.95-6.63-1.45-10.05-1.33-.48,.02-1.1,.08-1.42,.38-1.15,1.04-2.19,2.19-3.23,3.25Zm-.46,63.65c.31,.08,.38,.12,.45,.11,.15-.01,.31-.04,.46-.08,8.54-1.93,16.29-5.59,23.42-10.62,2.5-1.76,4.81-3.75,6.83-6.05,.93-1.06,1.73-2.21,2.2-3.57,.22-.64,.32-1.28,.05-1.95-.83-.59-1.64-.35-2.43,.04-1.57,.78-2.76,2.03-3.99,3.23-2.88,2.81-5.66,5.75-8.73,8.34-4.41,3.72-9.47,6.48-14.67,8.95-1.12,.53-2.27,1.01-3.58,1.6Zm-40.94-38.99c.08,.02,.15,.05,.23,.07,.11-.2,.23-.4,.33-.61,2.03-4.03,4.45-7.82,7.24-11.35,1.61-2.04,2.94-4.23,4.11-6.53,2.7-5.32,3.07-10.83,1.33-16.71-.6,4.55-2.19,8.55-4.4,12.32-3.47,5.94-5.9,12.3-7.84,18.87-.38,1.29-.67,2.62-1,3.93Zm29.21,42.68c.54,.21,.84,.35,1.15,.45,8.62,2.73,16.75,6.44,24.14,11.7,.98,.69,2.11,1.17,3.18,1.72,.2,.1,.46,.09,.74,.13-1.53-1.98-3.01-3.84-4.44-5.74-2.94-3.92-7.03-5.99-11.63-7.16-4.07-1.04-8.28-.89-12.44-1.17-.15-.01-.3,.03-.72,.08Zm34.3-41.96c.79,.18,1.44,.29,2.07,.49,1.73,.54,2.53,1.56,2.51,3.36-.02,1.56-.09,3.12-.27,4.67-.23,1.97-.92,3.78-2.26,5.31-1.29,1.47-2.55,2.96-3.82,4.45-.21,.24-.38,.52-.56,.77,.25,.01,.39-.06,.49-.16,2.15-2.16,4.42-4.21,6.41-6.51,2.49-2.89,4.4-6.15,4.86-10.08,.22-1.86-.12-3.58-.99-5.19-.9-1.66-2.01-1.84-3.55-.74-.72,.52-1.5,.97-2.29,1.37-1.03,.52-1.88,1.22-2.62,2.26Zm7.57-4.95c.73-1.31,1.19-2.54,.88-4.05-.32-1.59-.37-3.24-.52-4.86-.08-.93-.42-1.73-1.03-2.43-.94-1.07-2.08-1.88-3.34-2.52-.29-.15-.61-.24-1.12-.43,.23,.45,.36,.67,.47,.91,.42,.9,.63,1.82,.38,2.83-.21,.87-.4,1.75-.51,2.63-.32,2.59,.03,4.99,2.21,6.78,.36,.3,.68,.64,1.07,1.01,.42,.03,.92,.08,1.51,.12Z" style="fill:url(#Degradado_sin_nombre_91-22);"/><path d="M-.34,261.53c-.3-.72,.25-.9,.62-1.1,2.47-1.34,4.9-2.77,7.45-3.96,4.77-2.23,9.85-3.51,15.04-4.3,4.01-.61,8.04-1.15,12.07-1.6,3.8-.42,7.62-.7,11.44-1.01,3.74-.31,7.48-.6,11.22-.87,2.88-.21,5.78-.31,8.66-.55,3.23-.27,6.47-.53,9.67-.99,4.01-.58,8.03-1.23,11.99-2.08,5.97-1.29,11.74-3.24,17.29-5.82,2.96-1.38,5.69-3.08,8.23-5.14,1.51-1.23,3.18-2.27,4.8-3.35,.39-.26,.89-.35,1.34-.52,.04,.09,.08,.17,.12,.26-.2,.14-.4,.28-.6,.41-1.31,.86-2.74,1.57-3.9,2.59-5.08,4.5-11.1,7.23-17.42,9.41-5.81,2.01-11.76,3.4-17.85,4.29-4.99,.73-9.98,1.33-15.02,1.62-4.68,.27-9.36,.59-14.04,.95-4.48,.34-8.96,.71-13.43,1.17-6.41,.66-12.81,1.35-19.11,2.75-6.28,1.39-12.14,3.8-17.57,7.25-.32,.2-.66,.39-1.01,.6Z" style="fill:url(#Degradado_sin_nombre_91-23);"/></g><g><g><path d="M48.26,165.86c-.76-.5-1.51-1.02-2.29-1.51-6.84-4.34-12.79-9.63-17.57-16.21-5.03-6.93-8.34-14.62-10.32-22.91-.9-3.76-1.55-7.57-1.82-11.41-.24-3.31-.19-6.64-.26-9.96,0-.22,.04-.45,.29-.67,0,.51,0,1.02,0,1.53,.03,1.99-.07,4,.11,5.98,.29,3.18,.64,6.36,1.18,9.51,1.02,5.98,2.72,11.77,5.28,17.29,4.4,9.49,10.84,17.32,19.27,23.51,1.8,1.32,3.59,2.64,5.38,3.96,.3,.22,.56,.5,.84,.75-.04,.05-.07,.09-.11,.14Z" style="fill:url(#Degradado_sin_nombre_91-24);"/><path d="M54.78,183.17c-.18-1.46-.34-2.93-.54-4.39-.33-2.45-1.3-4.52-3.37-6.05-2.8-2.06-5.93-3.47-9.05-4.92-3.01-1.39-6.09-2.68-9-4.26-7.96-4.31-14.35-10.39-19.43-17.85-2.7-3.97-4.25-8.4-4.96-13.16-.55-3.66-.44-7.33-.46-11-.03-4.07,.37-8.12,.95-12.14,.4-2.74,.92-5.46,1.43-8.18,.11-.57,.34-1.12,.58-1.65,.76-1.67,1.79-2.62,4.3-1.95,2.38,.64,4.3,2.08,5.8,3.99,.91,1.16,1.71,2.43,2.41,3.74,2.28,4.22,3.68,8.78,4.91,13.39,1.17,4.37,2.26,8.77,3.6,13.1,2.1,6.76,5.25,13.03,9.32,18.85,2.49,3.56,4.99,7.11,7.32,10.77,3.21,5.04,5.2,10.56,6.01,16.49,.19,1.35,.26,2.72,.36,4.08,.03,.38-.03,.76-.05,1.15-.04,0-.09,0-.13,0Zm-3.35-14.9c-.17-.45-.24-.75-.39-1-1.02-1.66-1.99-3.36-3.12-4.94-1.45-2.02-3.46-3.49-5.33-5.09-2.35-2.01-4.78-3.92-6.98-6.08-3.21-3.15-5.51-6.9-6.44-11.36-.79-3.75-1.18-7.56-1.41-11.38-.27-4.4-.64-8.79-1.43-13.14-.74-4.09-2.24-7.87-4.37-11.41-.98-1.62-2.19-3.05-3.75-4.15-1.12-.79-2.3-1.47-3.69-1.7-1.32-.22-2.21,.13-2.82,1.33-.4,.79-.76,1.65-.93,2.51-.52,2.68-1.01,5.36-1.38,8.07-.34,2.51-.62,5.04-.71,7.57-.13,3.51-.07,7.03-.05,10.55,.02,3.14,.51,6.23,1.45,9.22,1.56,4.96,3.98,9.4,7.98,12.88,3.19,2.78,6.71,5.02,10.57,6.65,4.03,1.69,8.15,3.16,12.24,4.71,2.82,1.07,5.57,2.3,7.92,4.23,.89,.73,1.67,1.58,2.65,2.52Zm-23.78-49.85l-.19,.08c0,.23-.02,.46,0,.69,.2,1.82,.5,3.64,.61,5.46,.27,4.25,.59,8.48,1.21,12.7,.6,4.02,2,7.68,4.51,10.9,1.84,2.36,4.03,4.35,6.3,6.27,2.41,2.05,4.76,4.17,7.14,6.26,.06,.06,.17,.07,.44,.16-.34-.55-.56-.96-.82-1.34-1.24-1.8-2.52-3.58-3.74-5.39-1.86-2.75-3.82-5.44-5.52-8.29-3.76-6.28-6.22-13.09-7.99-20.18-.61-2.45-1.29-4.88-1.95-7.32Zm-8.05,33.72l-.12,.14c.21,.25,.4,.52,.63,.76,4.32,4.48,9.17,8.27,14.79,10.98,3.41,1.65,6.88,3.15,10.31,4.76,2.3,1.08,4.53,2.29,6.49,3.94,.4,.34,.79,.68,1.18,1.03-.51-1.85-1.28-3.52-2.41-5.04-2.1-2.82-4.88-4.7-8.09-5.99-2.28-.92-4.6-1.73-6.91-2.56-5.49-1.99-10.82-4.29-15.52-7.84-.11-.08-.25-.12-.37-.17Z" style="fill:url(#Degradado_sin_nombre_91-25);"/></g><g><path d="M34.5,53.55c-.07,1.44-.14,2.88-.21,4.32-.02,.43-.05,.86-.06,1.29-.01,1.6,0,3.21-.03,4.81-.07,4.73,.25,9.43,.92,14.11,.57,3.98,1.41,7.89,2.51,11.75,1.11,3.88,2.77,7.53,4.65,11.08,.28,.53,.55,1.08,.67,1.69-.14-.21-.3-.42-.43-.64-3.22-5.54-5.6-11.4-6.82-17.7-.64-3.32-1.28-6.66-1.6-10.02-.39-4.11-.71-8.24-.35-12.39,.24-2.76,.3-5.53,.44-8.3,.1,0,.19,0,.29,0Z" style="fill:url(#Degradado_sin_nombre_91-26);"/><path d="M39.7,71.69c.12,1.1,.24,2.21,.35,3.31,.34,3.61,1.1,7.15,1.94,10.67,1.39,5.85,3.18,11.57,5.85,16.98,1.67,3.38,3.64,6.55,6.32,9.24,.15,.15,.26,.33,.32,.56-1.51-1.29-2.89-2.7-4.03-4.32-2.67-3.8-4.53-8-6.07-12.36-1.83-5.19-3.18-10.5-4-15.94-.34-2.27-.59-4.56-.85-6.84-.05-.43,0-.88,0-1.32,.06,0,.13,0,.19,0Z" style="fill:url(#Degradado_sin_nombre_91-27);"/><path d="M19.27,68.96c.52,2.43,.97,4.87,1.58,7.28,1.8,7.16,4.01,14.19,7.59,20.69,2.49,4.52,5.47,8.66,9.54,11.91,.11,.09,.2,.21,.25,.38-1.42-.94-2.7-2.04-3.86-3.29-3.73-4.03-6.6-8.63-8.72-13.67-3.07-7.28-5.25-14.82-6.4-22.65-.03-.22-.1-.44-.15-.66,.06,0,.11,0,.17,0Z" style="fill:url(#Degradado_sin_nombre_91-28);"/><path d="M61.28,97.69c.08-.89,.16-1.78,.25-2.66,.29-2.75,.59-5.5,.87-8.25,.11-1.05,.2-2.1,.26-3.15,.11-1.83,.17-3.67,.27-5.5,.21-3.78,.45-7.56,.66-11.34,.11-1.87,.17-3.74,.28-5.61,.09-1.6,.22-3.19,.42-4.78-.09,2.17-.17,4.35-.26,6.52-.15,3.59-.3,7.18-.45,10.77-.09,2.15-.13,4.29-.26,6.44-.17,2.72-.4,5.44-.65,8.16-.21,2.29-.49,4.57-.76,6.85-.11,.87-.29,1.73-.44,2.59-.06-.01-.13-.02-.19-.03Z" style="fill:url(#Degradado_sin_nombre_91-29);"/><path d="M65.08,115.3c.12-.13,.21-.28,.35-.38,3.03-2.06,5.26-4.88,7.31-7.85,2.7-3.9,4.82-8.13,6.87-12.39,1.18-2.46,2.33-4.94,3.49-7.41,.1-.2,.2-.4,.46-.54-.54,1.32-1.05,2.65-1.63,3.96-2.58,5.78-5.19,11.54-8.75,16.81-1.67,2.47-3.47,4.83-5.85,6.68-.66,.51-1.32,1.04-2.25,1.12Z" style="fill:url(#Degradado_sin_nombre_91-30);"/><path d="M56.18,99.07c-1.39-9.26-2.78-18.53-4.17-27.79,.1-.01,.2-.03,.29-.04,1.68,9.21,3.23,18.44,3.88,27.83Z" style="fill:url(#Degradado_sin_nombre_91-31);"/><path d="M60.75,75.67c-.05-.37-.13-.73-.14-1.1-.1-4.18-.18-8.36-.28-12.55-.1-4.06-.21-8.13-.3-12.19-.02-.94,0-1.87,.03-2.81,.27,1.16,1.18,26.69,.69,28.65Z" style="fill:url(#Degradado_sin_nombre_91-32);"/><path d="M86.13,62.42c-1.28,2.94-2.59,5.87-3.84,8.83-1.26,2.97-2.46,5.97-3.75,9.11,.16-2.39,6.17-16.91,7.59-17.94Z" style="fill:url(#Degradado_sin_nombre_91-33);"/><path d="M43.74,85.41c.98,3.41,1.82,6.93,3.01,10.34,1.19,3.4,2.72,6.68,4,9.8-2.99-4.18-7.12-15.94-7.02-20.14Z" style="fill:url(#Degradado_sin_nombre_91-34);"/><path d="M44.76,48.38c.08,5.92,.15,11.85,.23,17.96-.87-5.72-1.15-16.56-.48-17.98,.08,0,.16,.01,.24,.02Z" style="fill:url(#Degradado_sin_nombre_91-35);"/><path d="M74.03,40.55c.53,3.08,.37,6.2,.33,9.3-.04,3.1-.24,6.2-.42,9.28-.09-6.2-.18-12.41-.27-18.61,.12,0,.24,.02,.36,.03Z" style="fill:url(#Degradado_sin_nombre_91-36);"/><path d="M91.81,72.88c-2.73,6.37-5.46,12.75-8.2,19.12-.09-.04-.18-.08-.28-.12,2.8-6.35,5.11-12.92,8.2-19.15,.09,.05,.18,.1,.27,.15Z" style="fill:url(#Degradado_sin_nombre_91-37);"/><path d="M20.19,50.35c.1,.06,.26,.11,.26,.18,.43,5.23,.86,10.45,1.28,15.75-1.23-5.56-2.09-14.34-1.54-15.93Z" style="fill:url(#Degradado_sin_nombre_91-38);"/><path d="M93.66,64.64c1.79-4.37,3.57-8.74,5.37-13.11,.02-.06,.2-.05,.53-.12-1.69,4.63-3.55,9.03-5.89,13.23Z" style="fill:url(#Degradado_sin_nombre_91-39);"/><path d="M71.36,105.81c2.2-4.32,4.4-8.64,6.61-12.96-1.72,4.56-3.73,8.98-6.39,13.07-.07-.04-.15-.07-.22-.11Z" style="fill:url(#Degradado_sin_nombre_91-40);"/><path d="M65.69,39.32c.99,1.21,1,4.76,0,9.57v-9.57Z" style="fill:url(#Degradado_sin_nombre_91-41);"/><path d="M46.7,49.86c.34,1.72-.09,3.46-.05,5.18,.03,1.75-.16,3.5-.32,5.25v-10.42c.12,0,.25-.01,.37-.02Z" style="fill:url(#Degradado_sin_nombre_91-42);"/><path d="M21.97,52.14c.12,2.42,.23,4.85,.35,7.27-.65-2.29-.89-5.57-.64-7.27,.09,0,.19,0,.28,0Z" style="fill:url(#Degradado_sin_nombre_91-43);"/><path d="M82.76,64.76c-1.09,2.18-2.17,4.35-3.3,6.62,.49-2.33,2.27-6.05,3.3-6.62Z" style="fill:url(#Degradado_sin_nombre_91-44);"/><path d="M75.65,49.22c-.12-2.24-.24-4.48-.36-6.72,.1,0,.19-.02,.29-.03,.44,.65,.14,1.42,.2,2.13,.07,.77,.05,1.56,.06,2.34,0,.76,0,1.52,0,2.29-.06,0-.13,0-.19,0Z" style="fill:url(#Degradado_sin_nombre_91-45);"/></g><path d="M25.71,59.62c.3-1.89,.53-3.61,.85-5.32,.51-2.73,1.18-5.42,2.37-7.95,.55-1.18,1.22-2.28,2.26-3.1,1.18-.93,2.43-1.2,3.81-.46,1.6,.86,3.29,1.41,5.1,1.65,1.63,.21,2.94,1.03,3.83,2.44,.89,1.42,2.07,2.53,3.41,3.51,1.63,1.19,2.88,2.75,3.96,4.44,.2,.31,.42,.61,.82,.85,0-1.16-.05-2.33,0-3.49,.15-2.83,.78-5.57,1.87-8.18,1.5-3.56,5.38-5.65,9.16-4.87,1.61,.33,3.13,.31,4.71-.22,2.03-.69,3.94-.15,5.64,1.09,1.26,.91,2.17,2.13,2.95,3.46,1.48,2.53,2.28,5.3,2.82,8.15,1,5.22,.39,10.34-1,15.41-.09,.32-.19,.64-.3,1.02,.19-.05,.29-.05,.34-.1,2.33-2.35,5.05-4.18,7.7-6.13,1.31-.96,2.43-2.2,3.55-3.4,1.04-1.11,1.93-2.37,2.93-3.51,1.45-1.64,3.17-2.93,5.28-3.58,.88-.27,1.83-.4,2.75-.39,1.5,.01,2.47,.84,2.9,2.28,.48,1.59,.31,3.17-.09,4.74-.62,2.44-1.72,4.69-2.84,6.93-1.72,3.47-3.56,6.88-5.11,10.42-1.97,4.51-3.64,9.15-5.56,13.68-1.96,4.61-4.17,9.1-7.13,13.18-2.43,3.34-5.25,6.31-8.48,8.89-2.66,2.13-5.72,3.5-8.91,4.62-.95,.34-1.9,.74-2.77,1.25-1.77,1.06-2.77,2.71-3.2,4.71-.13,.63-.24,1.26-.54,1.91-.19-.57-.38-1.13-.56-1.7-1.02-3.22-3.11-5.04-6.51-5.81-9.55-2.14-17.33-7.15-23.15-15.1-3.51-4.81-6.08-10.1-8.16-15.65-2.4-6.41-4.37-12.94-5.57-19.69-.71-4.02-.94-8.07-.74-12.14,.08-1.64,.49-3.24,1.16-4.75,.14-.32,.31-.63,.52-.92,.82-1.16,1.82-1.29,2.88-.33,.51,.47,.91,1.06,1.33,1.63,.93,1.26,1.8,2.55,2.75,3.79,1.58,2.06,2.33,3.69,2.94,6.74Zm.39,6.1c0,4.59,.42,9.13,1.33,13.63,1.28,6.36,3.42,12.42,6.74,18.02,4.14,6.97,9.48,12.71,16.9,16.27,.97,.46,2.04,.77,3.1,.96,1.93,.35,3.05-.28,3.79-2.07,.28-.67,.38-1.42,.48-2.15,.09-.69,.07-1.4,.11-2.11,.2-3.94,.48-7.88,.59-11.83,.12-4.62-.37-9.21-.86-13.79-.51-4.74-1.13-9.45-2.16-14.11-1.05-4.77-2.73-9.28-5.37-13.42-1.06-1.66-2.28-3.19-3.88-4.35-1.34-.98-2.5-2.11-3.4-3.52-.83-1.29-2-2.05-3.54-2.24-1.8-.23-3.52-.73-5.1-1.63-1.29-.74-2.47-.49-3.41,.49-.77,.8-1.46,1.75-1.94,2.75-1.84,3.86-2.57,8.01-3,12.22-.24,2.29-.27,4.6-.39,6.9Zm76.99-10.53s0-.18,0-.38c-.08-2.56-1.48-3.72-3.98-3.23-2.43,.48-4.39,1.82-6.03,3.61-.95,1.03-1.83,2.14-2.7,3.25-1.39,1.77-3.01,3.28-4.86,4.55-1.07,.73-2.13,1.46-3.15,2.25-4.36,3.34-7.68,7.55-10.37,12.3-3.25,5.72-5.25,11.93-6.99,18.22-1.34,4.85-2.52,9.74-4.13,14.52-.22,.65-.33,1.38-.32,2.07,.02,1.38,.57,2.06,1.9,2.48,1.23,.39,2.46,.37,3.68-.06,3.36-1.18,6.39-2.9,9.07-5.26,4.43-3.89,7.99-8.46,10.72-13.68,2.03-3.88,3.83-7.87,5.38-11.97,2.49-6.59,5.22-13.06,8.65-19.22,.82-1.46,1.47-3.03,2.1-4.58,.6-1.48,1.07-3.02,1.04-4.87Zm-44.16,57.02c.11,.03,.22,.06,.33,.09,.14-.26,.32-.5,.41-.77,.94-2.77,2-5.51,2.78-8.32,1.37-5,2.57-10.05,4.24-14.97,2.18-6.41,5.02-12.47,9.37-17.73,.66-.8,1.13-1.67,1.43-2.66,1.52-4.96,2.12-10,1.38-15.15-.41-2.87-1.14-5.69-2.59-8.22-.71-1.24-1.56-2.46-2.58-3.45-1.71-1.65-3.79-2.3-6.14-1.39-1.36,.53-2.74,.54-4.14,.17-3.1-.82-7.75,.87-9.07,4.87-.81,2.46-1.44,4.94-1.69,7.52-.24,2.48-.14,4.81,1.01,7.16,2.91,5.94,3.86,12.42,4.69,18.89,.42,3.29,.76,6.59,1,9.9,.22,2.96,.41,5.94,.35,8.9-.09,4.49-.42,8.98-.65,13.47-.03,.57-.1,1.14-.14,1.7ZM17.21,47.39c-1.06,.41-1.38,1.41-1.73,2.35-.77,2.08-.94,4.27-.91,6.46,.04,3.76,.49,7.47,1.21,11.16,1.09,5.57,2.74,10.98,4.67,16.3,2.12,5.86,4.7,11.5,8.36,16.59,5.41,7.52,12.58,12.5,21.54,14.89,.79,.21,1.63,.27,2.56,.42-.12-.27-.14-.38-.19-.41-.27-.15-.56-.28-.84-.41-4.34-2.08-8.3-4.69-11.61-8.22-2.47-2.63-4.64-5.5-6.48-8.6-5.27-8.91-7.7-18.63-8.18-28.89-.12-2.65-.08-5.31-.27-7.96-.17-2.36-.82-4.63-2.16-6.61-1.36-2-2.82-3.94-4.25-5.89-.42-.57-.9-1.09-1.71-1.19Z" style="fill:url(#Degradado_sin_nombre_91-46);"/><path d="M50.92,272.54c.03-1.52,.05-3.05,.09-4.57,.05-1.99,.15-3.99,.19-5.98,.1-4.62,.06-9.24,.28-13.85,.24-4.84,.7-9.66,1.09-14.49,.32-4.09,1.17-8.14,.95-12.26-.13-2.41-.39-4.83-.81-7.21-.85-4.87-.9-9.69,.03-14.56,.67-3.52,1.22-7.08,1.67-10.64,.31-2.48,.41-4.99,.51-7.49,.24-6.13,1.35-12.09,3.17-17.94,.81-2.61,1.56-5.25,2.08-7.92,.39-1.98,.48-4.03,.49-6.06,.02-4.08-.71-8.08-1.39-12.09-.84-4.92-1.01-9.87-.63-14.84,.11-1.4,.19-2.81,.31-4.21,.03-.34,.18-.68,.27-1.02,.1,.02,.19,.04,.29,.06-.05,.47-.13,.94-.15,1.42-.1,2.46-.17,4.92-.26,7.39-.18,4.79,.46,9.51,1.3,14.21,.75,4.21,1.2,8.46,.77,12.72-.25,2.43-.89,4.83-1.49,7.21-.86,3.37-1.92,6.68-2.75,10.05-.82,3.34-1.16,6.77-1.33,10.21-.29,5.94-.84,11.84-1.95,17.69-.48,2.53-.89,5.09-.99,7.66-.09,2.21,.22,4.44,.5,6.65,.46,3.52,1.21,7.02,1.01,10.6-.13,2.22-.36,4.44-.57,6.65-.26,2.68-.59,5.36-.82,8.04-.27,3.23-.52,6.47-.66,9.71-.16,3.67-.19,7.35-.27,11.03-.09,4.11-.18,8.21-.28,12.32-.01,.51-.11,1.01-.16,1.51h-.47Z" style="fill:url(#Degradado_sin_nombre_91-47);"/></g><g><path d="M182.67,115.4c-.93-.06-1.86-.21-2.79-.17-3.98,.19-7.95,.43-11.92,.66-3.74,.22-7.44,.76-11.12,1.43-2.96,.54-5.89,1.26-8.61,2.56-5.89,2.81-12.02,5.05-18.05,7.5-6.15,2.49-11.95,5.63-17.18,9.72-1.62,1.27-3.08,2.76-4.55,4.22-1.51,1.5-2.94,3.09-4.55,4.53,.24-.38,.45-.8,.74-1.13,2.23-2.57,4.31-5.27,7-7.4,4.09-3.23,8.48-5.99,13.2-8.23,4.3-2.05,8.75-3.75,13.19-5.46,3.09-1.19,6.1-2.62,9.12-3.98,3.66-1.64,7.49-2.65,11.45-3.19,3.05-.41,6.1-.8,9.16-1.12,1.67-.18,3.35-.2,5.03-.29,.94-.05,1.87-.15,2.81-.13,2.19,.04,4.37,.14,6.56,.22,.18,0,.36,.11,.54,.16,0,.03-.01,.07-.02,.1Z" style="fill:#4c3f3e;"/><path d="M98.09,153.6c.44-.8,.81-1.66,1.34-2.4,2.3-3.21,4.73-6.33,6.97-9.58,2.04-2.96,3.83-6.09,5.86-9.06,2.85-4.18,6.01-8.11,10-11.29,6.07-4.82,12.88-8.12,20.48-9.65,2.21-.45,4.49-.59,6.74-.77,4.36-.35,8.73-.65,13.09-.91,3.63-.22,7.26-.44,10.89-.5,3.3-.05,6.53,.58,9.65,1.65,1.16,.4,2.3,1.01,3.3,1.73,1.62,1.16,1.99,2.76,1.14,4.56-.38,.8-.89,1.61-1.54,2.18-4.5,3.9-8.52,8.29-12.73,12.48-3.56,3.55-7.83,5.75-12.76,6.76-3.98,.81-7.91,.66-11.85-.24-4.45-1.02-8.89-2.06-13.36-3.02-5.75-1.23-11.48-1.18-17.14,.56-4.37,1.34-8.01,3.85-11.24,7-3.25,3.18-6.08,6.72-8.49,10.58-.02,.03-.07,.03-.1,.04-.08-.04-.17-.09-.25-.13Zm8.93-11.69c.06,.05,.12,.1,.18,.15,.4-.34,.8-.68,1.19-1.02,2.75-2.39,5.8-4.24,9.28-5.37,5.72-1.85,11.53-1.94,17.36-.78,3.83,.76,7.62,1.7,11.42,2.58,3.89,.9,7.78,1.66,11.83,1.09,4.5-.64,8.69-2,12.23-4.93,1.65-1.37,3.26-2.82,4.72-4.39,3-3.2,6.08-6.31,9.4-9.18,.7-.61,1.37-1.3,1.91-2.05,1.42-1.98,1.1-3.85-.97-5.09-1.25-.75-2.66-1.34-4.07-1.73-4.93-1.34-9.85-1.47-14.72,.44-2.76,1.08-5.58,2.01-8.4,2.94-2.6,.86-5.29,1.41-8.02,1.56-3.2,.17-6.41,.14-9.61,.28-2.77,.11-5.53,.3-8.26,.92-4.75,1.1-8.97,3.17-12.43,6.67-.99,1-1.97,2.02-2.88,3.09-3.82,4.44-6.91,9.38-9.97,14.34-.09,.15-.13,.32-.2,.49Zm61.21-31.8c-1.24,.09-2.48,.18-3.72,.28-2.37,.19-4.74,.43-7.11,.59-3,.2-6,.31-9,.52-1.63,.12-3.26,.33-4.88,.58-4.88,.75-9.37,2.64-13.71,4.91-.25,.13-.47,.31-.71,.46,.25,.09,.43,.05,.6,0,2.6-.7,5.22-1.33,7.92-1.44,3.43-.14,6.87-.16,10.31-.27,1.29-.04,2.58-.11,3.85-.28,5.78-.76,11.07-3.12,16.44-5.36Z" style="fill:#4c3f3e;"/><g><path d="M189.3,60.36c-2.92,2.88-5.8,5.79-8.76,8.63-5.46,5.23-11.34,9.94-17.77,13.94-3.93,2.44-8.09,4.38-12.44,5.93-.37,.13-.75,.22-1.12,.32-.09,.02-.19,0-.55,0,5.08-1.89,9.72-4.08,14.09-6.84,4.87-3.08,9.45-6.54,13.74-10.38,4.11-3.68,8.08-7.5,12.11-11.26,.18-.17,.36-.35,.55-.52,.06,.06,.11,.12,.17,.17Z" style="fill:#4c3f3e;"/><path d="M160.75,96.85c.91-.1,1.83-.22,2.74-.31,5.76-.56,11.19-2.29,16.49-4.52,5.04-2.13,9.84-4.72,14.6-7.41,.46-.26,.92-.51,1.49-.59-.41,.26-.81,.54-1.23,.79-6.27,3.75-12.7,7.17-19.61,9.6-3.21,1.13-6.49,1.93-9.84,2.44-1.52,.23-3.08,.24-4.62,.36,0-.12,0-.23-.01-.35Z" style="fill:#4c3f3e;"/><path d="M139.62,31.67c-1.62,3.74-3.29,7.35-4.76,11.05-1.62,4.06-2.49,8.34-3.24,12.64-.73,4.22-.86,8.46-.64,12.72,.08,1.7,.52,3.38,.8,5.06,.04,.22,.06,.45-.13,.72-.29-1.39-.63-2.78-.86-4.18-.53-3.18-.47-6.4-.2-9.58,.83-9.97,3.77-19.31,8.76-27.99,.07-.13,.16-.25,.28-.43Z" style="fill:#4c3f3e;"/><path d="M165.04,77.3c4.81-3.69,9.47-7.55,13.95-11.62,4.47-4.07,8.3-8.73,12.14-13.37-6.88,10.23-16.04,18.08-26.09,24.99Z" style="fill:#4c3f3e;"/><path d="M195.14,69.67c-1.85,1.84-3.67,3.72-5.56,5.52-3.74,3.56-7.52,7.09-11.82,9.98-3.42,2.29-7,4.27-10.94,5.54-.07,.02-.15,.01-.5,.04,.43-.21,.63-.33,.85-.41,5.57-2.22,10.63-5.31,15.16-9.21,4.09-3.52,7.98-7.27,11.96-10.91,.24-.22,.48-.46,.71-.69,.05,.05,.09,.1,.14,.14Z" style="fill:#4c3f3e;"/><path d="M127,31.3c-1.56,3.43-2.92,6.94-3.91,10.59-.76,2.78-1.26,5.61-1.58,8.48-.52,4.59,.26,9.01,1.3,13.43,.06,.26,.1,.53,.17,.8,.06,.22,.14,.44,.18,.66-3.9-10.18-2.41-22.68,3.85-33.96Z" style="fill:#4c3f3e;"/><path d="M138.2,86.01c-.85-1.71-1.1-3.33-1.32-4.94-.46-3.38-.31-6.77-.06-10.17,.33-4.49,1.21-8.86,2.41-13.18,.17-.6,.38-1.19,.57-1.78,.02-.07,.09-.12,.24-.31-.43,1.8-.9,3.44-1.21,5.12-.5,2.75-1.01,5.51-1.31,8.3-.29,2.75-.38,5.53-.46,8.29-.07,2.7,.52,5.34,1.07,7.97,.03,.15,.03,.3,.06,.7Z" style="fill:#4c3f3e;"/><path d="M169.93,18.78c-4.33,8.24-7.17,17.04-9.68,25.96,.48-5.92,6.72-22.62,9.68-25.96Z" style="fill:#4c3f3e;"/><path d="M153.77,76.01c6.82-6.84,11.6-15.2,17-23.11-.23,.43-.45,.87-.71,1.28-3.44,5.68-6.88,11.36-11.07,16.54-1.54,1.91-3.35,3.6-5.03,5.39-.02,.03-.07,.05-.1,.04-.02,0-.04-.06-.09-.14Z" style="fill:#4c3f3e;"/><path d="M143.56,70.04c2.71-8.63,5.42-17.25,8.13-25.88-1.92,8.89-4.98,17.41-8.13,25.88Z" style="fill:#4c3f3e;"/><path d="M128.4,53.49c-.86,4.39-1.28,8.79-.75,13.25,.52,4.44,1.94,8.55,4.29,12.38-.15-.19-.32-.36-.46-.56-1.94-2.88-3.36-5.99-3.89-9.44-.48-3.12-.85-6.26-.38-9.43,.31-2.07,.59-4.15,.88-6.23,.1,.01,.2,.02,.31,.03Z" style="fill:#4c3f3e;"/><path d="M156.82,60.49c3.96-5.4,6.41-11.61,9.38-17.54l.22,.09c-.65,1.52-1.28,3.05-1.96,4.56-.69,1.53-1.4,3.05-2.15,4.54-.77,1.53-1.54,3.07-2.4,4.55-1.68,2.9-2.16,3.45-3.09,3.8Z" style="fill:#4c3f3e;"/><path d="M206.76,68.66c-.26,1.71-6.87,9.21-10.37,11.89,3.47-3.98,6.87-7.87,10.37-11.89Z" style="fill:#4c3f3e;"/><path d="M124.3,35.07c2.19-5.69,4.95-11.06,9.26-15.51-3.73,4.78-6.58,10.09-9.26,15.51Z" style="fill:#4c3f3e;"/><path d="M152.57,22.73c-.1,.41-.12,.71-.24,.95-1.87,3.85-3.75,7.7-5.48,11.25,.02-1.87,4.2-11.28,5.71-12.2Z" style="fill:#4c3f3e;"/><path d="M206.18,50.35c-.1,.34-.13,.72-.31,1.01-1.87,3.12-3.99,6.07-6.33,8.84-.07-.05-.14-.1-.22-.15,2.18-3.26,4.37-6.52,6.55-9.77,.1,.02,.21,.05,.31,.07Z" style="fill:#4c3f3e;"/><path d="M178.86,41.85c.1-.31,.15-.65,.3-.93,2.1-3.7,4.53-7.18,7.1-10.57,.03-.04,.13-.03,.28-.07-2.53,3.91-5.02,7.77-7.51,11.63-.06-.02-.11-.04-.17-.06Z" style="fill:#4c3f3e;"/><path d="M176.06,38.85c1.39-3.85,2.78-7.71,4.17-11.56,.06,0,.13,0,.19,0,.04,.19,.12,.39,.09,.57-.05,.34-.12,.69-.25,1.02-1.26,3.22-2.53,6.44-3.81,9.65-.06,.14-.16,.26-.24,.39-.05-.03-.1-.05-.16-.08Z" style="fill:#4c3f3e;"/><path d="M191.98,37.06c1.76-2.96,5.01-7.21,5.67-7.51-.08,1.06-3.28,5.36-5.67,7.51Z" style="fill:#4c3f3e;"/><path d="M163.46,12.16c-1.63,3.2-3.25,6.39-4.88,9.59,1.03-3.5,2.56-6.75,4.56-9.77,.11,.06,.21,.12,.32,.19Z" style="fill:#4c3f3e;"/><path d="M168.69,50.97c-.01,1.32-3.13,7.06-4.93,9.28,1.57-3.13,3.23-6.22,4.93-9.28Z" style="fill:#4c3f3e;"/><path d="M147.64,63.99c1.13-3.41,2.26-6.82,3.43-10.36,.07,1.36-2.24,8.48-3.43,10.36Z" style="fill:#4c3f3e;"/><path d="M153.93,23.74c.1,.83-1.72,4.2-3.17,6.05,.71-2.19,1.81-4.19,3.17-6.05Z" style="fill:#4c3f3e;"/><path d="M164.59,49.44c-1.36,3.81-3,6.8-4.29,7.68,.75-1.25,1.52-2.49,2.23-3.76,.72-1.29,1.37-2.61,2.05-3.92Z" style="fill:#4c3f3e;"/><path d="M194.71,35.52c1.36-1.68,2.71-3.36,4.07-5.04,.06,.04,.13,.07,.19,.11,0,.15,.08,.35,.01,.43-1.32,1.58-2.67,3.14-4,4.71-.09-.07-.18-.14-.27-.2Z" style="fill:#4c3f3e;"/><path d="M194.33,43.72c1.09-1.33,2.19-2.67,3.28-4,.08,.06,.16,.13,.24,.19-.97,1.43-1.96,2.85-3.19,4.08l-.34-.27Z" style="fill:#4c3f3e;"/><path d="M204.12,56.31c.81-1.49,1.61-2.98,2.67-4.28-.01,1.05-1.37,3.2-2.67,4.28Z" style="fill:#4c3f3e;"/></g><path d="M152.37,18.09c.16-.03,.22-.02,.23-.04,1.82-2.14,4.22-3.3,6.86-4.05,1.27-.36,2.37-1,3.3-1.94,.19-.19,.42-.35,.62-.54,2.48-2.47,5.47-2.99,8.77-2.28,4.68,1,7.97,4.73,8.31,9.53,.11,1.55,.01,3.12,0,4.68,0,.46,0,.93,0,1.59,.44-.22,.73-.36,1.01-.52,1.55-.85,3.15-1.54,4.93-1.76,1.78-.22,3.42,.14,4.98,.96,1.89,.99,3.55,2.29,4.92,3.93,.86,1.02,1.83,1.9,2.92,2.69,2.04,1.46,3.13,3.55,3.54,6,.56,3.39-.3,6.51-1.92,9.46-.19,.34-.39,.67-.58,1.02-.03,.06-.01,.15-.03,.35,.53,.14,1.08,.33,1.64,.41,3.12,.46,4.82,2.32,5.56,5.81,.59,2.77,.04,5.44-.82,8.06-.93,2.84-2.31,5.47-3.97,7.95-.15,.22-.29,.45-.59,.9,.45-.18,.69-.24,.89-.36,1.65-1.05,3.55-1.42,5.37-1.98,1.44-.44,2.29,.14,2.47,1.64,.1,.82-.02,1.71-.23,2.53-.5,1.96-1.57,3.66-2.76,5.26-3.3,4.45-7.35,8.09-11.96,11.14-6.62,4.37-13.86,7.16-21.7,8.34-3.95,.6-7.93,.71-11.92,.34-3.72-.35-7.39-.91-10.78-2.51-2.15-1.01-4.36-1.92-6.48-2.99-3.1-1.57-6.01-1.31-8.85,.6-.19,.13-.39,.26-.6,.36-.09,.04-.22,0-.49-.02,.04-.31,.03-.6,.12-.86,1.23-3.51,.33-6.54-2.12-9.18-6.07-6.53-9.87-14.2-11.58-22.92-.93-4.75-1.07-9.54-.58-14.35,.76-7.44,2.95-14.44,6.63-20.96,2.59-4.58,6.02-8.47,10.07-11.81,2.01-1.66,4.23-2.97,6.84-3.43,.8-.14,1.63-.2,2.44-.14,1.54,.11,2.69,1.33,2.81,3.11,.07,1.1,.4,1.89,1.28,2.6,1.03,.83,1.26,2.11,1.41,3.42Zm6.33,76.08c3.33-.09,6.62-.5,9.85-1.3,8.2-2.03,15.38-6.04,21.89-11.33,3.19-2.59,6.03-5.55,8.74-8.66,2.97-3.41,5.33-7.14,6.83-11.39,.95-2.68,1.43-5.43,.82-8.29-.66-3.07-2.25-4.62-5.32-5.13-.27-.05-.53-.12-.8-.18-1.59-.33-2.77-1.4-4.07-2.24-.98-.63-1.95-1.36-3.03-1.74-2.39-.83-4.91-.96-7.41-.68-3.23,.35-6.19,1.54-9.04,3.08-4.04,2.18-7.8,4.77-11.56,7.38-3.31,2.31-6.48,4.78-9.31,7.68-1.34,1.37-2.63,2.77-3.33,4.62-.25,.65-.66,1.24-1.02,1.84-2.3,3.88-5.1,7.4-7.92,10.91-1.33,1.65-2.59,3.33-3.39,5.31-.6,1.49-.54,2.86,.56,4.16,.88,1.04,1.89,1.85,3.07,2.5,4.5,2.47,9.38,3.32,14.45,3.47Zm-34.38-37.99c-.1,3.23,.37,6.39,.98,9.54,1.04,5.38,2.95,10.37,6.57,14.57,1.12,1.29,2.34,2.54,3.68,3.58,1.62,1.25,3.36,.83,4.59-.8,2.14-2.84,4.28-5.68,6.45-8.5,3.04-3.95,5.73-8.09,7.69-12.7,1.73-4.08,2.91-8.32,3.96-12.61,.85-3.47,1.38-6.98,1.16-10.56-.14-2.26-.49-4.5-.65-6.76-.3-4.05-2.36-6.91-5.94-8.62-1.88-.9-3.55-1.92-4.81-3.61-1.16-1.55-2.73-1.8-4.51-1.26-2.06,.63-3.81,1.78-5.43,3.16-2.01,1.71-3.69,3.72-5.15,5.91-5.79,8.67-8.43,18.29-8.58,28.64Zm26.47-34.49c.69,.35,1.21,.62,1.73,.86,4.39,2.03,6.75,5.39,6.85,10.28,.02,1.05,.08,2.12,.28,3.15,.53,2.76,.51,5.53,.11,8.28-.83,5.74-2.39,11.29-4.46,16.7-.1,.26-.17,.54-.34,1.06,.35-.33,.49-.46,.63-.59,1.93-1.77,3.75-3.67,5.8-5.29,4.63-3.67,9.53-6.96,14.66-9.9,.61-.35,1.04-.78,1.32-1.42,.62-1.43,1.36-2.82,1.91-4.28,1.49-4,2.43-8.05,1.08-12.34-.6-1.91-.6-3.92-.35-5.92,.25-1.92,.06-3.84-.49-5.68-1.07-3.57-4.04-6.57-8.77-7.02-2.11-.2-4.24-.07-5.85,1.48-2.26,2.18-4.93,3.45-7.85,4.47-2.92,1.01-4.61,3.46-6.25,6.15Zm48.6,25.08c.21-.11,.31-.13,.35-.19,1.85-2.82,2.87-5.91,2.61-9.3-.21-2.68-1.35-4.93-3.54-6.61-1.01-.78-1.98-1.65-2.83-2.59-1.38-1.53-2.91-2.83-4.72-3.8-1.7-.91-3.48-1.33-5.42-.86-1.96,.47-3.75,1.26-5.38,2.56,.23,1.07,.41,2.11,.69,3.12,.57,2.04,.49,4.07,.16,6.14-.49,3.04-1.55,5.87-2.95,8.59-.21,.4-.4,.82-.7,1.43,.47-.17,.71-.24,.94-.35,2.53-1.18,5.13-2.08,7.94-2.27,3.82-.26,7.49,.03,10.62,2.62,.71,.59,1.53,1.04,2.23,1.51Zm-47.5,47.32c.25,.23,.32,.33,.42,.38,.32,.14,.65,.28,.98,.39,2.68,.88,5.42,1.43,8.23,1.7,4.38,.42,8.75,.36,13.09-.35,9.09-1.49,17.27-5.1,24.52-10.79,3.43-2.7,6.47-5.79,8.93-9.42,1.01-1.5,1.84-3.09,2.21-4.88,.19-.91,.17-1.79-.59-2.67-.45,.03-.99,0-1.51,.12-.8,.18-1.58,.43-2.36,.68-2.28,.73-4.24,1.96-5.87,3.73-1.56,1.7-3.07,3.45-4.73,5.05-9.04,8.7-19.41,14.8-32.1,16.37-2.88,.36-5.76,.39-8.65,0-.79-.11-1.58-.19-2.57-.3Zm-7.87-84.29c-.36,.07-.62,.11-.86,.18-1.7,.54-3.2,1.44-4.61,2.51-2.37,1.81-4.48,3.91-6.38,6.2-6.52,7.83-9.64,17.04-10.82,27-.43,3.62-.31,7.24,.17,10.87,.63,4.8,1.92,9.39,3.91,13.79,.13,.29,.32,.57,.47,.85,.08-.48,0-.88-.12-1.28-1.17-4.11-1.93-8.28-2.03-12.56-.11-4.79,.47-9.5,1.65-14.14,1.74-6.86,4.5-13.25,9.11-18.69,2.2-2.6,3.99-5.37,5.24-8.53,.88-2.24,2.14-4.26,4.05-5.8,.07-.06,.1-.18,.21-.39Zm-5.74,10.75c.44-.26,.71-.42,.99-.58,1.06-.58,2.08-1.26,3.19-1.71,2.95-1.2,4.43-.79,6.49,1.65,.23,.27,.44,.55,.7,.79,.21,.2,.45,.36,.7,.54,.45-.67,.89-1.23,1.22-1.85,.19-.36,.35-.82,.31-1.21-.15-1.43-.54-2.77-1.83-3.64-.5-.34-.66-.8-.74-1.38-.1-.77-.23-1.56-.54-2.26-.58-1.32-2.04-1.83-3.35-1.2-.56,.26-1.07,.65-1.54,1.05-1.36,1.17-2.32,2.64-3.08,4.24-.83,1.76-1.61,3.55-2.52,5.56Z" style="fill:#4c3f3e;"/><path d="M39.42,272.54c.17-3.83,.26-7.66,.55-11.48,.39-5.14,.81-10.28,1.44-15.4,.69-5.54,2.49-10.78,4.71-15.9,5.23-12.08,13.07-22.18,23-30.73,2.31-1.99,4.58-4.03,6.85-6.07,6.67-6.01,11.71-13.18,15.38-21.36,3.19-7.11,5.65-14.48,7.95-21.91,1.73-5.6,3.42-11.2,5.72-16.61,3.75-8.79,8.8-16.74,15.08-23.92,4.89-5.6,9.87-11.11,14.8-16.67,.93-1.05,1.79-2.17,2.67-3.27,.3-.37,.59-.76,.89-1.14,.09,.06,.18,.11,.27,.17-.14,.29-.23,.62-.42,.87-1.04,1.36-2.05,2.76-3.19,4.05-5.13,5.85-10.34,11.63-15.44,17.51-8.36,9.63-14.06,20.73-17.82,32.86-2.23,7.2-4.37,14.43-7.07,21.47-2.33,6.07-5.04,11.96-8.69,17.38-3.24,4.81-7.3,8.87-11.56,12.75-3.7,3.37-7.54,6.6-11.08,10.13-9.25,9.23-15.74,20.17-19.7,32.61-1.06,3.32-1.72,6.74-2.03,10.2-.44,4.9-.83,9.81-1.18,14.72-.21,2.85-.31,5.7-.45,8.55-.02,.39,.02,.78,.03,1.17h-.7Z" style="fill:#4c3f3e;"/></g></svg>