<?xml version="1.0" encoding="UTF-8"?><svg id="OBJECTS" xmlns="http://www.w3.org/2000/svg" viewBox="0 0 226.98 258.11"><g><g><path d="M106.12,100.12c2.99-.44,5.92-1.13,8.81-2.03,6.85-2.11,13.16-5.32,19.11-9.28,2.5-1.66,4.94-3.39,7.41-5.09,.06-.04,.14-.07,.28-.02-.35,.29-.69,.59-1.04,.86-5.64,4.32-11.56,8.19-18.03,11.13-4.19,1.9-8.54,3.4-13.09,4.24-1.13,.21-2.29,.31-3.43,.46,0-.09,0-.18,0-.27Z" style="fill:#4c3f3e;"/><path d="M118.33,54.61c-1.23,2.21-2.47,4.41-3.69,6.63-3.6,6.5-7.89,12.55-12.07,18.68-1.51,2.21-2.92,4.5-4.37,6.75-.23,.36-.45,.73-.8,1.03,.14-.27,.26-.56,.41-.82,2.07-3.77,4.51-7.3,6.91-10.86,2.16-3.21,4.36-6.39,6.4-9.67,2.24-3.59,4.31-7.28,6.46-10.92,.19-.32,.38-.63,.56-.94,.07,.05,.13,.09,.2,.14Z" style="fill:#4c3f3e;"/><path d="M135.4,74.48c-7.35,7.77-16.34,12.97-26.34,16.54,9.75-3.95,18.64-9.29,26.34-16.54Z" style="fill:#4c3f3e;"/><path d="M97.8,97.09c.9,.08,1.8,.2,2.7,.23,1.29,.04,2.59,.12,3.88,0,5.72-.5,10.91-2.72,16.11-4.95,.34-.15,.69-.28,1.03-.41,.34-.13,.67-.27,1.07-.27-.61,.29-1.23,.58-1.84,.88-3.03,1.48-6.12,2.79-9.33,3.81-2.95,.94-5.97,1.6-9.08,1.54-1.53-.03-3.07-.16-4.56-.6,0-.08,0-.16,.01-.24Z" style="fill:#4c3f3e;"/><path d="M96.76,69.89c-.1,.35-.17,.71-.29,1.05-1.09,3.15-2.16,6.3-2.78,9.58-.24,1.27-.41,2.56-.47,3.85-.08,1.51-.05,3.02,0,4.53,.03,.88,.18,1.75,.21,2.64-.45-.47-.46-1.1-.54-1.67-.55-4.04-.14-8.02,.97-11.91,.74-2.61,1.7-5.15,2.56-7.72,.05-.14,.13-.27,.2-.41,.05,.02,.1,.04,.15,.06Z" style="fill:#4c3f3e;"/><path d="M135.8,93.31c4.89-2.64,10.1-4.67,14.65-7.93,.06,.07,.11,.14,.17,.2-.13,.17-.24,.38-.4,.5-.8,.58-1.59,1.19-2.44,1.68-3.7,2.13-7.55,3.95-11.55,5.44-.14,.05-.28,.07-.42,.11Z" style="fill:#4c3f3e;"/><path d="M91.81,47.31c.67,5.52,.61,11.06,.22,16.59-.09,1.27-.31,2.54-.46,3.8h-.24c-.03-.23-.11-.46-.09-.68,.15-1.72,.35-3.44,.48-5.16,.11-1.45,.21-2.9,.21-4.35,0-3.19-.07-6.37-.12-9.56,0-.22,0-.43,0-.65Z" style="fill:#4c3f3e;"/><path d="M126.14,59.2c-.1,.3-.16,.62-.32,.88-.67,1.11-1.37,2.2-2.07,3.29-.4,.62-.78,1.26-1.26,1.82-1.66,1.9-3.38,3.74-5.32,5.36,3.14-3.66,6.35-7.25,8.68-11.53,.1,.06,.2,.12,.3,.18Z" style="fill:#4c3f3e;"/><path d="M139.99,59.33c-.15,.1-.28,.22-.44,.29-2.63,1.19-4.74,3.11-6.88,4.98-1.32,1.15-2.51,2.44-3.86,3.59,.14-.19,.29-.39,.44-.57,2.22-2.76,4.75-5.19,7.68-7.18,.76-.51,1.62-.88,2.44-1.29,.16-.08,.37-.04,.56-.05,.02,.08,.04,.16,.06,.24Z" style="fill:#4c3f3e;"/><path d="M111.84,50.06c.93-2.9,6.96-11.06,8.38-11.44,.02,.02,.04,.04,.06,.07,.01,.03,.02,.06,.01,.09-.01,.06-.02,.13-.06,.17-3.13,3.37-5.7,7.17-8.39,11.11Z" style="fill:#4c3f3e;"/><path d="M114.13,96.49c-.77,.29-1.53,.62-2.31,.86-2.17,.68-4.37,1.32-6.65,1.49-1.87,.14-3.76,.22-5.6-.33-.14-.04-.26-.12-.38-.29,5.18,1.01,10.05-.35,14.94-1.73Z" style="fill:#4c3f3e;"/><path d="M96.75,74.55c.13-.63,.17-1.3,.41-1.88,.98-2.37,1.95-4.74,3.06-7.05,.99-2.06,2.16-4.03,3.25-6.03,.16-.28,.36-.54,.65-.74-.52,.93-1.04,1.86-1.55,2.79-2.15,3.9-4.01,7.94-5.49,12.14-.09,.26-.23,.5-.35,.75l.02,.02Z" style="fill:#4c3f3e;"/><path d="M93.88,57.71v-13.02c.39,.44,.41,.93,.41,1.38,.02,2.71,.04,5.43-.02,8.15-.02,1.1-.24,2.19-.39,3.49Z" style="fill:#4c3f3e;"/><path d="M128.9,83.92c4.15-2.63,8-5.64,11.56-9.04-3.36,3.65-7.14,6.75-11.56,9.04Z" style="fill:#4c3f3e;"/><path d="M113.13,60.34c2.35-4.34,4.71-8.67,7.06-13.01,.07,.03,.15,.06,.22,.09-.13,.3-.23,.61-.39,.89-1.31,2.38-2.62,4.76-3.94,7.14-.92,1.67-1.85,3.34-2.77,5.01-.06-.04-.12-.08-.18-.12Z" style="fill:#4c3f3e;"/><path d="M143.07,79.4c1.93-2.23,3.87-4.47,5.82-6.72,.37,.36,.17,.58,0,.78-.73,.88-1.44,1.77-2.21,2.61-1.1,1.19-2.26,2.34-3.39,3.51-.07-.06-.15-.12-.22-.18Z" style="fill:#4c3f3e;"/><path d="M135.52,63.9c1.53-1.81,5.25-4.17,6.26-3.99-2.07,1.32-4.12,2.63-6.26,3.99Z" style="fill:#4c3f3e;"/><path d="M114.68,86.56c3.22-1.3,6.21-3.05,9.21-4.78-2.85,2.01-5.81,3.82-9.21,4.78Z" style="fill:#4c3f3e;"/><path d="M116.45,46.14c1.07-2.19,2.38-4.17,4.08-5.88-.13,.81-.75,1.32-1.18,1.95-.47,.69-.98,1.35-1.48,2.02-.47,.64-.95,1.28-1.42,1.92Z" style="fill:#4c3f3e;"/><path d="M114.78,35.56c.81-1.69,1.82-3.24,3.15-4.57,.12,.12,.14,.14,.16,.17,.01,.03,.03,.07,.02,.09-1.11,1.44-2.22,2.88-3.33,4.31Z" style="fill:#4c3f3e;"/><path d="M145.02,68.86c.93-1.02,1.85-2.04,2.89-3.18-.01,.77,0,.78-1.18,1.92-.51,.49-1.06,.94-1.59,1.4-.04-.05-.08-.09-.12-.14Z" style="fill:#4c3f3e;"/><path d="M151.12,86.77c-1.17,1.09-2.5,1.93-4.02,2.5,1.3-.9,2.59-1.79,3.89-2.69,.04,.06,.09,.13,.13,.19Z" style="fill:#4c3f3e;"/><path d="M96.73,74.53c-.1,.57-.15,1.15-.3,1.71-.33,1.27-.71,2.53-1.11,3.78,.3-1.87,.7-3.71,1.44-5.47l-.02-.02Z" style="fill:#4c3f3e;"/></g><g><path d="M33.59,152.68c-.13,.15-.22,.27-.33,.38-6.77,6.41-12.33,13.77-17.17,21.7-3.86,6.32-7.13,12.94-10.45,19.54-2,3.98-3.96,7.98-5.94,11.97-.09,.19-.21,.36-.31,.54-.07-.02-.13-.04-.2-.06,.11-.48,.13-1.01,.34-1.44,4.49-8.96,8.74-18.04,13.67-26.78,5.05-8.96,10.92-17.32,18.28-24.57,.44-.43,.89-.86,1.34-1.29,.21-.2,.44-.36,.78-.01Z" style="fill:#4c3f3e;"/><path d="M78.42,122.26c-.05-.5,.21-.76,.51-.98,4.44-3.23,7.53-7.56,10.03-12.36,1.78-3.43,3.47-6.9,5.21-10.35,.33-.66,.69-1.31,1.08-1.95,.18-.3,.4-.63,.95-.48-.35,.59-.72,1.11-1,1.67-1,2.02-1.94,4.08-2.98,6.09-1.44,2.77-2.86,5.56-4.44,8.25-2.2,3.74-4.95,7.03-8.5,9.59-.2,.14-.4,.29-.6,.43-.05,.03-.11,.04-.27,.09Z" style="fill:#4c3f3e;"/></g><path d="M131.91,56.52c.78-1.28,1.88-2.32,2.81-3.52-1.33-.11-2.22,.36-2.96,1.35-.79,1.06-1.67,2.06-2.53,3.07-.19,.23-.46,.39-.75,.63-.18-.46,.12-.64,.3-.84,.74-.84,1.49-1.65,2.23-2.49,.23-.26,.44-.55,.65-.83-.04-.06-.09-.11-.13-.17-.5,.22-1.03,.38-1.48,.66-1.13,.7-2.21,1.46-3.32,2.18-.25,.16-.56,.25-.84,.37-.05-.07-.11-.14-.16-.21,.13-.18,.22-.41,.4-.52,.66-.45,1.32-.92,2.04-1.28,1.19-.6,2.42-1.1,3.61-1.67,.29-.14,.56-.38,.75-.64,.29-.4,.53-.83,.75-1.28,1.01-2.03,2.31-3.87,3.7-5.66,.83-1.07,1.53-2.24,2.3-3.39-.11-.21-.22-.43-.32-.61,.01-.13,0-.23,.03-.32,.12-.35,.22-.72,.39-1.04,1.07-1.98,1.71-4.09,2.16-6.29,.14-.69,.41-1.36,.65-2.03,.25-.74,.79-1.23,1.44-1.63,.95-.58,1.76-.29,2.11,.77,.34,1.04,.23,2.09-.04,3.11-.41,1.5-.96,2.98-1.94,4.18-.97,1.19-2.14,2.2-3.22,3.3-.3,.3-.66,.57-.88,.93-1.16,1.87-2.41,3.66-3.81,5.36-1.18,1.43-2.06,3.06-3.08,4.84,1.04-.3,1.9-.52,2.73-.81,.27-.09,.48-.38,.7-.6,1.91-1.85,3.79-3.75,5.74-5.55,1.51-1.4,3.13-2.69,4.69-4.03,.14-.12,.27-.25,.43-.39-.32-.82-.05-1.55,.44-2.17,1.64-2.09,3.24-4.24,5.48-5.76,.79-.53,1.67-.93,2.53-1.35,.51-.25,1.07-.28,1.58-.12,.5,.43,.37,.91,.12,1.3-.38,.6-.78,1.21-1.29,1.69-1.97,1.84-3.95,3.66-5.99,5.42-.54,.47-1.29,.69-1.94,1.03-.14,.07-.29,.13-.4,.22-1.08,.96-2.16,1.93-3.24,2.9-.37,.33-.72,.69-1.12,.98-2.27,1.68-4.2,3.74-6.17,5.75-.06,.06-.08,.16-.18,.38,2.88-.64,5.37-2,7.99-2.91,.7-1.37,1.83-2.17,3.1-2.79,.94-.46,1.93-.82,2.92-1.19,.83-.31,1.66-.62,2.52-.8,.69-.14,1.42-.13,2.12-.1,.85,.04,1.26,.41,1.41,1.1,.15,.65-.1,1.2-.81,1.62-1.09,.64-2.32,.79-3.55,.95-1.34,.18-2.69,.38-4.01,.69-.64,.15-1.22,.54-1.84,.83,.73,1.04,.69,1.48-.23,2.18-.51,.39-1.07,.75-1.65,1.02-1.92,.92-3.9,1.73-6.03,2.03-.52,.07-1.05,.13-1.57,.08-.54-.05-.96,.11-1.38,.41-.72,.53-1.45,1.06-2.19,1.57-.32,.22-.66,.4-1.04,.52,.94-1.35,2.27-2.21,3.54-3.02,.38-.57,.72-1.07,1.06-1.57-.84-.05-1.51,.25-2.05,.94-.75,.95-1.55,1.85-2.33,2.77-.2,.24-.44,.45-.67,.67-.09-.08-.18-.17-.27-.25Zm12.68-25.78c-.67,.19-.74,.29-1.15,.71-.8,.81-1.12,1.83-1.32,2.89-.41,2.2-1.09,4.29-2.14,6.27-.1,.2-.14,.43-.24,.77,.25-.11,.38-.13,.46-.21,1.12-1.17,2.35-2.26,3.31-3.55,.68-.92,1.07-2.08,1.43-3.19,.25-.77,.26-1.63,.29-2.45,.02-.49-.13-.98-.64-1.22Zm3.02,10.34c.59-.3,1.06-.47,1.43-.76,2.46-1.88,4.72-4,6.86-6.24,.23-.24,.43-.53,.61-.82,.1-.16,.13-.37,.24-.73-.43,.11-.73,.15-1,.25-1.51,.55-2.81,1.44-3.94,2.56-1.2,1.2-2.34,2.47-3.45,3.76-.4,.47-.8,1.01-.75,1.97Zm-.99,9.16c-.49-.48-.94-.4-1.36-.33-2.69,.46-5.13,1.54-7.4,3.03-.28,.19-.5,.47-.79,.75,1.12,.43,2.04,.26,6.13-1.29,1.24-.47,2.51-1.01,3.43-2.15Zm-1.03-1.39c.06,.05,.12,.11,.18,.16,.09-.03,.18-.04,.25-.1,1.68-1.23,3.59-1.68,5.63-1.84,1.19-.1,2.36-.4,3.53-.67,.54-.13,1.02-.43,1.19-1-.16-.47-.51-.53-.89-.58-1.19-.15-2.34,.05-3.47,.39-1.95,.58-3.89,1.23-5.47,2.59-.36,.31-.64,.7-.95,1.06Z" style="fill:#4c3f3e;"/><path d="M99.93,53.42c.37-.88,.75-1.75,1.11-2.63,1.3-3.17,2.6-6.35,3.91-9.52,.3-.71,.64-1.41,.97-2.1,1.18-2.43,2.69-4.65,4.41-6.74,.83-1.01,1.81-1.87,2.95-2.52,2.13-1.21,4.02-.75,5.36,1.31,.88,1.35,1.24,2.89,1.5,4.45,.16,1,.21,2.04,.45,3.02,.38,1.52,.93,2.99,1.73,4.35,.68,1.18,1.41,2.33,2.12,3.49,1.28,2.11,1.85,4.43,2.05,6.86,.16,1.92-.02,3.82-.37,5.85,.27-.18,.43-.28,.58-.4,.34-.27,.67-.55,.99-.84,2.56-2.34,6.87-2,8.97-.36,1.01,.79,2.2,1.09,3.42,1.33,4.14,.81,6.83,3.3,8.26,7.19,.62,1.69,.94,3.45,1,5.26,.07,2.44,.15,4.89,.37,7.32,.23,2.52,.66,5.02,1.52,7.43,.5,1.41,1.3,2.66,2.15,3.89,.51,.73,.99,1.5,1.37,2.3,.5,1.05,.5,2.16,.06,3.24-.47,1.14-1.41,1.78-2.55,2.13-1.6,.5-3.23,.42-4.88,.35-2.19-.1-4.39-.22-6.58-.18-2.47,.05-4.94,.27-7.41,.44-.55,.04-1.09,.15-1.78,.25,.81,.29,1.49,.48,2.13,.77,2.01,.9,3.73,2.18,5.08,3.95,1.14,1.5,2.32,2.97,3.47,4.47,1.12,1.46,1.6,3.12,1.45,4.95-.03,.38-.2,.75-.27,1.03-.64,.31-1.04,.16-1.37-.24-.32-.38-.62-.77-.94-1.15-4.9-5.79-11.01-9.48-18.54-10.73-3.48-.58-6.97-1.02-10.51-.88-3.9,.15-7.69-.3-11.43-1.5-2.19-.7-4.3-.34-6.03,1.34-.28,.27-.49,.63-.74,.93-.85,1.02-1.71,2.04-2.64,3.03,.3-.77,.59-1.53,.9-2.29,.71-1.74,1.04-3.54,1.1-5.42,.08-2.48-.39-4.84-1.07-7.21-.95-3.33-1.61-6.71-1.59-10.22,.02-3.04,.31-6.05,.51-9.07,.13-1.97,.15-3.98-.09-5.93-.42-3.4-1.1-6.76-1.62-10.15-.33-2.17-.58-4.35-.81-6.53-.26-2.43-.54-4.86-.66-7.29-.1-2.07-.02-4.14,.06-6.21,.04-1.01,.21-2.03,.43-3.02,.33-1.54,1.19-2.76,2.47-3.7,1.3-.96,2.76-.47,3.35,.99,.71,1.76,1.26,3.54,1.6,5.4,.29,1.59,.9,3.07,1.58,4.54,.89,1.91,1.73,3.83,2.15,5.91,.57,2.85,.75,5.69,.16,8.56-.03,.14,0,.3,0,.45,.06,0,.13,.02,.19,.03Zm-2.43,42.68c.18,.74,.61,1.21,1.2,1.53,.52,.28,1.04,.54,1.59,.76,3.08,1.21,6.3,1.78,9.6,1.78,2.04,0,4.08-.13,6.11-.31,2.37-.21,4.73-.5,7.09-.8,3.55-.45,7.09-1,10.65-1.39,3.13-.34,6.29-.52,9.45-.42,2.29,.07,4.57,.18,6.86,.17,.78,0,1.6-.19,2.34-.46,1.78-.66,2.55-2.37,1.82-4.14-.38-.9-.94-1.74-1.5-2.55-.86-1.25-1.63-2.55-2.14-3.99-.73-2.08-1.1-4.24-1.39-6.41-.33-2.49-.39-4.99-.41-7.5-.02-2.27-.37-4.5-1.28-6.6-1.41-3.24-3.78-5.39-7.3-6.11-1.59-.33-3.02-.93-4.43-1.77-2.26-1.33-4.65-1.38-6.92,.11-.67,.44-1.25,1.01-1.88,1.51-.79,.62-1.12,1.37-1.03,2.41,.27,3.33-.65,6.43-2.05,9.39-.87,1.85-2.1,3.45-3.47,4.99-2.58,2.9-5.41,5.5-8.53,7.8-3.01,2.23-6.08,4.37-9.07,6.62-1.38,1.04-2.67,2.21-3.96,3.36-.6,.53-1.14,1.14-1.34,2Zm-5.62-12.34c-.09,2.34,.57,5.39,1.99,8.27,.1,.19,.14,.41,.25,.6,.51,.87,.98,1.78,1.58,2.59,.44,.59,.93,.55,1.38-.04,.48-.64,.98-1.29,1.32-2.01,1.13-2.41,2.21-4.83,3.26-7.27,.85-1.98,2.04-3.74,3.45-5.35,2.18-2.5,4.91-4.21,8.02-5.34,2.65-.96,5.24-2.01,7.64-3.53,1.9-1.19,3.09-2.87,4.03-4.81,.12-.24,.15-.53,.22-.8,.42-1.64,.39-3.31,.35-4.98-.02-.65,0-1.3,.11-1.94,.36-2.11,.62-4.2,.32-6.36-.3-2.11-.82-4.11-1.93-5.94-.69-1.14-1.38-2.28-2.08-3.41-.98-1.59-1.72-3.26-1.92-5.14-.11-1.01-.25-2.02-.44-3.02-.25-1.34-.61-2.66-1.39-3.8-1.16-1.7-2.65-2.1-4.38-1-.98,.62-1.92,1.39-2.69,2.25-1.75,1.97-3.21,4.16-4.36,6.54-.4,.83-.81,1.67-1.17,2.53-2.3,5.54-4.6,11.07-6.89,16.61-1.72,4.16-3.66,8.21-4.75,12.63-.97,3.91-1.87,7.8-1.92,12.73Zm-.63-2.97c.21-1.52,.29-2.92,.61-4.26,.8-3.39,1.7-6.76,2.6-10.13,.31-1.16,.75-2.29,1.11-3.43,.64-2.04,1.25-4.09,1.19-6.25-.05-2.02-.51-3.98-1.17-5.88-.88-2.51-1.59-5.06-2.04-7.68-.16-.94-.26-1.91-.21-2.86,.11-1.94,.28-3.88,.55-5.81,.18-1.35,.05-2.66-.12-3.97-.13-.97-.4-1.93-.99-2.74-.76-.11-.88-.1-1.42,.27-1.09,.74-1.86,1.75-2.19,3.02-.27,1.01-.49,2.06-.55,3.1-.2,3.28-.1,6.56,.2,9.83,.18,1.97,.42,3.93,.69,5.89,.32,2.42,.68,4.83,1.05,7.24,.36,2.32,.84,4.62,1.14,6.94,.41,3.21,.05,6.42-.22,9.63-.2,2.31-.4,4.62-.22,7.11Zm8.33,11.56c1.66-1.25,3.23-2.44,4.81-3.62,3.61-2.7,7.41-5.14,10.78-8.16,1.83-1.63,3.5-3.38,5.14-5.2,1.16-1.3,2.16-2.69,2.94-4.23,.11-.23,.18-.47,.27-.71-2.27,2.02-4.89,3.31-7.62,4.42-.89,.36-1.8,.66-2.69,1.01-1.79,.71-3.51,1.52-5.02,2.74-2.24,1.82-3.99,4.05-5.28,6.6-1.17,2.31-2.19,4.69-3.33,7.15Zm-5.2-61.76c-.08,.01-.16,.02-.24,.03,.06,.48,.17,.97,.16,1.45-.05,2.1-.14,4.2-.22,6.3,0,.12-.06,.24-.06,.37-.15,2.17-.15,4.33,.44,6.43,.55,1.93,1.2,3.83,1.82,5.74,.76,2.31,1.18,4.67,1.01,7.11-.03,.46-.08,.92-.12,1.39,.44-.78,.72-1.59,1.01-2.4,1.5-4.31,1.79-8.7,.61-13.12-.46-1.72-1.19-3.38-1.91-5.01-.79-1.79-1.47-3.59-1.8-5.53-.16-.93-.46-1.84-.69-2.76Zm25.78,70s-.02,.06-.02,.09c.51,.09,1.02,.19,1.54,.27,2.45,.35,4.85,.91,7.16,1.81,5.32,2.06,9.7,5.38,13.23,9.85,.23,.3,.52,.56,.93,.99,.11-.55,.22-.87,.23-1.18,.04-1.96-.66-3.63-2.07-4.98-2.99-2.87-6.48-4.85-10.53-5.75-1.98-.44-4.01-.68-6.03-.9-1.47-.16-2.96-.13-4.44-.19Zm1.73-.71c0,.09,0,.17-.01,.26,2.98,.09,5.96,.25,8.87,.96,2.96,.73,5.68,1.96,8.28,3.84-.07-.27-.06-.37-.11-.43-1.75-2.57-4.1-4.34-7.08-5.23-1.04-.31-2.1-.53-3.19-.37-2.26,.32-4.51,.65-6.76,.98Z" style="fill:#4c3f3e;"/><path d="M61.86,114.68c-.05-.44-.2-.89-.15-1.32,.43-3.48,.15-6.92-.51-10.34-.5-2.62-1.16-5.19-2.16-7.66-.43-1.06-.9-2.11-1.42-3.12-1.47-2.86-3.2-5.57-5.03-8.23-1.24-1.8-2.48-3.61-3.67-5.44-1.98-3.04-3.67-6.24-5.14-9.56-.26-.59-.6-1.14-.9-1.71-.06,.02-.12,.04-.18,.06,.2,.87,.39,1.74,.61,2.61,1.65,6.61,4.19,12.87,7.38,18.88,.25,.46,.41,.97,.68,1.42,.33,.55,.76,1.04,1.1,1.58,2.4,3.78,4.34,7.78,5.52,12.11,.17,.63,.3,1.26,.44,1.9,.06,.27,.07,.54-.05,.87-.14-.34-.34-.67-.42-1.03-1.04-4.51-2.96-8.65-5.36-12.57-.45-.73-1.06-1.37-1.45-2.13-3.59-6.83-6.75-13.84-8.45-21.42-.06-.27-.14-.54-.21-.81,0-.02-.04-.04-.13-.11-.18,1.12,.06,2.17,.23,3.2,.92,5.81,2.61,11.44,4.2,17.09,1.29,4.6,3.09,9,5.02,13.36,.18,.41,.44,.78,.73,1.28-.35-.02-.58-.04-.82-.05-1.73-3.92-3.48-7.78-4.71-11.84-1.72-5.68-3.35-11.38-4.55-17.2-.55-2.67-.84-5.37-.85-8.11,0-.33,.05-.65,.07-.93,.66-.34,.91,.05,1.12,.43,.54,1,1.12,2,1.58,3.04,2,4.59,4.63,8.82,7.37,12.98,1.51,2.3,3.15,4.5,4.61,6.83,3,4.78,4.85,10,5.63,15.58,.28,1.99,.45,4,.51,6,.04,1.44-.21,2.89-.33,4.33-.1,0-.2,.01-.3,.02Z" style="fill:#4c3f3e;"/></g><g><g><path d="M169.41,170.86c.83,.57,1.63,1.19,2.49,1.71,2.58,1.58,5.45,2.48,8.34,3.28,2.49,.69,5,1.23,7.58,1.48-1.61,.12-3.19-.1-4.77-.39-3.2-.59-6.31-1.48-9.29-2.79-1.88-.83-3.61-1.91-5.09-3.35-.4-.38-.75-.81-1.14-1.23,.11-.21,.19-.36,.29-.56,1.08,.65,2.11,1.34,3.19,1.91,1.09,.58,2.22,1.08,3.36,1.56,1.13,.48,2.3,.9,3.47,1.35-1.23,.03-3.39-.79-8.28-3.13-.05,.05-.1,.11-.15,.16Z" style="fill:#4c3f3e;"/><path d="M167.08,164.8c.28,.11,.56,.2,.84,.32,1.99,.83,4.07,1.19,6.22,1.3,3.2,.17,6.37-.19,9.54-.5,2.67-.27,5.31-.8,7.96-1.22,.3-.05,.59-.16,.92-.1-1.34,.33-2.66,.72-4.02,.97-4.05,.74-8.13,1.24-12.24,1.37-2.54,.08-5.06-.08-7.48-.98-.66-.24-1.32-.48-1.84-.97,.04-.07,.08-.13,.12-.2Z" style="fill:#4c3f3e;"/><path d="M199.68,187.19c-1.9,.17-4.16-.11-6.42-.4-2.42-.3-4.81-.75-7.15-1.43-2.36-.68-4.6-1.62-6.56-3.15-.12-.09-.28-.13-.34-.33,6.43,3.91,13.63,4.6,20.48,5.31Z" style="fill:#4c3f3e;"/><path d="M167.3,159.2c.07-1.95,.36-3.88,1.19-5.64,2.19-4.67,5.49-8.39,9.82-11.22-5.4,4.49-9.96,9.52-11.01,16.86Z" style="fill:#4c3f3e;"/><path d="M197.49,139.31c-.12,.25-.14,.34-.19,.4-3.91,3.96-7.63,8.07-10.89,12.59,0,.01-.06,0-.15-.01-.13-.36,.13-.61,.31-.85,.83-1.15,1.64-2.32,2.54-3.42,2.43-2.97,5.08-5.73,7.92-8.31,.1-.09,.21-.18,.47-.39Z" style="fill:#4c3f3e;"/><path d="M169.25,144.54c.07-.2,.11-.42,.22-.6,2.2-3.67,4.5-7.28,7.66-10.21,1.23-1.14,2.65-2.08,3.99-3.1,.04,.05,.09,.11,.13,.16-.75,.65-1.51,1.29-2.26,1.94-.74,.64-1.53,1.25-2.21,1.95-2.48,2.54-4.47,5.45-6.45,8.37-.34,.51-.73,.98-1.1,1.48l.02,.02Z" style="fill:#4c3f3e;"/><path d="M160.76,169.13c1.33-3.33,3.67-5.75,6.66-7.66,.3,.75-.43,.79-.6,1.17,.09,.06,.19,.13,.26,.18-1.18,1.18-2.36,2.36-3.54,3.54-.04-.03-.08-.06-.11-.09,.55-.72,1.1-1.44,1.65-2.16-.59,.15-.88,.39-2.35,2.26-.7,.88-1.32,1.84-1.97,2.76Z" style="fill:#4c3f3e;"/><path d="M187.25,141.18c-2.02,1.11-4.07,2.17-5.81,3.68-1.74,1.51-3.48,3.03-5.3,4.48,.94-.99,1.84-2.02,2.84-2.95,1.13-1.05,2.29-2.08,3.54-2.98,1.17-.84,2.46-1.51,3.71-2.23,.27-.15,.6-.21,.9-.31,.04,.11,.08,.21,.12,.32Z" style="fill:#4c3f3e;"/><path d="M205.16,170.88c-5.07,1.56-10.27,1.57-15.49,1.29,5.19-.16,10.37-.31,15.49-1.29Z" style="fill:#4c3f3e;"/><path d="M208.37,181.51c-1.35,1.38-9.97,2.09-12.82,1.25,1.35-.05,2.77-.08,4.18-.15,1.45-.08,2.91-.14,4.35-.32,1.37-.17,2.72-.49,4.28-.78Z" style="fill:#4c3f3e;"/><path d="M195.26,161.93c-5.05,1.97-10.26,3.16-15.69,3.35,5.34-.6,10.53-1.9,15.69-3.35Z" style="fill:#4c3f3e;"/><path d="M169.79,162.95c.61-.19,1.24-.34,1.83-.58,1.63-.68,3.02-1.77,4.36-2.87,1.53-1.26,2.95-2.67,4.42-4.01-.96,1.35-2.1,2.55-3.36,3.64-1.04,.91-2.08,1.83-3.2,2.63-1.19,.85-2.54,1.34-4.05,1.2Z" style="fill:#4c3f3e;"/><path d="M188.39,197.92c-.22-3.49-1.07-6.81-2.19-10.13,.18,.24,.44,.46,.53,.73,.52,1.61,1.02,3.22,1.48,4.85,.22,.77,.36,1.56,.48,2.35,.11,.74,.29,1.51-.3,2.2Z" style="fill:#4c3f3e;"/><path d="M180.14,134.29c.55-.51,1.09-1.05,1.66-1.53,.75-.63,1.53-1.24,2.31-1.84,1.18-.9,2.36-1.79,3.56-2.67,.23-.17,.51-.29,.77-.43,.05,.05,.09,.1,.14,.16-.11,.14-.2,.32-.33,.43-1.66,1.29-3.32,2.58-5,3.84-.98,.73-1.99,1.42-2.99,2.12-.04-.02-.08-.05-.12-.07Z" style="fill:#4c3f3e;"/><path d="M190.17,140.15c1.12-3.13,4.17-7.12,5.84-7.53-.54,.56-1.1,1.1-1.61,1.68-.53,.6-1.03,1.24-1.51,1.88s-.94,1.3-1.39,1.97c-.45,.66-.88,1.33-1.33,2Z" style="fill:#4c3f3e;"/><path d="M194.63,170.75c-4.65,.37-9.28,0-13.89-.55,4.63,.18,9.26,.37,13.89,.55Z" style="fill:#4c3f3e;"/><path d="M175.64,179.59c.58,1,.43,2.16,.72,3.23,.3,1.1,.51,2.22,.78,3.33,.27,1.1,.57,2.2,.82,3.17-.95-1.31-2.58-7.7-2.32-9.74Z" style="fill:#4c3f3e;"/><path d="M163.02,176.87c-.19-2.77,1.48-8.57,2.75-9.61-.53,1.56-1.13,3.1-1.59,4.68-.46,1.59-.77,3.23-1.16,4.94Z" style="fill:#4c3f3e;"/><path d="M155.55,169.05c.09-.3,.11-.64,.27-.9,.26-.42,.55-.84,.92-1.15,1.25-1.04,2.55-2.03,3.83-3.03,.2-.16,.47-.24,.74-.3-1.96,1.71-4.27,3.04-5.52,5.45-.08-.02-.16-.04-.25-.06Z" style="fill:#4c3f3e;"/><path d="M187.73,151.32c1.52-2,3.25-3.8,5.26-5.35-.16,.2-.31,.4-.49,.59-.98,1.06-1.99,2.11-2.95,3.19-.35,.4-.58,.9-.92,1.32-.17,.21-.45,.33-.68,.5-.08-.08-.15-.16-.23-.24Z" style="fill:#4c3f3e;"/><path d="M187.64,141.91c-1.79,1.29-3.81,2.22-5.59,3.51,.78-1.09,4.41-3.43,5.59-3.51Z" style="fill:#4c3f3e;"/><path d="M209.08,180.42c-2.06,.63-4.14,1.04-6.07,.78,1.86-.32,3.95-.68,6.04-1.05,.01,.09,.02,.18,.03,.27Z" style="fill:#4c3f3e;"/><path d="M203.63,144.76c-.28,.99-2.74,2.67-4.58,3.25,1.53-1.08,3.06-2.17,4.58-3.25Z" style="fill:#4c3f3e;"/><path d="M161.39,147.99c.54,.83,.95,1.58,1.47,2.25,.53,.68,1.17,1.27,1.8,1.94-1.55-.45-3.36-2.72-3.26-4.18Z" style="fill:#4c3f3e;"/><path d="M171.79,163.42c.94-.47,1.94-.86,2.83-1.43,.87-.55,1.63-1.28,2.46-1.89-1.03,1.49-3.97,3.72-5.29,3.32Z" style="fill:#4c3f3e;"/><path d="M208.62,167.01c1.58-1,3.17-2,4.75-3,.05,.08,.09,.16,.14,.23-1.36,1.38-3.09,2.13-4.89,2.77Z" style="fill:#4c3f3e;"/><path d="M169.23,144.53c-.08,.26-.17,.51-.26,.78-.86-.71-1.48-3.03-1.42-5.14,.41,1.5,.82,3,1.23,4.52,.24-.08,.36-.11,.47-.14l-.02-.02Z" style="fill:#4c3f3e;"/><path d="M211.46,166.58c-1.7,1.22-3.85,1.99-4.72,1.7,.41-.51,1.04-.24,1.51-.48,.46-.23,.98-.36,1.47-.55,.52-.19,1.03-.4,1.75-.67Z" style="fill:#4c3f3e;"/><path d="M176.85,180.48c.33,1.68,.67,3.37,1,5.05-.65-1.62-1.25-3.25-1.2-5.01,.07-.01,.14-.03,.2-.04Z" style="fill:#4c3f3e;"/><path d="M195.18,151.73c-1.12,.92-2.2,1.81-3.32,2.73,.77-1.49,2.36-2.81,3.32-2.73Z" style="fill:#4c3f3e;"/><path d="M189.12,193.34c.52,1.64,.88,3.33,.65,5.08-.11,0-.21,.02-.32,.03-.11-1.72-.22-3.43-.33-5.11Z" style="fill:#4c3f3e;"/><path d="M164.16,146.58c1.05,1.03,2.1,2.06,3.17,3.12-.76,.03-2.42-1.57-3.17-3.12Z" style="fill:#4c3f3e;"/><path d="M169.86,179.25c-.09-1.52,.31-3.13,.86-3.65,.12,.52-.19,1.9-.86,3.65Z" style="fill:#4c3f3e;"/><path d="M171.67,176.76c-.3,1.28-.6,2.56-.9,3.84-.07-1.38,.05-2.71,.65-3.95,.08,.04,.17,.07,.25,.11Z" style="fill:#4c3f3e;"/><path d="M198.93,149.13c1.07-.48,2.15-.97,3.23-1.46-.55,.8-2.24,1.65-3.23,1.46Z" style="fill:#4c3f3e;"/><path d="M167.04,144.43c-.86-.85-1.46-1.86-1.61-3.1,.74,.92,1.1,2.04,1.61,3.1Z" style="fill:#4c3f3e;"/><path d="M207.18,162.31c-.9,1.02-1.89,1.59-2.83,1.57,.97-.69,1.89-1.14,2.83-1.57Z" style="fill:#4c3f3e;"/><path d="M156.71,165.68c-.73,.64-1.45,1.28-2.3,2.03,.19-.8,1.07-1.6,2.3-2.03Z" style="fill:#4c3f3e;"/><path d="M166.35,153.74c-1.29,.41-2.43,.11-3.43-.77,1.09,.47,2.21,.82,3.43,.77Z" style="fill:#4c3f3e;"/><path d="M167.32,148.82c-.72-.53-1.33-1.18-1.8-1.95,.04-.05,.09-.09,.13-.14,.63,.62,1.25,1.24,1.88,1.86-.07,.07-.14,.15-.21,.22Z" style="fill:#4c3f3e;"/><path d="M193.79,153.99c.44-.82,1.06-1.42,1.91-1.83,.02,.18,.06,.27,.03,.29-.64,.52-1.29,1.03-1.94,1.54Z" style="fill:#4c3f3e;"/><path d="M167.6,173.96c.07-.77,.33-1.4,.99-1.7,.07,.05,.13,.1,.2,.15-.4,.52-.79,1.03-1.19,1.55Z" style="fill:#4c3f3e;"/></g><path d="M114.65,146.34c.11,.21,.27,.4,.34,.62,1.52,4.67,3.03,9.33,4.53,14.01,1.26,3.94,2.34,7.94,3.1,12.01,.77,4.07,1.34,8.18,1.26,12.35-.05,2.59,.02,5.19-.12,7.78-.13,2.4-.45,4.79-.7,7.19-.16,1.56-.35,3.13-.52,4.69,0,.09,.03,.18,.09,.43,.26-.35,.45-.6,.63-.87,1.75-2.56,3.13-5.33,4.49-8.11,1.75-3.58,3.37-7.24,5.05-10.86,.36-.79,.76-1.56,1.13-2.34,2.6-5.58,6.42-10.21,11.21-14.02,2.3-1.83,4.77-3.43,7.16-5.13,.22-.15,.47-.26,.79-.44-.08,.68-.5,.95-.92,1.25-2.28,1.65-4.61,3.23-6.82,4.98-5.38,4.27-9.22,9.71-11.96,15.97-1.19,2.72-2.41,5.43-3.68,8.11-2.06,4.33-4.25,8.58-6.94,12.58-4.57,6.79-11.74,14.2-19.09,18.65-3.17,1.92-6.53,3.36-10.05,4.5-.32,.1-.63,.22-1.02,.36,1.46,.27,2.82,.51,4.17,.77,2.32,.44,4.52,1.25,6.65,2.28,2.85,1.39,5.8,2.48,8.99,2.76,1.38,.12,2.77,.22,4.16,.2,3.62-.06,7.24-.25,10.86-.29,11.51-.12,20.62,4.79,27.91,13.45,.4,.47,.75,.99,1.06,1.52,.16,.26,.18,.6,.27,.9-.06,.05-.12,.11-.18,.16-.23-.1-.49-.16-.69-.3-5.26-3.74-11.23-5.51-17.55-6.22-2.05-.23-4.13-.22-6.2-.2-3.31,.03-6.62,.21-9.93,.25-3.47,.04-6.91-.11-10.27-1.17-3.27-1.03-6.09-2.71-8.3-5.36-1.13-1.35-2.31-2.67-3.49-3.98-.98-1.08-2.08-2.03-3.36-2.76-1.6-.91-3.31-1.25-5.14-1.34-1.63-.08-3.1,.49-4.64,.79-2.12,.41-4.23,.9-6.36,1.27-3.01,.53-6.03,1.03-9.06,1.47-2.45,.36-4.91,.6-7.37,.91-2.67,.33-5.34,.68-8.01,1.03-1.13,.15-2.27,.31-3.4,.45-10.29,1.28-20.3,3.66-29.85,7.78-6.04,2.61-11.57,6.03-16.32,10.63-.84,.82-1.62,1.7-2.43,2.56-.16,.17-.33,.35-.56,.58-.02-.35-.04-.59-.06-.87,.1-.12,.2-.27,.33-.41,3.6-4.08,7.88-7.32,12.59-10.01,5.01-2.87,10.36-4.99,15.88-6.61,3.49-1.03,7.03-1.92,10.58-2.7,2.68-.59,5.42-.94,8.14-1.34,3.21-.47,6.43-.9,9.65-1.33,1.41-.19,2.83-.33,4.24-.51,2.67-.34,5.34-.67,8-1.05,2.23-.31,4.47-.64,6.69-1.04,6.7-1.2,13.34-2.62,19.57-5.49,5.27-2.42,9.78-5.9,13.94-9.89,3.05-2.92,5.8-6.1,8.23-9.55,.42-.59,.59-1.17,.53-1.89-.37-4.44-1.51-8.68-3.18-12.81-1.78-4.41-3.51-8.84-5.11-13.32-1.57-4.39-2.4-8.95-2.52-13.62-.08-3.14,.45-6.21,1.11-9.27,.67-3.14,1.3-6.29,1.95-9.43,.05-.25,.17-.48,.26-.72,.09,0,.18,0,.28,0Zm-17.21,85.31c.19,.1,.37,.2,.57,.29,2.03,.87,3.87,2.06,5.57,3.47,1.05,.87,2.08,1.76,3.13,2.62,3.06,2.52,6.62,3.55,10.52,3.38,5.84-.26,11.67-.65,17.51-.93,2.43-.12,4.8,.31,7.09,1.12,4.01,1.41,7.6,3.58,10.96,6.14,.18,.14,.37,.26,.55,.38-.1-.34-.28-.57-.48-.79-3.74-4.02-8.23-6.89-13.32-8.87-2.49-.97-5.03-1.7-7.7-1.92-2.93-.24-5.87-.1-8.8,0-3.12,.11-6.24,.28-9.36,.07-2.42-.17-4.79-.55-7.05-1.45-1.29-.52-2.55-1.1-3.81-1.69-1.71-.79-3.43-1.53-5.37-1.81Zm24.64-29.83c0-1.16,.05-2.32,.02-3.48-.08-2.54-.37-5.06-.81-7.56-.3-1.7-.54-3.42-.88-5.11-.4-1.96-.88-3.91-1.34-5.86-.73-3.09-1.48-6.17-2.21-9.26-.61-2.59-1.15-5.19-1.33-7.84-.29-4.26-.55-8.52-.83-12.79-.02-.31-.08-.62-.12-.94-.74,3.03-1.4,6.04-2.06,9.05-.45,2.06-.8,4.13-.81,6.24-.03,4.07,.5,8.07,1.59,12,1.15,4.15,2.7,8.14,4.32,12.12,1.78,4.37,3.72,8.69,4.47,13.42Zm-22.22,31.6c-.03,.05-.06,.11-.09,.16,1.52,1.71,3.04,3.42,4.54,5.14,1.83,2.11,4.11,3.53,6.71,4.49,3.03,1.12,6.17,1.52,9.37,1.51,3.18,0,6.37-.12,9.55-.24,2.72-.1,5.43-.05,8.14,.2,5.01,.45,9.77,1.79,14.29,3.98,.21,.1,.43,.18,.64,.26-.21-.42-.5-.72-.83-.96-2.97-2.2-6.11-4.1-9.55-5.47-3.38-1.35-6.9-1.85-10.52-1.71-1.33,.05-2.66,.14-3.98,.25-3.67,.3-7.34,.63-11.01,.91-.86,.06-1.73,0-2.59-.1-3.43-.36-6.4-1.74-8.99-4.02-1.23-1.08-2.51-2.11-3.8-3.13-.6-.47-1.26-.85-1.89-1.27Zm22.73-36.04c.05,0,.1,0,.15,0,.06-.6,.12-1.21,.18-1.81,.36-3.32,.47-6.66,.37-9.99-.11-3.68-.28-7.36-1.04-10.98-.63-2.96-1.17-5.94-2.01-8.84-1.41-4.89-3.02-9.72-4.55-14.58-.08-.25-.2-.5-.3-.74-.03,1.62,.08,3.19,.17,4.76,.3,5.09,.51,10.19,1.71,15.18,.59,2.46,1.09,4.94,1.67,7.39,.84,3.6,2.01,7.12,2.54,10.79,.35,2.44,.69,4.89,1.01,7.34,.07,.49,.07,.98,.1,1.47Z" style="fill:#4c3f3e;"/><path d="M167.6,188.98c-1.63,.22-3.3,.07-4.95-.45-3.64-1.15-5.85-3.58-6.62-7.29-.27-1.3-.37-2.63-.67-3.92-.22-.95-.55-1.89-.97-2.77-.38-.8-.99-1.49-1.43-2.27-.45-.8-.92-1.62-1.2-2.5-.87-2.75,.06-5.04,1.98-7.01,.55-.57,1.2-1.05,1.86-1.63-.1-.12-.22-.33-.4-.46-1.86-1.28-2.59-3.09-2.42-5.27,.12-1.57,.36-3.13,.5-4.69,.09-1.04,.2-2.1,.14-3.14-.1-1.62,.33-3.07,1.19-4.39,.64-.99,1.37-1.91,2.05-2.86,.11-.15,.21-.3,.33-.46,.06-3.26,.51-6.46,1.67-9.53,1.32-3.5,3.36-6.54,6.13-9.05,.77-.7,1.66-1.32,2.6-1.75,2.31-1.05,3.72-.41,4.92,1.31,.97,1.39,1.64,2.91,1.94,4.58,.25,1.4,.02,2.77-.39,4.12-.39,1.28-.96,2.48-1.76,3.56-.33,.45-.66,.9-.97,1.36-.81,1.19-1.24,2.48-1.04,3.94,.11,.85-.01,1.74,.49,2.62,.2-.29,.37-.53,.53-.78,2.32-3.6,4.29-7.39,5.92-11.34,.92-2.23,2.29-4.22,3.3-6.41,.49-1.07,1.24-1.97,2.08-2.79,.88-.85,1.96-1.3,3.16-1.41,1.86-.17,3.27,1.13,3.55,3.15,.27,1.96,.06,3.88-.26,5.81-.16,.91-.29,1.83-.4,2.75-.04,.36-.01,.73-.02,1.2,.28-.13,.48-.19,.64-.29,.84-.52,1.74-.8,2.72-.81,1.58-.02,3.15-.09,4.72,0,2.33,.13,4.12,1.31,5.36,3.22,.72,1.11,1.31,2.32,1.82,3.54,.64,1.52,1.35,2.98,2.37,4.28,1.31,1.68,1.8,3.64,1.88,5.72,.03,.83-.03,1.67-.07,2.5-.06,1.15-.27,2.27-.93,3.34,.36,.18,.69,.33,1.01,.51,1.5,.86,3.04,1.66,4.47,2.63,1.47,.99,2.38,2.49,3,4.14,.6,1.6,.65,3.28,.27,4.93-.51,2.23-1.48,4.26-2.98,6.01-.79,.92-1.72,1.69-2.82,2.15,1,3.78-.05,7.05-2.23,10.06-.71,.98-1.44,1.94-2.2,2.88-1.07,1.31-1.93,2.72-2.49,4.32-.39,1.11-1.07,2.02-1.99,2.75-1.12,.88-2.35,1.1-3.65,.5-.72-.34-1.4-.79-2.07-1.22-.73-.46-1.43-.96-2.31-1.36,.16,.69,.29,1.39,.5,2.07,.46,1.47,.62,2.95,.43,4.48-.18,1.41-1.29,2.74-2.7,2.92-.88,.12-1.79,.1-2.67,.03-1.97-.15-3.93-.37-5.9-.58-1.93-.21-3.73-.84-5.43-1.77-2.14-1.18-3.99-2.72-5.64-4.5-1.34-1.45-2.59-2.99-3.97-4.61Zm.3-26.52c-.11,.25-.23,.46-.31,.69-.56,1.54-.45,3.09-.04,4.64,.85,3.18,2.11,6.17,4.55,8.46,1.39,1.3,2.92,2.46,4.46,3.58,2.85,2.07,5.91,3.81,8.99,5.52,3.72,2.05,7.23,4.42,10.73,6.82,.48,.33,1.02,.58,1.54,.84,.9,.44,1.74,.24,2.53-.31,1.03-.72,1.72-1.68,2.13-2.85,.54-1.53,1.37-2.9,2.39-4.16,.8-.99,1.55-2.01,2.31-3.02,1.15-1.53,1.99-3.2,2.28-5.11,.24-1.61-.1-3.01-1.41-4.08-.45-.37-.91-.75-1.37-1.1-1.18-.91-2.38-1.78-3.53-2.72-1.96-1.58-3.25-3.63-3.96-6.03-.55-1.85-1.22-3.61-2.35-5.21-.42-.59-.87-1.01-1.5-1.3-1.93-.87-3.96-1.35-6.06-1.64-1.6-.22-3.19-.29-4.75,0-1.44,1.83-2.77,3.7-4.7,4.96-1.39,.91-2.8,1.84-4.3,2.53-2.12,.97-4.35,1.17-6.54,.11-.36-.17-.69-.38-1.08-.6Zm-1.14-5.31c.23,1.12,.41,2.25,.72,3.34,.13,.48,.45,.97,.82,1.3,.71,.65,1.56,1.09,2.54,1.27,1.28,.24,2.54,.12,3.74-.35,2.16-.86,4.15-1.96,5.84-3.64,.89-.88,1.84-1.69,2.62-2.7,2.55-3.29,4.41-6.86,4.81-11.06,.13-1.32,.16-2.66-.79-3.8-.16-.19-.15-.59-.1-.87,.07-.39,.24-.76,.38-1.14,.76-2.1,1.12-4.26,.7-6.47-.34-1.8-.21-3.56,.07-5.34,.21-1.37,.38-2.75,.54-4.13,.12-1.03-.05-2.04-.42-3-.47-1.2-1.42-1.78-2.69-1.67-1.23,.11-2.24,.7-3.04,1.61-.81,.92-1.49,1.93-2.02,3.05-.65,1.36-1.53,2.61-2.1,4-2.17,5.29-5,10.21-7.89,15.13-2.61,4.44-3.93,9.26-3.71,14.48Zm-5.24-2.92s.09-.04,.13-.06c-.1-.53-.21-1.07-.31-1.6-.62-3.48-.17-6.72,2.24-9.47,1.41-1.6,2.91-3.12,4.35-4.69,.48-.52,1.04-1.03,1.32-1.66,.75-1.71,1.84-3.21,2.81-4.79,1.46-2.37,2.11-4.94,1.24-7.71-.44-1.4-1.09-2.7-2.11-3.77-.76-.8-1.67-1.09-2.78-.73-1.15,.37-2.11,1.01-3.01,1.78-2.14,1.83-3.75,4.11-5.08,6.56-.69,1.27-1.19,2.65-1.6,4.04-1.22,4.12-1.38,8.31-.73,12.55,.48,3.12,1.44,6.06,3.02,8.79,.15,.26,.33,.5,.49,.75Zm25.36-2.69c1.05-.53,2.01-1.08,3.02-1.51,2.61-1.09,5.33-1.57,8.15-1.21,1.65,.21,3.14,.89,4.59,1.67,1.19,.64,2.41,1.24,3.69,1.91,.22-.4,.44-.7,.56-1.03,.49-1.35,.13-2.59-.69-3.65-.63-.82-1.43-1.54-2.22-2.22-1.07-.91-1.73-2.04-1.91-3.4-.14-1.06-.16-2.16-.09-3.23,.1-1.43,.1-2.83-.26-4.22-.37-1.44-1.55-2.65-2.85-2.8-.89-.1-1.64,.28-2.33,.75-1.92,1.3-3.92,1.94-6.2,1.02-.49-.2-1.02-.19-1.54,.1,.2,2.56-.46,4.97-1.32,7.28,.73,1,1.07,2.06,1.01,3.19-.06,1.17-.21,2.34-.47,3.48-.29,1.29-.74,2.53-1.15,3.88Zm-20.47,14.38c-.09,.32-.2,.57-.24,.83-.23,1.55-.4,3.12-.66,4.67-.24,1.42,.06,2.71,.78,3.91,.59,.98,1.19,1.96,1.92,2.83,1.06,1.28,2.23,2.48,3.38,3.68,2.32,2.43,4.42,5,5.79,8.11,1.32,3.01,3.49,5.08,6.71,6.08,1.82,.56,3.56,1.39,5.33,2.12,.75,.31,1.49,.6,2.33,.43,.98-.19,1.4-.59,1.58-1.55,.16-.89,.15-1.77-.09-2.66-.25-.89-.41-1.8-.63-2.7-.23-.93-.68-1.72-1.52-2.24-.84-.52-1.66-1.08-2.52-1.57-2.27-1.32-4.58-2.56-6.82-3.92-2.58-1.58-5.1-3.24-7.54-5.05-3.04-2.25-5.27-5-6.47-8.57-.48-1.42-.86-2.88-1.32-4.4Zm.59,22.02c-.06-.28-.07-.37-.1-.45-1.38-2.83-1.95-5.86-2.1-8.96-.11-2.25-.02-4.51,.09-6.76,.16-3.48,.76-6.87,2.5-10.06-.16-.18-.32-.4-.52-.57-.51-.44-1.06-.83-1.55-1.29-.49-.47-1.02-.65-1.68-.56-2.55,.32-4.99,.98-7.27,2.22-1.17,.64-2.12,1.47-2.92,2.51-.37,.48-.48,.94-.22,1.54,.59,1.32,1.46,2.42,2.54,3.36,.79,.69,1.63,1.35,2.32,2.13,.86,.97,1.66,2,2.36,3.08,.62,.97,.46,1.5-.37,2.28-.22,.21-.43,.42-.77,.74,1.53,.45,2.34,1.57,3.09,2.7,.61,.92,1.09,1.93,1.58,2.93,.45,.91,.79,1.88,1.24,2.79,.41,.82,.9,1.62,1.79,2.36Zm24.84,11.41c-1.24,0-2.22-.67-3.3-1.1-1.69-.68-3.42-1.26-5.11-1.92-.89-.35-1.79-.69-2.59-1.19-1.81-1.13-3.1-2.74-3.94-4.68-1.19-2.73-2.91-5.09-4.93-7.25-.61-.65-1.22-1.32-1.84-1.96-1.7-1.76-3.31-3.59-4.4-5.8-.05-.1-.14-.17-.35-.44-.03,.49-.08,.78-.06,1.07,.17,2,.31,4.01,.57,5.99,.31,2.39,1.12,4.62,2.49,6.61,1.91,2.77,4.15,5.23,6.82,7.29,1.98,1.53,4.17,2.67,6.66,3.1,.85,.15,1.72,.14,2.58,.24,1.68,.19,3.37,.41,5.05,.61,.84,.1,1.64,0,2.36-.58Zm-.57-49.13c.12,.12,.15,.19,.2,.21,.15,.04,.3,.07,.45,.08,2.29,.16,4.18,1.08,5.51,2.97,1,1.41,2.01,2.83,2.86,4.33,.98,1.74,3.25,3.09,5.8,2.26,1.08-.35,2.13-.82,3.2-1.22,.24-.09,.49-.11,.83-.18,.1,1.07-1.15,1.49-.83,2.64,.34,.2,.79,.5,1.27,.75,1.61,.85,3.31,1.59,4.21,3.37,.55-1.16,.67-3.05,.32-4.41-.57-2.23-1.88-3.94-3.74-5.22-1.02-.69-2.12-1.27-3.22-1.83-2.09-1.07-4.22-2.06-6.3-3.16-2.93-1.56-5.96-1.91-9.15-1-.46,.13-.91,.26-1.42,.4Zm17.44,9.59c-.77,.29-1.42,.56-2.09,.8-3.13,1.11-5.9-.41-7.16-2.81-.76-1.44-1.76-2.76-2.69-4.11-.53-.77-1.24-1.39-2.09-1.8-2.89-1.37-5.93-1.3-8.49,1.13-.46,.44-.9,.91-1.03,1.62,1.01,.03,1.97,0,2.91,.09,3.98,.41,7.68,1.44,10.99,3.93,3.36,2.53,6.22,5.34,7.84,9.3,.57,1.39,1.41,2.67,2.15,3.99,.11,.2,.31,.36,.51,.59,.44-.27,.85-.49,1.21-.76,1.43-1.05,2.43-2.45,3.2-4.03,.68-1.4,.58-2.03-.53-3.13-.3-.3-.66-.57-1.03-.78-.86-.49-1.73-.95-2.61-1.41-1.14-.59-1.31-.92-1.1-2.22,.01-.08,0-.17,.01-.39Zm-41.99,28.59c-.03-.11-.03-.19-.06-.22-1.48-1.3-2.31-3.02-3.11-4.78-.56-1.23-1.19-2.45-1.95-3.57-.61-.9-1.37-1.77-2.53-2.08-.21-.05-.37-.27-.66-.49,.65-.73,1.24-1.38,1.86-2.07-.35-.61-.62-1.16-.97-1.66-1.05-1.51-2.38-2.75-3.74-3.98-1.14-1.03-2.22-2.15-2.79-3.64-.03-.09-.1-.16-.15-.24-.07,0-.15,.02-.22,.02-.11,.66-.29,1.31-.32,1.97-.09,1.8,.68,3.32,1.71,4.7,.92,1.24,1.53,2.6,1.86,4.09,.36,1.6,.68,3.2,1.03,4.8,.74,3.38,2.78,5.58,6.07,6.62,.59,.19,1.18,.39,1.79,.47,.71,.1,1.43,.31,2.17,.06Zm2.82-50.62c-.3,.27-.48,.4-.64,.57-.69,.71-1.39,1.4-2.06,2.13-1.13,1.23-2.3,2.43-3.32,3.74-1.86,2.37-2.36,5.12-1.81,8.04,.17,.9,.6,1.75,.83,2.64,.62,2.38,2.3,3.92,4.12,5.44,.02-.16,.04-.25,.04-.34,0-.12-.03-.25-.06-.37-.46-2.19-.52-4.41-.3-6.63,.33-3.39,1.39-6.58,2.98-9.58,.52-.97,.86-1.89,.42-2.98-.12-.3-.07-.67-.1-1.01-.03-.49-.06-.98-.11-1.66Zm-12.58,2.98c-.34,.33-.56,.5-.73,.7-1.5,1.82-2.4,3.9-2.44,6.27-.05,2.41-.15,4.81-.42,7.2-.16,1.41,.12,2.78,.81,4.03,.16,.3,.49,.5,.85,.86,.04-.89-.04-1.61,.13-2.27,.36-1.4,.82-2.78,1.3-4.15,.81-2.31,1.2-4.66,.97-7.1-.15-1.6-.23-3.21-.35-4.81-.01-.18-.06-.35-.12-.73Zm-.57,19.81c2.41-.88,4.9-1.61,7.71-1.76-2.66-3.08-4.66-6.31-5.87-10.13-.12,.23-.21,.34-.22,.44-.13,2.29-.96,4.39-1.74,6.51-.28,.75-.53,1.53-.64,2.32-.12,.87-.27,1.8,.75,2.62Zm41.29-1.9c.11,.25,.14,.36,.2,.46,.84,1.28,1.32,2.71,1.77,4.16,.16,.53,.37,1.05,.58,1.56,1,2.36,2.76,4.06,4.78,5.56,1.07,.79,2.12,1.61,3.15,2.45,.45,.37,.83,.83,1.24,1.24-.03-.32-.11-.59-.27-.8-1.51-2.13-2.53-4.52-3.68-6.85-.76-1.54-1.7-2.97-2.98-4.11-1.34-1.19-2.78-2.26-4.18-3.37-.13-.1-.3-.15-.6-.29Zm4.97-22.55c-.09,1.33-.23,2.48-.24,3.64-.03,2.24,.47,4.26,2.43,5.72,.8,.59,1.38,1.48,2.06,2.23,.1,.12,.2,.24,.37,.46,.06-.26,.1-.37,.1-.49-.01-2.24-.45-4.36-1.85-6.18-1.02-1.33-1.84-2.77-2.38-4.37-.1-.31-.28-.59-.48-1.01Zm-4.16-4.74c-.7-.57-1.51-.7-2.34-.73-1.2-.03-2.4-.09-3.6-.07-1.51,.02-2.93,.35-4.05,1.58,.08,.28,.17,.56,.21,.7,1.06,.19,1.99,.33,2.92,.53,.74,.16,1.47,.2,2.18-.1,.62-.26,1.25-.51,1.84-.84,.89-.49,1.73-1.08,2.84-1.08Z" style="fill:#4c3f3e;"/></g><g><g><path d="M51.43,116.13c.3,1.7,.62,3.39,.88,5.09,.23,1.52,.26,3.09,.62,4.57,.66,2.76,.62,5.55,.71,8.34,.05,1.54,.13,3.09,.16,4.63,0,.45-.1,.9-.33,1.36-.04-.14-.12-.28-.12-.42-.02-1.17-.03-2.35-.05-3.53-.02-.83,.02-1.64-.27-2.46-.19-.56-.08-1.22-.09-1.84-.02-2.97-.29-5.91-.7-8.85-.32-2.28-.61-4.57-.92-6.86l.12-.04Z" style="fill:#a57c59;"/><path d="M33.95,152.6c-1.27,.01-2.53-.15-3.76-.61-3.75-1.4-6.88-3.74-9.74-6.48-.91-.87-1.7-1.87-2.46-2.9,.7,.66,1.43,1.29,2.1,1.97,2.62,2.67,5.56,4.9,8.97,6.47,.08,.04,.17,.03,.48,.09-1.51-1.17-2.87-2.22-4.22-3.27,.04-.06,.09-.12,.13-.18,.86,.64,1.7,1.31,2.59,1.9,.92,.62,1.87,1.21,2.86,1.72,.98,.5,2.03,.87,3.04,1.29Z" style="fill:#a57c59;"/><path d="M29.37,134.05c.62,1.6,1.18,3.11,1.78,4.61,1.87,4.66,4.56,8.77,8.24,12.2,.63,.59,1.33,1.11,2,1.66,.18,.15,.36,.3,.5,.51-.47,.03-.79-.27-1.12-.5-1.63-1.15-3.02-2.56-4.31-4.07-3.5-4.1-5.7-8.86-7.09-14.02-.02-.08,0-.18,0-.39Z" style="fill:#a57c59;"/><path d="M58.14,153.77c3.67-2.33,5.85-5.9,7.96-9.51,1.83-3.13,3.19-6.47,4.15-9.97,.03-.12,.1-.22,.19-.32-.48,2.08-1.07,4.12-1.91,6.09-1.67,3.91-3.75,7.59-6.51,10.85-1.07,1.26-2.3,2.3-3.88,2.86Z" style="fill:#a57c59;"/><path d="M57.69,122.02c-.32-2.66-.64-5.81-1.08-8.95-.44-3.12-1.36-6.15-2.2-9.18,1.61,1.8,3.71,13.12,3.29,18.13Z" style="fill:#a57c59;"/><path d="M60.62,148.51c.05-.09,.07-.17,.12-.23,3.36-4.15,5.49-8.91,7.04-13.97,1.02-3.3,1.77-6.66,2.27-10.08,.03-.21,.11-.42,.25-.61-.12,.87-.22,1.75-.37,2.62-.77,4.6-2,9.08-3.78,13.4-1.25,3.05-2.92,5.86-4.99,8.42-.12,.14-.24,.28-.37,.41-.03,.03-.1,.02-.18,.03Z" style="fill:#a57c59;"/><path d="M35.38,120.34c.26,.61,.59,1.2,.76,1.83,.66,2.41,1.29,4.82,1.88,7.24,.54,2.21,1,4.43,1.45,6.66-1.58-5.18-2.52-10.54-4.4-15.64,.1-.03,.2-.07,.31-.1Z" style="fill:#a57c59;"/><path d="M50.07,141.3c.39,2.25,.23,4.73,.2,7.2-.02,1.48-.17,2.96-.72,4.36-.2,.51-.46,1.01-.78,1.46-.37,.53-.91,.64-1.55,.31,1.16-.15,1.58-1.03,1.84-1.94,.31-1.09,.62-2.21,.69-3.33,.18-2.74,.22-5.49,.32-8.06Z" style="fill:#a57c59;"/><path d="M43.68,132.64c1.5,5.55,2.11,11.22,1.89,16.98-.24-5.7-.81-11.36-1.89-16.98Z" style="fill:#a57c59;"/><path d="M85.05,141.33c3.04-.22,6.17,.13,9.25,1.05,.62,.18,1.21,.47,1.79,.75,.24,.12,.43,.34,.58,.64-1.86-.92-3.82-1.4-5.81-1.72-1.97-.32-3.97-.5-5.8-.72Z" style="fill:#a57c59;"/><path d="M16.85,135.86c-2.45-2.77-3.95-6.04-5.58-9.34,.55-.12,.62,.24,.75,.48,.58,1.09,1.12,2.2,1.72,3.29,1.02,1.86,2.07,3.71,3.11,5.58Z" style="fill:#a57c59;"/><path d="M35.12,143.91c2.53,3.47,4.88,7.05,8.59,9.44-.04,.06-.07,.12-.11,.18-.26-.14-.54-.27-.79-.43-1.35-.89-2.58-1.94-3.55-3.22-1.34-1.77-2.57-3.62-3.84-5.43-.11-.16-.2-.35-.29-.53Z" style="fill:#a57c59;"/><path d="M75.55,118.67c.81-3.68,1.64-7.45,2.47-11.21,.03-.01,.06-.02,.1-.03,.01,.33,.08,.68,.03,1-.58,3.44-1.38,6.81-2.51,10.11-.03,.08-.09,.14-.09,.13Z" style="fill:#a57c59;"/><path d="M79.21,140.84c-4.92,1.41-8.92,4.23-12.35,7.95,1.32-2.83,8.23-7.28,12.35-7.95Z" style="fill:#a57c59;"/><path d="M44.94,122.26c1.07,1.25,2.15,6.77,1.94,9.3-.44-3.11-1.13-6.21-1.94-9.3Z" style="fill:#a57c59;"/><path d="M65.98,125.11c.59-2.97,1.18-5.94,1.78-8.9,0-.02,.11-.02,.29-.06,.04,1.05-.24,2.03-.45,3.01-.22,1.02-.43,2.04-.68,3.05-.25,1-.55,1.99-.84,2.99-.04-.03-.07-.06-.11-.1Z" style="fill:#a57c59;"/><path d="M19.38,108.54c.23,.29,.54,.55,.69,.88,1.2,2.67,2.37,5.36,3.55,8.04,.04,.08,.05,.17-.01,.3-1.43-3.05-2.87-6.1-4.3-9.14,.02-.03,.05-.05,.07-.08Z" style="fill:#a57c59;"/><path d="M55.93,152.27c2.71-2.42,4.75-5.37,6.92-8.21-1.96,3.04-3.98,6.02-6.92,8.21Z" style="fill:#a57c59;"/><path d="M52.15,134.91c-.17-2.87-.34-5.62-.5-8.36,.05,0,.1-.01,.15-.02,.18,1.84,.38,3.68,.52,5.53,.06,.82,.02,1.65,0,2.48,0,.1-.09,.19-.18,.37Z" style="fill:#a57c59;"/><path d="M42.05,116.45c-.78-1.77-1.27-3.59-1.18-5.54,.51,.84,.5,1.81,.69,2.73,.19,.93,.33,1.87,.49,2.81Z" style="fill:#a57c59;"/><path d="M42.22,106.6c.05,1.97,.11,3.94,.16,6.05-.41-2.09-.7-4.04-.54-6.03,.12,0,.25-.01,.37-.02Z" style="fill:#a57c59;"/><path d="M88.47,140.51c2.06,.12,4.14,.16,5.93,1.39-1.98-.46-3.95-.92-5.93-1.39Z" style="fill:#a57c59;"/><path d="M10.07,125.72c.62,1.31,1.23,2.62,1.9,4.04-1.06-1.1-2.14-3.25-1.9-4.04Z" style="fill:#a57c59;"/><path d="M75.98,112.15c.27-1.49,.55-2.98,.83-4.52,.34,.69-.07,2.94-.83,4.52Z" style="fill:#a57c59;"/><path d="M20.67,108.67c.6,1.29,1.2,2.58,1.81,3.87-.07,.03-.14,.07-.21,.1-.62-1.28-1.25-2.55-1.87-3.83,.09-.05,.18-.09,.27-.14Z" style="fill:#a57c59;"/><path d="M37.54,123.68c-.33-.96-.66-1.92-.99-2.88,.07-.02,.14-.04,.2-.07,.53,.88,.64,1.91,.78,2.95Z" style="fill:#a57c59;"/></g><path d="M53.1,257.57c.14-2.97,.25-5.93,.42-8.9,.1-1.79-.47-3.42-1.05-5.04-.75-2.11-1.74-4.12-3.06-5.92-2.88-3.95-6.1-7.55-10.6-9.76-2.6-1.27-5.37-2.04-8.16-2.72-3.52-.86-7.03-1.77-10.26-3.44-3.24-1.68-6.42-3.47-9.63-5.21-.13-.07-.23-.19-.43-.36,.24-.1,.39-.19,.54-.21,.11-.01,.24,.06,.35,.1,2.12,.86,4.33,.9,6.57,.83,1.89-.06,3.77-.08,5.66-.06,3.39,.04,6.59,.94,9.74,2.11,6.93,2.57,11.55,7.59,15.11,13.88,2,3.55,3.43,7.31,4.82,11.1,.06,.17,.14,.33,.29,.69,.06-.36,.11-.55,.11-.73-.07-4.27-.09-8.54-.26-12.81-.14-3.64-.47-7.28-.71-10.92-.25-3.86-.53-7.71-.74-11.57-.16-2.96-.34-5.94-.31-8.9,.03-2.93,.28-5.87,.49-8.79,.22-2.9,.52-5.79,.78-8.68,.23-2.49,.49-4.98,.67-7.48,.1-1.48,.09-2.97,.09-4.46,0-2.11,0-4.21-.06-6.31-.04-1.48-.21-2.96-.28-4.44-.03-.61-.26-1.26,.34-1.84,.09,.59,.23,1.17,.27,1.76,.36,4.35,.5,8.71,.37,13.08-.07,2.28-.3,4.56-.49,6.84-.18,2.25-.39,4.49-.61,6.74-.21,2.28-.46,4.55-.66,6.83-.11,1.26-.21,2.53-.23,3.8-.04,2.57-.07,5.14,0,7.71,.09,2.94,.31,5.87,.48,8.8,.07,1.3,.16,2.59,.24,3.89,.01,.23,.05,.46,.24,.7,.1-.69,.21-1.37,.31-2.06,.52-3.56,1.96-6.75,3.85-9.76,.43-.68,.91-1.33,1.34-2.01,1.08-1.69,2.16-3.38,3.22-5.08,1.34-2.15,2.12-4.52,2.77-6.95,.45-1.67,.98-3.32,1.58-4.94,1.44-3.9,3.84-7.19,6.73-10.14,1.36-1.39,2.76-2.75,4.15-4.12,2.31-2.28,4.62-4.57,6.95-6.84,.53-.52,1.1-.99,1.69-1.45,.24-.19,.57-.27,.86-.39,.36,.57,.03,.94-.13,1.31-.95,2.18-1.98,4.33-2.88,6.54-1.32,3.24-2.13,6.65-3.02,10.02-.58,2.18-1.22,4.34-1.87,6.5-1.26,4.18-3.56,7.71-6.62,10.81-1.92,1.95-3.98,3.69-6.14,5.34-1.79,1.37-3.57,2.79-5.18,4.36-3.25,3.17-5.55,6.95-6.81,11.33-.48,1.67-.65,3.38-.37,5.14,.15,.97,.18,1.97,.21,2.96,.09,2.5,.17,5.01,.22,7.52,.08,3.9,.18,7.8,.16,11.7-.01,2.75-.21,5.5-.32,8.25-.02,.56,0,1.11-.01,1.67h-.74Zm1.06-40.15c.06,.02,.13,.05,.19,.07,.14-.29,.3-.58,.43-.87,1.51-3.2,3.45-6.09,6.08-8.47,1.51-1.37,3.1-2.66,4.71-3.91,1.95-1.52,3.9-3.01,5.62-4.82,2.44-2.58,4.81-5.2,6.03-8.6,.9-2.5,1.79-5.01,2.43-7.58,1.5-5.98,3.22-11.87,6.01-17.41,.06-.13,.09-.27,.14-.4-.34,.09-.59,.26-.77,.48-.38,.49-.77,.98-1.07,1.51-2.18,3.89-4.44,7.73-6.2,11.83-2.3,5.36-4.92,10.55-8.35,15.28-2.43,3.35-5.08,6.55-7.63,9.81-.76,.97-1.58,1.91-2.32,2.9-2.1,2.78-3.92,5.71-4.99,9.06-.12,.37-.21,.75-.32,1.12Zm23.64-39.32c-.05-.03-.11-.07-.16-.1-1.9,2.19-4.24,3.88-6.42,5.76-3.1,2.68-5.21,6-6.46,9.89-.46,1.44-.99,2.87-1.67,4.21-1.15,2.26-2.39,4.47-3.96,6.48-.45,.59-.85,1.22-1.25,1.84-1.6,2.48-2.87,5.12-3.59,8-.12,.5-.19,1.01-.29,1.51,.21-.09,.29-.22,.34-.35,.97-2.64,2.33-5.06,4.02-7.29,2.03-2.69,4.08-5.37,6.25-7.94,5.49-6.52,9.72-13.78,13.05-21.6,.06-.13,.1-.27,.14-.41Zm-29.01,57.37s.08-.08,.12-.11c-.26-.48-.51-.96-.77-1.44-.5-.92-.97-1.87-1.52-2.76-3.17-5.14-7.31-9.16-13.01-11.44-4.22-1.68-8.56-2.63-13.12-2.42-1.79,.08-3.59,.1-5.38,.11-.51,0-1.01-.08-1.72-.14,.27,.18,.36,.27,.47,.31,1.35,.52,2.69,1.09,4.07,1.54,1.23,.4,2.49,.73,3.76,.95,2.58,.46,5.18,.81,7.73,1.49,7.95,2.1,14.37,6.34,18.88,13.31,.14,.22,.33,.41,.5,.61Zm34.38-67.62s-.06-.04-.09-.07c-1.04,1.01-2.09,2.01-3.11,3.03-2.69,2.68-5.43,5.33-8.04,8.08-2.41,2.54-4.16,5.52-5.36,8.81-.1,.29-.19,.58-.28,.87,.24-.08,.33-.2,.41-.33,1.33-2.11,2.96-3.95,4.9-5.53,.96-.78,1.91-1.57,2.86-2.36,2.16-1.8,3.94-3.91,5.31-6.38,1.07-1.95,2.18-3.88,3.27-5.82,.06-.1,.09-.21,.14-.32ZM17.65,219.59c2.27,1.48,4.65,2.67,7.2,3.45,2.66,.81,5.34,1.53,8.04,2.21,4.84,1.23,9.15,3.37,12.67,6.98,.08,.08,.17,.15,.26,.22-.7-1.1-1.56-2.06-2.51-2.93-4.59-4.21-10.01-6.76-16.07-8.02-2.14-.45-4.32-.72-6.47-1.12-1.05-.2-2.08-.52-3.12-.79Z" style="fill:#a57c59;"/><path d="M35.31,115.49c.14-.64,.21-1.19,.39-1.71,.42-1.28,1.14-2.23,2.61-2.45,.87-.13,1.66-.74,2.64-.41,.16-1.06,.29-2.09,.47-3.12,.09-.48,.23-.96,.41-1.42,.5-1.25,1.36-2.11,2.71-2.45,2.66-.69,5.37-.86,8.1-.64,.62,.05,1.24,.09,1.85,.18,1.65,.26,2.92,1.15,3.92,2.44,1.92,2.49,3.15,5.31,3.76,8.39,.47,2.34,.74,4.7,.59,7.1,0,.15,0,.3,.12,.51,.11-.19,.21-.38,.32-.56,.55-.93,1.07-1.88,1.67-2.78,.48-.73,1.12-1.29,1.96-1.65,.42-.18,.79-.61,1.03-1.02,.45-.77,.81-1.6,1.19-2.41,.42-.9,.79-1.81,1.24-2.7,.97-1.9,2.54-3.01,4.64-3.3,1.91-.26,3.77-.65,5.55-1.41,1.21-.52,2.45-.58,3.7-.07,1.29,.52,1.63,1.27,1.12,2.57-.11,.28-.28,.55-.45,.81-.33,.52-.63,1.07-1.02,1.55-2.09,2.56-3.43,5.5-4.4,8.63-1.45,4.66-2.89,9.33-4.78,13.85-1.3,3.11-2.68,6.18-4.03,9.27-.16,.37-.35,.72-.45,1.17,.18-.17,.37-.33,.55-.5,2.64-2.49,5.52-4.59,9.12-5.48,3.24-.81,6.44-.62,9.6,.39,1.73,.55,3.28,1.47,4.57,2.76,1.23,1.24,2.63,2.24,4.1,3.18,1.17,.75,2.28,1.6,3.3,2.54,.59,.55,1.02,1.32,1.35,2.07,.36,.82,0,1.37-.89,1.39-.69,.02-1.4-.16-2.07-.34-2.32-.64-4.61-1.42-6.95-1.97-4.13-.96-8.32-1.13-12.54-.73-6.37,.6-12.31,2.59-18,5.43-1.18,.59-2.41,1.1-3.61,1.66-.61,.29-1.23,.59-1.81,.93-1.57,.93-2.56,2.28-2.95,4.09-.07,.35,.05,.96-.74,.93-.13-.22-.29-.47-.43-.74-1.34-2.67-3.67-3.95-6.47-4.46-3.46-.63-6.96-1.07-10.42-1.7-4.11-.75-8.14-1.82-12.06-3.3-4.23-1.6-7.81-4.12-10.73-7.57-2.01-2.37-3.81-4.89-5.13-7.71-.77-1.65-1.45-3.35-1.73-5.17-.17-1.09-.09-2.16,.31-3.2,.45-1.17,1.28-1.57,2.51-1.28,.99,.23,1.84,.73,2.61,1.36,.57,.47,1.11,.98,1.64,1.51,1.06,1.07,2.26,1.89,3.68,2.44,1.82,.71,3.56,1.63,5.07,2.88,1.14,.94,2.15,2.03,3.22,3.06,.19,.18,.38,.36,.61,.58,0-.16,.03-.22,0-.27-1.62-3.55-2.74-7.29-4.06-10.95-1.18-3.29-2.6-6.48-4.1-9.65-.7-1.48-1.39-2.97-1.6-4.63-.29-2.29,1.58-4.03,3.79-3.38,1.04,.31,1.97,.99,2.94,1.5,.08,.04,.15,.11,.22,.18,2.81,2.81,6.36,4.21,10.11,5.19,.71,.19,1.41,.37,2.16,.57Zm18.58,34.28c-.15-4.12-.36-7.86-1-11.55-.68-3.95-1.89-7.72-3.66-11.34-1.18-2.41-3.01-3.95-5.46-4.85-.49-.18-.99-.39-1.5-.47-2.2-.33-4.4-.65-6.6-.92-3.77-.47-6.91-2.04-9.2-5.13-.68-.92-1.31-1.87-1.99-2.8-.45-.62-.92-1.24-1.42-1.83-.87-1.04-1.94-1.75-3.23-2.24-1.29-.48-3.38,.38-3.21,2.22,.04,.43,.03,.88,.17,1.28,.49,1.36,.97,2.74,1.59,4.05,1.82,3.83,3.43,7.74,4.79,11.76,.74,2.2,1.49,4.39,2.35,6.54,1.27,3.18,2.99,6.11,5.06,8.83,3.94,5.16,8.9,8.9,15.2,10.72,1.84,.53,3.69,1.03,5.63,1.04,1.32,0,2.14-.75,2.25-2.07,.1-1.2,.16-2.4,.22-3.23Zm.53-.7c.05,.02,.1,.04,.15,.06,.25-.37,.56-.72,.74-1.12,1.14-2.44,2.33-4.85,3.34-7.34,1.16-2.84,2.01-5.77,2.32-8.85,.18-1.78,.43-3.56,.69-5.33,.13-.88,.47-1.75,.52-2.63,.23-3.66,.06-7.29-.92-10.86-.67-2.44-1.76-4.68-3.3-6.69-1.02-1.34-2.35-2.19-4.04-2.37-.98-.11-1.98-.24-2.96-.2-1.67,.06-3.34,.15-4.99,.41-2.66,.41-3.56,1.34-4.12,4.04-.17,.84-.23,1.71-.34,2.57-.05,.39,.02,.82-.45,1.11-.26-.17-.53-.35-.84-.55-.84,.24-1.71,.46-2.55,.76-.33,.12-.65,.37-.87,.65-.66,.85-.94,1.85-.96,2.97,.53,.19,1.02,.36,1.51,.54,5.8,2.08,10.16,5.8,12.83,11.4,1.31,2.75,2.24,5.62,2.86,8.6,.83,3.98,1.18,8.01,1.3,12.06,0,.26,.04,.53,.05,.79Zm30.42-41.91c-1.07-.94-2.34-1.21-3.84-.65-1.98,.74-3.99,1.26-6.09,1.55-1.91,.26-3.38,1.3-4.2,3.11-.44,.96-.87,1.92-1.31,2.87-.34,.73-.69,1.45-1.07,2.16-.33,.61-.82,1.04-1.47,1.35-.45,.21-.91,.57-1.19,.98-.44,.66-.8,1.39-1.06,2.14-.67,1.94-.91,3.97-.94,6.02-.03,2.04,.05,4.09-.02,6.13-.05,1.73-.14,3.46-.39,5.17-.49,3.31-1.9,6.2-4.48,8.41-1.01,.87-2.11,1.61-3.13,2.46-.46,.39-1.09,.85-1.18,1.36-.18,1.08-.13,2.22-.02,3.32,.07,.69,.57,.96,1.28,.94,.24,0,.49-.06,.73-.12,3.37-.92,6.39-2.46,8.9-4.93,1.61-1.58,2.83-3.43,3.89-5.4,1.85-3.43,3.4-7,4.81-10.63,1.75-4.53,3.3-9.12,4.72-13.76,1.01-3.31,2.42-6.42,4.64-9.12,.37-.45,.71-.94,1.01-1.44,.33-.56,.61-1.15,.41-1.9Zm-41.24,46.94c.02-.06,.03-.12,.05-.17-.42-.14-.84-.29-1.26-.43-1.9-.64-3.85-1.16-5.7-1.93-3.9-1.64-7.25-4.11-10.23-7.09-2.66-2.66-4.8-5.74-6.98-8.78-.43-.6-.82-1.24-1.28-1.82-.92-1.16-1.79-2.37-2.82-3.41-1.15-1.16-2.45-2.16-3.69-3.23-.83-.71-1.71-1.33-2.79-1.6-.96-.24-1.54,.03-1.9,.97-.34,.88-.44,1.79-.31,2.73,.26,1.83,.93,3.53,1.73,5.16,1.89,3.87,4.42,7.29,7.61,10.21,3,2.75,6.58,4.46,10.42,5.69,4.48,1.43,9.06,2.43,13.7,3.18,1.15,.18,2.3,.36,3.45,.55Zm58.81-4.5c-.15-.5-.18-.89-.37-1.16-.4-.58-.81-1.19-1.34-1.64-.92-.78-1.89-1.51-2.91-2.15-1.48-.92-2.88-1.92-4.11-3.16-1.26-1.28-2.77-2.19-4.48-2.74-4.08-1.31-8.12-1.24-12.02,.62-3.63,1.74-6.65,4.26-9.03,7.54-.67,.92-1.43,1.78-2.16,2.67-.13,.16-.26,.31-.39,.47,.37-.04,.65-.19,.92-.36,1.52-1.01,3-2.08,4.55-3.05,3.79-2.35,7.76-4.21,12.28-4.68,3.49-.37,6.72,.24,9.63,2.22,1.12,.77,2.18,1.63,3.21,2.52,1.56,1.34,3.41,2.1,5.31,2.76,.2,.07,.42,.06,.88,.13Zm-34.38-.34c.03,.07,.06,.15,.09,.22,3.16-1.16,6.39-2.06,9.71-2.59,3.34-.53,6.71-.55,10.08-.3,3.34,.25,6.58,1.01,9.79,1.91-1.45-1.2-2.89-2.36-4.37-3.48-1.47-1.11-3.11-1.89-4.91-2.31-2.72-.63-5.41-.36-8.07,.32-3.6,.92-6.86,2.62-9.96,4.63-.8,.52-1.58,1.06-2.37,1.6Zm-29.47,2.47c.02-.05,.05-.1,.07-.16-.18-.14-.35-.3-.54-.43-3.79-2.51-6.87-5.73-9.39-9.51-.92-1.39-1.88-2.77-3-4-1.37-1.5-2.83-2.94-4.41-4.21-1.14-.92-2.54-1.52-3.83-2.25-.14-.08-.33-.08-.56-.14,.06,.17,.08,.26,.13,.33,1.37,1.9,2.75,3.8,4.13,5.7,1.89,2.61,3.8,5.2,6.13,7.43,3.01,2.89,6.36,5.3,10.26,6.88,.33,.13,.67,.23,1.01,.34Zm7.36-29.16s.05-.09,.08-.14c-.12-.14-.24-.28-.37-.41-2.17-2.12-4.61-3.85-7.48-4.89-1.74-.63-3.52-1.17-5.29-1.7-2.76-.83-5.52-1.65-7.9-3.35-.05-.03-.14,0-.36,0,.95,1.26,1.78,2.45,2.69,3.58,1.56,1.94,3.54,3.31,5.95,3.9,1.82,.45,3.7,.7,5.56,.92,2.35,.28,4.65,.67,6.73,1.9,.13,.07,.26,.13,.4,.19Zm10.22,25.11c2.72-1.71,4.83-3.93,5.9-7.01,.74-2.12,1.04-4.33,1.1-6.56,.06-2.26,0-4.52,.02-6.78,0-.86,.07-1.73,.15-2.59,.09-.91,.23-1.82,.35-2.72-.18,.15-.29,.33-.36,.51-.7,1.76-1.08,3.6-1.32,5.48-.27,2.14-.46,4.31-.87,6.43-.72,3.72-2.12,7.23-3.71,10.66-.4,.87-.84,1.72-1.26,2.58Z" style="fill:#a57c59;"/></g></svg>