<?xml version="1.0" encoding="UTF-8"?><svg id="OBJECTS" xmlns="http://www.w3.org/2000/svg" viewBox="0 0 317.44 397.26"><path d="M238.19,153.25c-1.62,5.45-3.96,10.61-6.55,15.66-11.8,22.99-25.81,44.55-42,64.69-11.99,14.91-24.56,29.33-38.37,42.59-16.38,15.73-33.83,30.23-52.27,43.5-5.47,3.94-11.24,7.47-16.85,11.22-5.7,3.81-11.35,7.71-17.09,11.45-5.44,3.55-10.03,8.03-14.41,12.73-2.98,3.2-5.72,6.61-8.59,9.92-7.24,8.36-15.39,15.77-23.91,22.77-4.67,3.84-9.45,7.55-14.17,11.33-.44,.36-.81,.81-1.22,1.22H1.15c2.7-2.14,5.42-4.28,8.11-6.43,9.5-7.59,18.82-15.37,27.29-24.12,5.89-6.08,10.7-12.98,15.76-19.72,5.07-6.74,9.06-14.05,12.42-21.72,3.06-6.97,5.89-14.03,8.74-21.08,5.67-14.07,11.65-27.99,19.11-41.24,6.21-11.03,13.14-21.58,20.92-31.56,10.04-12.88,21.86-23.86,35.34-33.09,16.12-11.05,32.05-22.38,47.82-33.95,9.75-7.15,19.7-14.04,30.2-20.09,2.71-1.56,5.55-2.89,8.34-4.31,.33-.17,.68-.32,1.04-.44,2.04-.7,3.33,.14,3.4,2.28,.1,2.89-.63,5.67-1.45,8.41Z" style="fill:#f5f5f5; opacity:.51;"/><path d="M239.64,144.83c-.07-2.14-1.36-2.98-3.4-2.28-.36,.12-.71,.27-1.04,.44-2.78,1.43-5.63,2.75-8.34,4.31-10.5,6.04-20.44,12.94-30.2,20.09-15.77,11.56-31.7,22.89-47.82,33.95-13.48,9.23-25.3,20.21-35.34,33.09-7.78,9.98-14.71,20.53-20.92,31.56-7.46,13.25-13.44,27.17-19.11,41.24-2.84,7.06-5.68,14.12-8.74,21.08-3.36,7.67-7.35,14.97-12.42,21.72-5.07,6.73-9.87,13.64-15.76,19.72-8.48,8.75-17.79,16.54-27.29,24.12-2.7,2.16-5.41,4.29-8.11,6.43h1.62c.4-.41,.77-.86,1.22-1.22,4.72-3.78,9.5-7.5,14.17-11.33,8.52-7,16.67-14.41,23.91-22.77,2.87-3.3,5.61-6.72,8.59-9.92,4.39-4.7,8.98-9.18,14.41-12.73,5.74-3.75,11.38-7.65,17.09-11.45,5.61-3.75,11.38-7.28,16.85-11.22,18.44-13.27,35.88-27.77,52.27-43.5,13.81-13.26,26.38-27.67,38.37-42.59,16.19-20.14,30.2-41.71,42-64.69,2.59-5.05,4.93-10.21,6.55-15.66,.82-2.74,1.55-5.52,1.45-8.41Zm-2.71,9.65c-2.39,7.26-5.89,14.03-9.52,20.71-13.49,24.8-29.48,47.88-47.89,69.3-9.58,11.15-19.37,22.1-30.04,32.22-16.25,15.39-33.39,29.74-51.63,42.73-7.12,5.07-14.57,9.67-21.85,14.53-4.44,2.97-8.9,5.93-13.21,9.08-2.87,2.09-5.51,4.51-8.25,6.78-.2,.17-.41,.34-.61,.51-.07-.06-.15-.13-.22-.19,.15-.27,.28-.55,.46-.81,6.21-9.1,10.87-18.99,15.04-29.15,4.78-11.68,9.45-23.42,14.62-34.93,8.46-18.85,19.19-36.36,32.13-52.49,9.84-12.27,21.46-22.59,34.44-31.46,15.97-10.9,31.68-22.15,47.27-33.59,9.32-6.84,18.83-13.41,28.82-19.23,2.98-1.74,6.09-3.25,9.18-4.8,.73-.36,1.59-.44,2.19-.6,.94,.66,.94,1.37,.94,2.08,.02,3.23-.88,6.29-1.87,9.31Z" style="fill:#303030;"/><path d="M49.61,355.67c-.31-1.49,.57-2.04,1.13-2.72,1.52-1.82,3.14-3.56,4.62-5.42,.97-1.22,1.82-2.55,2.59-3.91,.51-.92,.71-2,1.16-2.96,.87-1.85,1.87-3.65,2.74-5.5,2.89-6.14,5.83-12.27,8.61-18.47,5.25-11.69,11.57-22.79,18.14-33.76,6.19-10.33,12.71-20.46,20.18-29.92,9.56-12.11,20.19-23.22,31.62-33.58,10.37-9.4,21.11-18.35,31.86-27.3,10.33-8.61,20.51-17.39,30.67-26.2,5.97-5.18,12.42-9.7,18.91-14.17,1.07-.73,2.11-1.51,3.18-2.23,1.78-1.21,3.53-2.51,5.39-3.58,1.81-1.05,3.76-1.87,5.92-2.92-.37,.37-.53,.6-.74,.74-13.35,8.93-24.74,20-35.25,32.06-13.87,15.93-27.81,31.8-42.96,46.54-8.86,8.63-17.95,17.03-26.95,25.5-11.02,10.37-21.63,21.14-31.64,32.49-9.17,10.4-17.38,21.49-24.08,33.66-3.66,6.66-7.1,13.44-10.66,20.16-1.44,2.72-2.93,5.4-4.4,8.11-.23,.42-.45,.83-.54,1.39,.14-.1,.32-.19,.43-.32,8.42-9.71,17.01-19.28,25.19-29.19,8.94-10.83,17.53-21.93,26.19-32.98,12.53-15.99,26.36-30.75,41.63-44.14,10.84-9.5,21.83-18.84,32.73-28.29,11.93-10.34,23.44-21.11,34.17-32.7,7.31-7.9,13.5-16.56,17.5-26.63,.77-1.94,1.41-3.92,2.1-5.86,.32,.77,.03,1.64-.26,2.44-1.04,2.77-2.04,5.57-3.28,8.25-3.57,7.71-8.5,14.51-14.16,20.81-8.05,8.98-16.64,17.43-25.65,25.43-10.17,9.04-20.59,17.8-30.87,26.72-11.8,10.23-23.4,20.67-34.13,32.04-8.64,9.16-16.44,19.04-24.28,28.89-9.28,11.66-18.53,23.35-28.04,34.82-6.89,8.31-14.2,16.28-21.32,24.4-1.85,2.11-3.66,4.25-5.51,6.36-.56,.64-1.2,1.2-1.95,1.96ZM223.81,151.64c-.08-.09-.17-.17-.25-.26-.88,.61-1.75,1.22-2.63,1.83-6.65,4.54-13.07,9.36-19.11,14.7-7.32,6.48-14.7,12.88-22.19,19.16-13.28,11.13-26.77,22.02-39.55,33.74-16.23,14.89-30.79,31.17-42.76,49.71-10.49,16.24-20.22,32.9-28.04,50.61-.27,.61-.49,1.23-.73,1.85,.44-.21,.64-.52,.82-.85,1.99-3.58,3.97-7.17,5.98-10.74,6.45-11.43,14.3-21.85,22.95-31.68,11.79-13.39,24.46-25.91,37.55-38.02,9.67-8.95,19.27-17.98,28.48-27.4,12.8-13.1,24.8-26.93,36.94-40.63,5.49-6.19,11.15-12.2,17.41-17.62,1.71-1.48,3.42-2.94,5.13-4.41Z" style="fill:#303030;"/><path d="M237.8,152.83c-.3,.78-.53,1.6-.92,2.34-2.17,4.1-4.31,8.21-6.6,12.24-4.57,8.08-9.22,16.13-14.73,23.61-5.31,7.21-10.91,14.22-16.52,21.2-10.69,13.32-22.15,25.97-33.71,38.52-9.48,10.29-18.47,21.01-27.2,31.94-7.48,9.36-15.88,17.8-25.22,25.32-3.49,2.81-6.83,5.81-10.24,8.72-.2,.17-.41,.34-.82,.31,.48-.44,.94-.9,1.43-1.32,4.87-4.28,9.73-8.56,14.62-12.82,7.93-6.91,14.94-14.67,21.48-22.89,9.35-11.76,19.27-23.02,29.38-34.13,7.85-8.63,15.5-17.43,23.24-26.16,.27-.3,.47-.67,.53-1.17-.22,.17-.46,.32-.65,.52-9.59,10.15-20.05,19.36-30.69,28.36-12.45,10.54-23.7,22.23-34.17,34.71-8.33,9.93-16.78,19.76-25.39,29.45-5.05,5.69-10.74,10.78-16.5,15.78-6.66,5.79-14.14,10.37-21.37,15.34-.09,.06-.19,.09-.41,.03,.23-.22,.44-.48,.69-.66,2.81-2.01,5.63-4,8.44-6,12.49-8.91,23.84-19.08,33.81-30.77,9.54-11.17,19.05-22.37,28.66-33.48,7.54-8.72,15.93-16.59,24.67-24.1,8.77-7.53,17.59-15.01,25.75-23.21,13.06-13.11,25.33-26.9,35.33-42.54,5.99-9.36,11.68-18.9,16.6-28.88,.06-.13,.2-.23,.3-.34,.07,.03,.13,.05,.2,.08Z" style="fill:#303030;"/><path d="M83.58,98.57c-.41,5.92-1.2,11.82-1.64,17.74-.45,6.02-.82,12.06-.97,18.1-.24,9.17-.4,18.36-.33,27.53,.06,7.93,.52,15.86,.74,23.79,.12,4.1,.14,8.2,.16,12.31,.02,3.51,.07,7.02-.04,10.52-.14,4.53-.3,9.06-.67,13.57-.91,11.07-3.1,21.89-6.59,32.44-4.16,12.56-8.53,25.05-12.6,37.63-2.91,9-6.05,17.91-9.75,26.61-2.7,6.36-5.65,12.62-8.53,18.9-1.46,3.19-3.06,6.32-4.56,9.49-.72,1.51-1.37,3.05-2.04,4.59-2.02,4.65-3.97,9.34-6.07,13.96-3.76,8.28-8.79,15.73-14.84,22.51-.86,.97-1.71,1.95-2.58,2.91-.33,.37-.71,.69-1.06,1.04-.12-.11-.24-.22-.36-.32,.31-.4,.61-.79,.93-1.18,2.38-2.94,4.85-5.81,7.12-8.83,7.87-10.46,13.18-22.13,16.31-34.81,2.58-10.46,3.01-21.03,1.45-31.66-1.25-8.54-2.77-17.05-4.09-25.58-.95-6.13-1.71-12.28-2.04-18.49-.28-5.4-.36-10.78-.18-16.18,.22-7.03,1.27-13.96,2.7-20.84,1.8-8.69,4.39-17.15,6.88-25.65,3.67-12.48,7.61-24.9,9.93-37.73,1.14-6.32,2.07-12.68,3.14-19.02,.97-5.75,1.91-11.5,3.03-17.22,1.26-6.46,2.53-12.93,4.11-19.32,2.15-8.67,5.32-16.99,9.44-24.94,1.25-2.4,2.68-4.72,4.72-6.53,.91-.81,1.97-1.54,3.08-2.03,1.72-.76,3.27-.18,4.03,1.56,.6,1.37,1.14,2.87,1.2,4.33,.16,3.6,.21,7.23-.04,10.83Z" style="fill:#f5f5f5; opacity:.51;"/><path d="M83.61,87.74c-.06-1.46-.61-2.96-1.2-4.33-.76-1.74-2.3-2.32-4.03-1.56-1.11,.49-2.17,1.22-3.08,2.03-2.04,1.82-3.47,4.13-4.72,6.53-4.11,7.94-7.29,16.27-9.44,24.94-1.58,6.39-2.85,12.85-4.11,19.32-1.11,5.72-2.06,11.47-3.03,17.22-1.07,6.34-2,12.7-3.14,19.02-2.32,12.83-6.27,25.25-9.93,37.73-2.5,8.5-5.09,16.96-6.88,25.65-1.43,6.88-2.48,13.81-2.7,20.84-.18,5.39-.1,10.78,.18,16.18,.33,6.21,1.09,12.36,2.04,18.49,1.32,8.53,2.84,17.04,4.09,25.58,1.56,10.63,1.13,21.2-1.45,31.66-3.13,12.69-8.44,24.36-16.31,34.81-2.27,3.02-4.75,5.89-7.12,8.83-.32,.39-.62,.79-.93,1.18,.12,.11,.24,.21,.36,.32,.35-.35,.73-.67,1.06-1.04,.87-.96,1.71-1.95,2.58-2.91,6.05-6.78,11.08-14.23,14.84-22.51,2.1-4.62,4.05-9.31,6.07-13.96,.67-1.54,1.32-3.08,2.04-4.59,1.5-3.17,3.1-6.3,4.56-9.49,2.89-6.28,5.83-12.54,8.53-18.9,3.69-8.7,6.84-17.61,9.75-26.61,4.07-12.58,8.44-25.07,12.6-37.63,3.49-10.54,5.68-21.37,6.59-32.44,.37-4.51,.53-9.05,.67-13.57,.11-3.5,.06-7.01,.04-10.52-.02-4.1-.04-8.21-.16-12.31-.22-7.93-.68-15.86-.74-23.79-.07-9.18,.09-18.36,.33-27.53,.15-6.04,.52-12.07,.97-18.1,.44-5.92,1.23-11.81,1.64-17.74,.25-3.59,.19-7.22,.04-10.83Zm-.73,3.08c-.15,4.04-.44,8.08-.76,12.11-.36,4.52-.85,9.03-1.2,13.55-.34,4.47-.61,8.94-.83,13.41-.14,2.96-.12,5.93-.18,8.9-.1,4.97-.26,9.93-.31,14.89-.04,3.83,.01,7.67,.08,11.5,.07,3.61,.2,7.23,.32,10.84,.14,4.26,.33,8.52,.44,12.78,.11,4.16,.18,8.31,.18,12.47,0,4.42-.04,8.85-.21,13.27-.13,3.28-.38,6.58-.79,9.84-.6,4.71-1.28,9.41-2.16,14.08-1.23,6.47-3.03,12.81-5.15,19.05-3.14,9.25-6.35,18.48-9.5,27.73-1.67,4.91-3.22,9.85-4.9,14.76-2.87,8.38-6.12,16.61-9.83,24.66-3.14,6.81-6.24,13.65-9.37,20.47-.35,.76-.79,1.49-1.18,2.24-.1-.04-.2-.08-.3-.12,.13-.62,.24-1.23,.38-1.84,1.15-5.18,1.68-10.42,1.84-15.72,.21-7.22-.78-14.32-1.94-21.4-1.14-6.92-2.41-13.82-3.51-20.75-1.06-6.72-1.7-13.49-1.93-20.29-.22-6.2-.11-12.41,.53-18.59,.74-7.2,2.06-14.32,4-21.3,2.27-8.16,4.53-16.34,7.05-24.43,4.69-15.08,8.38-30.38,10.54-46.04,1.64-11.88,3.83-23.66,6.34-35.38,2.23-10.44,5.68-20.49,10.59-30,1.06-2.05,2.39-3.98,3.79-5.82,.8-1.04,1.91-1.92,3.03-2.63,1.7-1.06,2.97-.58,3.78,1.25,.91,2.06,1.25,4.28,1.16,6.49Z" style="fill:#303030;"/><path d="M35.57,351.83c-.05-.3-.2-.62-.15-.9,.27-1.37,.47-2.77,.91-4.09,1.23-3.75,1.76-7.65,2.37-11.52,.45-2.81,.44-5.69,.75-8.53,.81-7.37,.54-14.77,.83-22.16,.14-3.66-.09-7.34-.2-11.01-.2-6.58-.43-13.16-.67-19.74-.2-5.45-.5-10.89-.63-16.33-.16-6.64-.31-13.28-.26-19.92,.04-5.18,.31-10.36,.62-15.53,.45-7.38,1.52-14.66,4.18-21.63,.3-.8,.63-1.58,1.2-2.29-.27,.95-.51,1.91-.82,2.86-1.53,4.77-2.79,9.61-3.3,14.61-.33,3.16-.57,6.33-.71,9.51-.25,5.61-.42,11.22-.59,16.83-.05,1.73,0,3.46,.03,5.18,.05,2.38,.14,4.75,.2,7.13,.13,4.69,.21,9.39,.37,14.08,.17,4.91,.48,9.81,.64,14.71,.25,7.98,.5,15.97,.59,23.96,.05,4.64-.12,9.29-.35,13.92-.15,3.12-.58,6.22-.84,9.33-.07,.83-.01,1.67,.3,2.54,.44-2.25,.93-4.49,1.32-6.75,.87-5.09,1.73-10.18,2.51-15.28,.54-3.56,.94-7.15,1.4-10.72,.51-3.95,1.06-7.89,1.53-11.84,.39-3.26,.68-6.53,1.05-9.79,.38-3.31,.8-6.62,1.19-9.94,.26-2.25,.5-4.49,.74-6.74,.29-2.62,.59-5.24,.86-7.87,.27-2.68,.52-5.36,.76-8.04,.31-3.49,.61-6.97,.9-10.46,.15-1.83,.28-3.66,.38-5.49,.15-2.96,.23-5.93,.38-8.89,.28-5.55,.61-11.09,.9-16.64,.14-2.64,.25-5.28,.37-7.92,.3-6.58,.61-13.15,.91-19.73,.02-.54,.02-1.08,.04-1.62,.21-4.9,.42-9.81,.63-14.71,.12-2.64,.18-5.29,.37-7.92,.22-2.95,.56-5.89,.85-8.84,.13-1.34,.26-2.68,.42-4.01,.45-3.63,.9-7.26,1.39-10.88,.37-2.72,.78-5.43,1.22-8.13,.51-3.12,1.07-6.24,2.44-9.16-.42,2.05-.9,4.1-1.25,6.17-.47,2.75-.83,5.53-1.27,8.29-.36,2.28-.79,4.56-1.12,6.84-.33,2.29-.57,4.59-.82,6.89-.32,2.94-.61,5.89-.9,8.83-.14,1.39-.3,2.79-.37,4.18-.15,2.86-.26,5.71-.36,8.57-.24,6.31-.46,12.62-.69,18.92-.1,2.64-.16,5.28-.3,7.92-.27,4.9-.61,9.79-.89,14.69-.15,2.59-.25,5.17-.35,7.76-.14,3.56-.2,7.12-.4,10.68-.24,4.36-.59,8.71-.89,13.07-.12,1.67-.2,3.34-.35,5-.41,4.61-.83,9.22-1.26,13.83-.33,3.48-.66,6.97-1.04,10.45-.37,3.31-.83,6.62-1.21,9.93-.37,3.26-.67,6.53-1.05,9.8-.37,3.21-.81,6.4-1.2,9.61-.36,2.88-.67,5.77-1.05,8.66-.56,4.21-1.12,8.43-1.75,12.63-.54,3.56-1.19,7.1-1.78,10.65-.03,.2,.04,.42,.09,.94,.29-.65,.48-1.02,.63-1.41,4.46-12.09,7.85-24.49,10.35-37.12,1.25-6.33,2.41-12.68,3.47-19.04,.51-3.07,.67-6.21,1.08-9.3,.66-4.98,.81-9.99,1-15,.18-4.63,.43-9.27,.61-13.9,.26-6.96,.52-13.91,.69-20.87,.15-5.83,.28-11.66,.21-17.49-.05-4.74-.4-9.49-.62-14.23-.22-4.74-.45-9.48-.64-14.22-.13-3.29-.27-6.58-.3-9.87-.06-5.78,.47-11.51,1.23-17.24,.99-7.53,2.44-14.97,4.6-22.26,2.59-8.76,6.14-17.14,10.02-25.38,.86-1.83,2.18-3.46,3.33-5.15,.25-.38,.66-.65,.99-.97,.08,.07,.16,.13,.24,.2-.14,.22-.29,.44-.43,.66-1.25,1.95-2.75,3.78-3.7,5.87-4.35,9.57-8.46,19.24-11,29.48-1.33,5.38-2.32,10.82-3.16,16.3-.92,5.98-1.31,12.01-1.46,18.03-.11,4.47,.29,8.95,.48,13.42,.1,2.43,.23,4.85,.33,7.28,.14,3.4,.3,6.79,.4,10.19,.15,4.91,.34,9.82,.35,14.73,0,5.4-.19,10.8-.3,16.19,0,.32-.02,.65-.03,.97-.13,4.8-.23,9.61-.4,14.41-.17,4.8-.4,9.59-.64,14.39-.19,3.72-.28,7.44-.68,11.14-.6,5.56-1.45,11.09-2.16,16.64-.88,6.78-2.45,13.43-3.85,20.11-2.51,11.93-6.08,23.54-10.25,34.98-.17,.45-.32,.91-.47,1.37-.03,.09,.02,.21,.07,.57,.27-.5,.47-.79,.59-1.12,5.85-16.21,11.39-32.52,15.14-49.36,1.46-6.56,2.54-13.2,3.68-19.82,.74-4.29,1.34-8.61,1.87-12.93,.45-3.63,.78-7.28,1.05-10.93,.4-5.48,.73-10.97,1-16.46,.27-5.5,.44-11,.61-16.5,.16-5.23,.22-10.47,.39-15.71,.15-4.58,.29-9.17,.63-13.74,.47-6.28,1.1-12.54,2.14-18.76,1.63-9.77,3.99-19.38,6.05-29.06,1.5-7.05,3.08-14.08,4.31-21.18,.93-5.35,1.38-10.78,1.99-16.18,.12-1.04,.02-2.11,.02-3.5,.46,1.6,.64,2.93,.51,4.3-.29,3-.51,6.01-.92,8.99-.61,4.42-1.18,8.86-2.1,13.22-2.41,11.53-5.08,23-7.46,34.53-1.14,5.52-1.92,11.13-2.72,16.71-.83,5.82-1.19,11.68-1.34,17.56-.18,7.45-.4,14.89-.64,22.34-.19,6.15-.38,12.3-.67,18.44-.24,5.06-.52,10.12-.99,15.17-.49,5.3-1.14,10.6-1.86,15.87-.8,5.81-1.63,11.62-2.68,17.38-1.54,8.47-3.55,16.84-5.9,25.13-3.56,12.54-7.95,24.81-12.25,37.11-2.2,6.29-3.91,12.75-5.87,19.12-.22,.71-.65,1.35-.98,2.02-.14-.02-.29-.04-.43-.06Z" style="fill:#303030;"/><g><path d="M246.29,322.56c-.5,.63-1.07,1.23-1.72,1.7-1.92,1.4-3.81,2.86-5.85,4.05-8.8,5.11-18.3,8.38-28.25,10.38-5.29,1.06-10.64,1.55-16.01,2.02-8.8,.76-17.59,.4-26.38,.16-5.37-.15-10.73-.9-16.09-1.46-8-.84-16.03-1.66-24.06-.95-8.15,.73-15.93,2.8-23.18,6.94-5.39,3.08-10.27,6.84-15.34,10.33v-1.21c7.73-5.41,15.3-11.03,23.01-16.46,8.37-5.89,17.22-10.91,26.9-14.37,6.71-2.4,13.58-4.09,20.65-5.1,6.55-.93,13.11-1.06,19.69-.85,3.87,.12,7.74,.57,11.6,.86,3.33,.25,6.67,.45,10,.72,3.22,.26,6.43,.61,9.66,.86,2.37,.18,4.74,.36,7.11,.38,5.88,.06,11.77,.07,17.66,0,2.53-.04,5.05-.35,7.58-.53,.65-.04,1.3-.09,1.94-.01,1.72,.21,2.15,1.18,1.09,2.53Z" style="fill:#f5f5f5; opacity:.51;"/><path d="M245.2,320.02c-.64-.08-1.3-.03-1.94,.01-2.52,.17-5.05,.49-7.58,.53-5.88,.07-11.77,.06-17.66,0-2.37-.02-4.74-.2-7.11-.38-3.22-.25-6.43-.6-9.66-.86-3.33-.27-6.66-.47-10-.72-3.87-.29-7.73-.74-11.6-.86-6.58-.21-13.14-.08-19.69,.85-7.07,1-13.94,2.7-20.65,5.1-9.68,3.46-18.53,8.48-26.9,14.37-7.71,5.43-15.28,11.05-23.01,16.46-.15,.1-.29,.21-.44,.31-4.24,2.96-8.67,5.65-13.06,8.41-1.27,.79-2.66,1.38-4,2.07h2.27c.19-.17,.36-.39,.58-.5,4.58-2.22,8.75-5.11,12.97-7.93,.56-.38,1.12-.76,1.69-1.15,5.07-3.49,9.95-7.26,15.34-10.33,7.25-4.14,15.03-6.21,23.18-6.94,8.03-.72,16.05,.11,24.06,.95,5.36,.56,10.72,1.31,16.09,1.46,8.79,.24,17.58,.61,26.38-.16,5.37-.47,10.73-.96,16.01-2.02,9.95-1.99,19.45-5.27,28.25-10.38,2.05-1.19,3.93-2.65,5.85-4.05,.64-.47,1.22-1.07,1.72-1.7,1.06-1.35,.64-2.33-1.09-2.53Zm-.59,2.94c-2.07,1.54-4.1,3.19-6.33,4.48-8.27,4.82-17.2,7.97-26.53,10-4.58,1-9.23,1.53-13.89,2.03-9.7,1.03-19.42,.64-29.13,.49-4.57-.07-9.13-.7-13.68-1.18-6.92-.72-13.84-1.47-20.8-1.53-5.57-.05-11.08,.55-16.48,2.01-.62,.17-1.25,.29-1.89,.41-.09,.02-.2-.06-.51-.15,.57-.33,1-.62,1.45-.85,9.27-4.76,19.02-8.13,29.33-9.73,4.3-.67,8.64-1.17,12.97-1.61,10.77-1.11,21.58-.53,32.37-.57,7.02-.03,14.04-.06,21.06-.16,2.69-.04,5.37-.25,8.06-.39v-.1h-5.17c-9.78,0-19.56,0-29.33-.03-3.02-.01-6.04-.25-9.07-.23-4.59,.02-9.19,.02-13.76,.3-11.81,.72-23.45,2.39-34.64,6.47-5.89,2.15-11.51,4.89-16.97,7.96-.83,.46-1.68,.89-2.51,1.34-.1-.12-.2-.25-.3-.37,.23-.11,.47-.19,.67-.33,8.16-5.79,16.57-11.15,25.87-14.99,7.2-2.97,14.62-5.09,22.31-6.4,7.55-1.28,15.14-1.42,22.74-1.17,3.82,.13,7.63,.57,11.44,.86,3.33,.25,6.67,.45,10,.72,3.22,.26,6.44,.61,9.66,.85,2.42,.18,4.85,.34,7.27,.37,5.46,.06,10.91,.09,16.37,0,2.96-.05,5.92-.39,8.87-.57,.56-.03,1.13,.06,1.8,.1-.05,1.07-.67,1.56-1.24,1.98Z" style="fill:#303030;"/></g></svg>