<?xml version="1.0" encoding="UTF-8"?><svg id="OBJECTS" xmlns="http://www.w3.org/2000/svg" viewBox="0 0 317.44 397.26"><g><path d="M318.68,368.66c-4.41-3.13-8.92-6.12-13.2-9.41-15.11-11.61-27.35-25.71-36.42-42.51-4.58-8.49-9.1-17.01-13.79-25.43-5.85-10.51-12.33-20.62-19.79-30.09-3.38-4.29-7.1-8.26-10.91-12.16-3.99-4.07-7.89-8.22-11.21-12.88-5.29-7.42-8.97-15.61-11.7-24.27-1.95-6.19-3.4-12.49-4.26-18.92-.72-5.31-1.36-10.62-1.99-15.94-.82-6.92-1.54-13.86-2.82-20.72-1.39-7.52-3.33-14.9-5.55-22.21-1.11-3.65-2.33-7.27-3.49-10.91-.09-.29-.15-.6,0-.97,.28,.63,.62,1.24,.83,1.89,1.72,5.38,3.49,10.74,5.09,16.15,2.16,7.29,3.73,14.72,4.82,22.25,.62,4.31,1.06,8.65,1.57,12.98,1.06,9.07,1.92,18.17,3.99,27.09,2.44,10.54,6.02,20.64,11.84,29.86,3.1,4.92,6.85,9.3,10.84,13.5,3.32,3.5,6.73,6.92,9.91,10.55,6.46,7.37,11.92,15.47,17.13,23.76,4.85,7.72,9.08,15.78,13.43,23.78,3.08,5.66,6.09,11.36,9.32,16.93,9.34,16.07,21.88,29.24,36.82,40.19,2.78,2.04,5.65,3.97,8.48,5.94,.33,.23,.72,.39,1.08,.58v1Z" style="fill:#303030;"/><g><path d="M277.46,66.84c-.27-2.33-1.04-4.45-2.76-6.12-.93-.91-2.05-1.5-3.37-1.28-1.05,.17-2.11,.45-3.09,.87-2.14,.91-4.18,2.09-6.36,2.86-3.23,1.15-6.11,2.79-8.68,5.03-1.1,.96-2.21,1.89-3.29,2.87-4.12,3.7-7.39,8.1-10.44,12.68-2.35,3.54-4.78,7.04-7.76,10.06-7.25,7.34-15.99,11.93-26.16,13.75-.92,.17-1.86,.21-2.8,.31,.26-.34,.55-.47,.86-.57,4.2-1.33,8.08-3.28,11.64-5.87,4.64-3.37,8.79-7.25,12.39-11.71,5.99-7.43,10.32-15.76,13.52-24.72,3.25-9.11,5.15-18.46,5.34-28.14,.07-3.41,0-6.82-.47-10.21-.55-3.9-1.1-7.81-1.84-11.68-.33-1.73-1.06-3.4-1.74-5.04-.44-1.06-1.29-1.93-2.47-2.12-1.17-.19-2.41-.33-3.57-.15-3.41,.51-6.34,2.16-9.07,4.19-3.1,2.3-5.31,5.35-7.43,8.51-1.44,2.14-3.02,4.18-4.53,6.26-.19,.26-.33,.55-.57,.95-.24-.44-.34-.54-.35-.65-.07-.74-.08-1.5-.18-2.23-.81-5.59-2.33-10.96-5.03-15.95-.43-.8-.94-1.58-1.53-2.27-1.82-2.16-3.52-1.96-4.82,.55-.53,1.03-.96,2.12-1.49,3.15-2.37,4.64-3.6,9.62-4.51,14.7-.2,1.11-.39,2.23-.64,3.63-.45-.52-.71-.84-1-1.13-1.48-1.47-2.93-2.95-4.45-4.37-1.65-1.55-3.47-2.85-5.55-3.76-4.41-1.94-8.64-1.79-12.61,1.13-1.17,.86-2.38,1.7-3.42,2.7-3.91,3.73-7.82,7.47-11.64,11.3-3.6,3.6-6.79,7.54-9.12,12.11-.08,.16-.25,.28-.41,.45-.81-.77-1.54-1.52-2.31-2.2-4.45-3.95-9.5-7-14.88-9.48-3.44-1.59-6.85-3.22-10.03-5.29-.69-.45-1.43-.86-2.19-1.18-2.68-1.13-5.27-.23-6.71,2.31-.71,1.25-1.05,2.61-1.14,4.04-.14,2.35,.26,4.63,.9,6.88,1.95,6.86,5.14,13.14,8.94,19.13,.91,1.43,2.04,2.72,3.07,4.08,.1,.13,.17,.29,.38,.64-.82-.34-1.39-.57-1.96-.82-9-3.91-18.32-6.17-28.21-5.61-.99,.06-1.99,.21-2.93,.5-1.49,.44-2.22,1.45-2.11,2.99,.07,1.06,.32,2.13,.63,3.16,.72,2.37,1.97,4.5,3.39,6.5,4.78,6.71,9.12,13.71,13.54,20.66,4.59,7.23,10.22,13.55,17.13,18.64,10.81,7.98,22.99,11.9,36.39,12.13,1.11,.02,2.23,0,3.34,0-.12,.23-.26,.29-.4,.32-3.59,.67-7.17,1.35-10.77,2-4.2,.77-8.41,1.52-12.52,2.75-5.67,1.69-10.93,4.12-15.61,7.82-2.14,1.69-4.61,2.97-6.92,4.43-1.93,1.22-3.9,2.39-5.78,3.69-1.15,.8-2.22,1.76-3.19,2.78-.84,.89-1.63,1.92-1.24,3.23,.59,.65,1.25,.67,1.92,.7,3.76,.13,7.45-.49,11.17-.9,2.68-.3,5.36-.69,8.05-.82,4.24-.2,8.48-.16,12.72-.32,2.32-.08,4.66-.22,6.95-.55,6.21-.9,11.96-3.1,17.32-6.35,7.22-4.38,12.71-10.26,15.72-18.27,.07-.19,.2-.35,.29-.5,.91-.48,1.71-.32,2.28,.41,.6,.78,1.06,1.66,1.56,2.52,.19,.32,.32,.68,.48,1.02,.09-.03,.18-.05,.27-.08,.02-.31,.05-.62,.05-.94,0-1.08-.09-2.17-.01-3.24,.13-1.78,.53-3.47,2.48-4.37,1.24,.41,2.41,.83,3.61,1.18,9.22,2.7,18.6,4.6,28.18,5.54,5.14,.51,10.2,.25,15.18-1.2,5.96-1.73,11.09-4.86,15.59-9.08,6.85-6.41,12.64-13.7,17.49-21.7,3.83-6.31,6.92-12.98,8.68-20.2,.57-2.32,.91-4.65,.64-7.03Zm-62.5-38.69c2.22-2.6,4.21-5.36,6.06-8.23,1.54-2.38,3.25-4.62,5.41-6.49,2.81-2.43,5.94-4.28,9.58-5.1,1.03-.23,2.15-.18,3.22-.09,1.2,.1,2.13,.83,2.6,1.91,.65,1.52,1.31,3.07,1.67,4.67,1.74,7.81,2.62,15.73,2.29,23.74-.35,8.43-2,16.63-4.72,24.62-3.2,9.4-7.58,18.17-13.83,25.94-4.58,5.68-9.91,10.54-16.23,14.24-3.24,1.9-6.7,3.3-10.39,4.09-.35,.08-.72,.11-1.08,.16-.04-.08-.09-.15-.13-.23,.33-.27,.64-.54,.98-.8,3.99-3.03,7.67-6.39,10.7-10.4,4.2-5.54,6.85-11.77,7.93-18.62,2.03-12.86-1.38-24.26-9.51-34.33-.49-.61-.98-1.23-1.45-1.81,.16-1.71,.73-3.23,1.34-4.73,1.31-3.2,3.33-5.94,5.54-8.54Zm-12.13-19.49c.19-.74,.61-1.46,1.05-2.1,.83-1.19,1.8-1.3,2.8-.27,.69,.71,1.31,1.52,1.79,2.37,2.47,4.43,4.05,9.17,4.89,14.16,.26,1.51,.34,3.05,.52,4.57,.08,.71-.17,1.27-.61,1.82-1.99,2.47-3.69,5.12-4.78,8.12-.38,1.04-.68,2.11-1.06,3.29-.29-.29-.56-.54-.8-.8-1.94-2.16-3.78-4.44-5.86-6.46-1.42-1.38-1.63-2.9-1.4-4.64,.55-4.23,1.05-8.47,1.73-12.68,.4-2.49,1.07-4.93,1.71-7.37Zm-1.86,3.76c-.82,6.14-1.91,12.21-2.15,18.41-.68-.62-1.31-1.19-2.04-1.84,.71-5.68,1.88-11.27,4.19-16.56ZM117.28,29.01c.95,.24,1.89,.66,2.72,1.2,3.57,2.31,7.41,4.1,11.26,5.89,5.73,2.66,11.04,5.97,15.55,10.46,.35,.35,.67,.72,1.04,1.12-.19,.48-.36,.9-.53,1.32-2.22,5.29-3.25,10.82-2.98,16.54,.24,5.22,1.54,10.25,3.29,15.16,.19,.54,.37,1.08,.56,1.61-.07,.03-.14,.06-.21,.08-.77-.97-1.55-1.94-2.32-2.92-4.96-6.27-10.53-12-15.95-17.86-3.33-3.6-6.49-7.36-9.56-11.18-2.88-3.58-5.1-7.58-6.78-11.86-.64-1.63-1.08-3.3-1.23-5.06-.23-2.76,2.46-5.18,5.16-4.49Zm1.89,28.76c-2.94-5.18-5.53-10.51-7.05-16.3-.65-2.49-1.19-5.01-.52-7.79,.09,.3,.15,.44,.18,.6,.04,.2,.06,.41,.1,.61,.67,3.78,2.36,7.15,4.22,10.45,2.3,4.08,5.17,7.75,8.28,11.21,4.08,4.55,8.32,8.95,12.44,13.46,2.58,2.83,5.05,5.74,7.58,8.61,.16,.18,.3,.39,.45,.59-.05,.06-.11,.13-.16,.19-.54-.44-1.09-.87-1.62-1.31-5.2-4.3-10.67-8.21-16.75-11.2-.61-.3-1.15-.81-1.65-1.3-2.3-2.28-3.92-5.05-5.5-7.83Zm35.08,65.35c-9.78-1.08-18.86-4.15-27.13-9.51-8.16-5.29-14.65-12.24-19.93-20.35-3.49-5.36-6.92-10.77-10.42-16.13-1.48-2.26-3.08-4.44-4.56-6.7-1.16-1.78-2.09-3.69-2.55-5.79-.11-.52-.2-1.06-.21-1.6-.05-1.53,.51-2.43,2.03-2.66,2.08-.31,4.21-.54,6.31-.48,3.77,.11,7.54,.49,11.22,1.4,9.24,2.28,17.93,5.82,25.75,11.31,3.2,2.24,6.29,4.64,9.31,7.12,2.88,2.36,5.15,5.21,6.88,8.59,6.06,11.81,15.29,20.27,27.53,25.43,.75,.32,1.47,.72,2.2,1.08,.11,.93-.38,1.27-.75,1.63-3.36,3.26-7.29,5.48-11.91,6.36-4.57,.87-9.16,.81-13.77,.3Zm-38.41,19.67c3.93-2.18,7.69-4.61,11.27-7.34,3-2.29,6.47-3.68,10.1-4.78-.23,.18-.46,.35-.68,.53-1.2,1.01-2.56,1.89-3.57,3.07-4.19,4.88-9.3,8.21-15.49,9.95-2.15,.6-4.24,1.45-6.35,2.18-.11,.04-.23,.03-.34,.04-.04-.09-.08-.18-.12-.27,1.73-1.14,3.4-2.38,5.21-3.38Zm63.25-16.02c-2.91,6.09-7.34,10.84-12.95,14.52-5.6,3.67-11.67,6.16-18.3,7.17-2.17,.33-4.38,.47-6.57,.55-4.2,.15-8.4,.11-12.6,.32-2.86,.14-5.7,.54-8.54,.85-1.53,.16-3.05,.38-4.57,.57-.14,.02-.3-.04-.69-.09,2.58-1,4.93-1.91,7.28-2.82,4.49-1.74,8.94-3.58,13.47-5.22,4.04-1.46,8.26-2.11,12.55-2.43,3.93-.29,7.88-.53,11.76-1.19,8.02-1.36,14.08-5.83,18.64-12.46,.28-.41,.55-.83,.83-1.24,.02-.03,.07-.04,.1-.06,.07,.03,.14,.06,.21,.09-.21,.48-.4,.97-.62,1.44Zm1.42-4.78c-3.87,7.91-9.85,13.37-18.35,15.92-2.48,.74-5.05,.94-7.62,1.14-5.33,.41-10.69,.63-15.91,1.99-3.7,.97-7.24,2.4-10.78,3.84-3.96,1.61-7.91,3.26-11.92,4.73-1.65,.61-3.46,.81-5.2,1.17-.65,.13-1.31,.23-1.97,.27-.43,.02-.86-.11-1.47-.19,.32-1.65,.99-2.76,2.33-3.28,2.12-.83,4.28-1.58,6.43-2.33,2.15-.76,4.34-1.42,6.46-2.25,2.9-1.13,5.43-2.87,7.65-5.05,.86-.84,1.75-1.67,2.52-2.59,3.33-3.96,7.61-6.19,12.65-7.1,4.97-.9,9.95-1.8,14.92-2.75,2.36-.45,4.72-.93,7.05-1.52,4.79-1.21,9.1-3.35,12.77-6.71,.49-.45,.97-.9,1.52-1.42,.03,.24,.1,.49,.11,.75,.02,1.89-.34,3.69-1.18,5.42Zm-2.8-9.37c-2.15-.97-4.31-1.98-6.32-3.22-12.29-7.56-20.09-18.53-24.23-32.23-1.25-4.15-2.18-8.37-2.21-12.72-.06-9.24,2.83-17.49,8.69-24.63,2.27-2.76,4.74-5.36,7.27-7.88,3.15-3.14,6.43-6.15,9.69-9.18,.79-.73,1.7-1.33,2.58-1.96,3.73-2.71,7.68-2.81,11.79-1,2.24,.98,4.2,2.4,5.89,4.13,3.52,3.59,7.03,7.2,10.45,10.89,2.23,2.41,4.23,5.02,6.45,7.43,2.15,2.34,3.99,4.9,5.59,7.62,2.85,4.86,4.63,10.1,5.3,15.7,.2,1.69,.28,3.39,.38,4.77-.24,10.91-3.65,20.27-10.76,28.18-3.91,4.36-8.42,8.04-13.51,10.95-3.82,2.19-7.92,3.61-12.33,4.03-1.65,.16-3.25-.23-4.72-.89Zm82.02-7.8c-3.37,4.29-7.01,8.34-11.17,11.89-5.31,4.54-11.39,7.43-18.29,8.52-3.46,.55-6.95,.47-10.44,.15-5.13-.47-10.2-1.31-15.25-2.34-5.12-1.05-10.23-2.2-15.15-3.99-1.71-.62-3.33-1.49-4.95-2.33-.68-.35-1.25-.93-1.86-1.4,.05-.08,.09-.15,.14-.23,1.38,.4,2.75,.86,4.14,1.19,4.53,1.06,9.11,1.82,13.74,2.27,6.43,.62,12.87,.87,19.3,.42,14.64-1.03,28.08-5.36,39.68-14.65,.13-.1,.27-.19,.41-.28,.03-.02,.08-.01,.26-.04-.22,.33-.38,.6-.57,.84Zm16.47-31.16c-2.52,9.7-7.04,18.44-12.94,26.5-.73,.99-1.67,1.85-2.62,2.65-8.29,6.94-17.83,11.36-28.33,13.74-7.08,1.61-14.29,2.16-21.54,1.99-8.2-.19-16.33-1.02-24.31-2.98-1.02-.25-2.09-.43-3.12-1.2,1.03-.25,1.91-.46,2.78-.69,3.68-.98,7.17-2.39,10.37-4.47,.84-.54,1.68-.76,2.7-.72,6.36,.27,12.36-1.23,18.08-3.93,3.73-1.76,7.31-3.78,10.57-6.34,4.18-3.27,7.43-7.36,10.47-11.65,1.94-2.75,3.81-5.56,5.83-8.25,3.5-4.67,7.78-8.54,12.5-11.93,.97-.7,2.07-1.22,3.17-1.71,2.88-1.3,5.78-2.54,8.67-3.79,.57-.25,1.15-.51,1.74-.67,1.56-.42,2.97-.14,4.12,1.06,1.47,1.53,2.17,3.41,2.45,5.47,.32,2.35-.01,4.65-.6,6.91Z" style="fill:#303030;"/><g><path d="M183.52,113.82c.25-.23,.37-.4,.54-.5,5.71-3.54,9.76-8.55,12.9-14.41,2.98-5.57,5.03-11.45,6.16-17.65,.77-4.19,1.53-8.38,2.2-12.59,.34-2.17,.46-4.37,.78-6.55-.1,1.95-.14,3.91-.33,5.85-.23,2.26-.57,4.52-.92,6.77-1.4,8.88-3.34,17.57-7.91,25.48-3.04,5.27-6.78,9.84-11.98,13.12-.14,.09-.3,.15-.36,.36,32.38,4.58,58.93-5.45,79.36-31.21-.12,.21-.22,.45-.37,.64-4.98,6.26-10.22,12.29-16.76,17.01-9.23,6.67-19.37,11.37-30.56,13.68-3.82,.79-7.68,1.35-11.58,1.49-2.7,.1-5.4,.26-8.1,.2-3.33-.07-10.51-.7-13.08-1.69Z" style="fill:#303030;"/><path d="M179.96,113.87c-2.18,.46-4.21,.57-6.21,.37-3.29-.33-6.6-.66-9.85-1.27-8.83-1.66-16.98-5.05-24.42-10.11-5.78-3.92-11.41-8.04-16.78-12.51-.31-.26-.6-.55-.8-.97,.22,.14,.44,.27,.65,.42,6.47,4.95,12.9,9.94,19.84,14.23,7.03,4.34,14.65,7.11,22.78,8.59,3.44,.62,6.9,.91,10.37,1.14,.78,.05,1.56-.09,2.56-.16-.25-.23-.33-.34-.44-.4-6.34-3.3-11.06-8.29-14.86-14.23-3.78-5.9-6.27-12.32-7.59-19.2-.52-2.72-1.03-5.45-1.43-8.19-.23-1.64-.23-3.3-.29-4.96,.65,5.41,1.61,10.77,2.96,16.05,2.23,8.77,6.3,16.58,12.54,23.18,2.93,3.11,6.29,5.66,10.18,7.49,.24,.11,.44,.29,.79,.53Z" style="fill:#303030;"/><path d="M235.49,31.35c.12,1.96-.01,4.44-.4,6.91-.6,3.76-1.12,7.53-1.8,11.27-3.29,18.01-10.45,34.21-22.65,48.01-1.81,2.05-3.91,3.84-5.89,5.73-.41,.39-.92,.69-1.53,.91,.09-.13,.17-.27,.28-.37,8.42-7.24,14.7-16.12,19.75-25.92,4.28-8.3,7.27-17.07,9.08-26.23,.87-4.42,1.71-8.85,2.43-13.3,.4-2.48,.53-5.01,.73-7Z" style="fill:#303030;"/><path d="M140.2,138.13c2.84-1.11,5.69-2.21,8.52-3.34,6.91-2.74,13.71-5.7,20.01-9.7,3.44-2.19,6.68-4.65,9.79-7.28,.21-.17,.43-.33,.76-.58-1.36,2.99-3.18,5.44-5.51,7.49-2.52,2.22-5.14,4.34-7.72,6.5-.36,.3-.79,.53-1.25,.71,4.34-3.79,9-7.22,12.3-12.09-10.84,9.01-23.69,13.93-36.73,18.48l-.17-.2Z" style="fill:#303030;"/><path d="M222.28,88.29c.97-1.45,1.95-2.88,2.9-4.34,6.2-9.56,11.09-19.71,14-30.77,.97-3.68,1.64-7.43,2.16-11.2,.9-6.65,.88-13.34,.76-20.03,0-.45,0-.91,.05-1.36,.48,4.74,.54,9.48,.18,14.23-.1,1.32-.18,2.65-.28,3.97-.46,6.34-1.67,12.55-3.6,18.6-3.47,10.87-8.62,20.91-15.34,30.14-.22,.3-.48,.57-.72,.85-.04-.03-.08-.07-.11-.1Z" style="fill:#303030;"/><path d="M185.65,90.1c-.16-.8-.36-1.6-.46-2.41-.37-3.08-.73-6.17-1.06-9.26-.34-3.13-.64-6.27-.94-9.4-.12-1.24-.2-2.48-.27-3.72-.19-3.32-.32-6.64-.56-9.95-.58-8.05-.79-16.1-.71-24.17,.01-1,0-1.99,.21-2.99,0,.67-.01,1.33,0,2,.09,4.03,.16,8.06,.3,12.09,.13,3.78,.3,7.56,.51,11.33,.21,3.77,.45,7.54,.73,11.31,.31,4.18,.61,8.36,1.02,12.52,.4,4.08,.94,8.14,1.42,12.22,.01,.12-.01,.25-.02,.37-.06,.02-.12,.05-.18,.07Z" style="fill:#303030;"/><path d="M198.93,113.21c2.65-.63,5.33-1.16,7.94-1.9,8.69-2.48,17.02-5.8,24.53-10.92,4.9-3.34,8.85-7.65,12.43-12.32,1.11-1.44,2.17-2.92,3.4-4.31-.05,.13-.08,.28-.15,.39-3.56,5.4-7.54,10.44-12.55,14.6-3.74,3.1-7.92,5.44-12.32,7.45-6.23,2.85-12.65,5.13-19.38,6.5-1.29,.26-2.59,.43-3.89,.65,0-.04-.01-.09-.02-.13Z" style="fill:#303030;"/><path d="M168.9,103.92c-.24-.32-.49-.63-.72-.96-3.67-5.25-6.12-11.08-7.98-17.18-1.2-3.92-2.08-7.92-2.71-11.97-.56-3.66-.74-7.35-.59-11.05,.09-2.16,.15-4.32,.31-6.47,.1-1.44,.35-2.86,.66-4.28,0,.81,.08,1.63-.01,2.43-.37,3.26-.45,6.54-.49,9.82-.06,5.25,.64,10.41,1.8,15.52,1.48,6.53,3.55,12.85,6.75,18.75,.97,1.78,2.06,3.5,3.09,5.25l-.12,.13Z" style="fill:#303030;"/><path d="M180.61,112.09c-1.93-2.71-3.25-5.71-4.44-8.76-2-5.1-3.49-10.35-4.43-15.74-.59-3.34-.89-6.72-1.13-10.12-.36-5,.06-9.97,.1-14.96,.01-1.32,.21-2.64,.33-4.08,0,2.22,0,4.32,0,6.42,.02,4.15,0,8.31,.09,12.46,.05,2.03,.3,4.05,.51,6.07,.53,5,1.66,9.86,3.15,14.66,1.47,4.72,3.27,9.3,5.66,13.64,.07,.13,.11,.28,.17,.42Z" style="fill:#303030;"/><path d="M209.94,54.02c2.56,19.27-5.2,40.71-14.96,52.18,11.26-15.52,16.1-32.89,14.96-52.18Z" style="fill:#303030;"/><path d="M194.94,65.02c0-.65,0-1.3,0-1.95,0-2.53,.05-5.06,0-7.59-.06-2.91-.13-5.81-.33-8.71-.46-6.61-.97-13.23-3.17-19.56-.43-1.25-1.03-2.44-1.55-3.66-.17-.39-.33-.78-.49-1.17,.09-.05,.18-.09,.27-.14,.18,.24,.38,.48,.54,.73,1.69,2.72,2.49,5.77,3.18,8.85,.87,3.89,1.21,7.85,1.56,11.81,.46,5.18,.51,10.37,.44,15.56-.03,1.94-.17,3.88-.26,5.82-.05,0-.11,0-.16,0Z" style="fill:#303030;"/><path d="M164.52,120.04c-8.14-.02-15.63-1.95-22.91-4.84-6.22-2.47-15.33-8.29-18.71-12.07,.25,.16,.51,.32,.75,.49,3.45,2.45,6.77,5.11,10.38,7.3,6.28,3.82,13.17,6.2,20.36,7.63,3.28,.65,6.62,.99,10.13,1.49Z" style="fill:#303030;"/><path d="M133.22,77.63c1.69,1.94,3.39,3.88,5.07,5.83,3.36,3.91,6.66,7.87,10.09,11.72,4.37,4.91,9.47,8.96,14.96,12.54,.28,.18,.56,.36,.83,.55,.06,.04,.09,.12,.31,.43-.61-.34-1-.53-1.37-.75-6.69-4.17-12.56-9.28-17.65-15.29-4.06-4.79-8.1-9.59-12.15-14.39-.12-.15-.22-.31-.33-.47,.08-.06,.16-.11,.24-.17Z" style="fill:#303030;"/><path d="M123.8,82.03c-9.35-7.44-18.88-14.6-29.16-20.72,3.95,1.11,25.23,16.2,29.16,20.72Z" style="fill:#303030;"/><path d="M215.34,46.49c.18-1.51,.31-3.03,.57-4.53,.62-3.67,1.22-7.34,1.96-10.98,.91-4.5,1.99-8.97,4.06-13.12,.19-.39,.43-.75,.64-1.13,.1,.05,.2,.09,.3,.14-.73,1.9-1.54,3.77-2.18,5.69-.64,1.92-1.16,3.89-1.65,5.85-.5,2-.93,4.03-1.34,6.05-.4,1.98-.75,3.98-1.11,5.97-.37,2.03-.72,4.06-1.09,6.09-.06,0-.11-.02-.17-.02Z" style="fill:#303030;"/><path d="M180.82,114.34c-.57,.89-1.26,1.02-1.87,1.17-2.33,.59-4.69,.98-7.1,1.05-7.5,.23-14.7-1.42-21.86-3.36-.19-.05-.37-.17-.53-.4,.88,.2,1.76,.42,2.65,.59,4.13,.8,8.25,1.74,12.41,2.34,4.7,.67,9.42,.52,14.06-.68,.66-.17,1.31-.42,2.23-.72Z" style="fill:#303030;"/><path d="M250.39,85.43c2.46-3.74,4.97-7.43,7.35-11.22,2.35-3.75,4.77-7.48,6.12-11.8,.53,.15,.43,.58,.33,.88-.33,.94-.62,1.9-1.09,2.77-1.37,2.51-2.7,5.06-4.25,7.45-2.41,3.72-5,7.33-7.51,10.98-.25,.37-.56,.7-.85,1.05-.03-.04-.06-.08-.1-.12Z" style="fill:#303030;"/><path d="M215.41,88.67c5.37-8.07,8.24-17.21,11.28-26.28-.56,6.28-8.06,23.83-11.28,26.28Z" style="fill:#303030;"/><path d="M179.43,18.78c-.1,.84-.25,1.68-.3,2.52-.16,2.98-.36,5.96-.4,8.94-.04,2.57,.09,5.15,.16,7.72,.06,2.15,.13,4.31,.04,6.47-.18-2.98-.42-5.95-.53-8.93-.13-3.57-.25-7.14-.2-10.7,.03-1.89,.45-3.77,.7-5.65,.02-.14,.12-.27,.18-.4l.35,.04Z" style="fill:#303030;"/><path d="M109.97,91.58c-5.97-5.69-11.6-11.68-16.41-18.47,.23,.18,.5,.33,.68,.55,1.34,1.59,2.6,3.24,4,4.78,3.69,4.06,7.43,8.08,11.15,12.11,.25,.27,.51,.54,.77,.82-.06,.07-.12,.14-.19,.2Z" style="fill:#303030;"/><path d="M138.38,51.15c-3.88-3.7-12.3-15.45-12.8-17.66,.51-.1,.59,.34,.78,.61,2.04,3.03,4.03,6.09,6.13,9.07,1.84,2.61,3.82,5.12,5.73,7.68,.07,.09,.11,.19,.16,.29Z" style="fill:#303030;"/><path d="M145.05,71.09c-1.85-.74-12.56-12.45-14.63-16.32,1.61,1.86,3.2,3.73,4.83,5.58,1.62,1.84,3.26,3.66,4.91,5.47,1.67,1.83,3.37,3.63,4.89,5.27Z" style="fill:#303030;"/><path d="M126.3,74.81c-5.06-4.55-10.04-9.2-15.49-13.3-.03-.02,.02-.15,.07-.42,5.86,3.86,10.72,8.69,15.42,13.73Z" style="fill:#303030;"/><path d="M154.28,51.62c-.11-4.53,2.39-16.52,5.02-18.27-.62,1.44-1.33,2.85-1.85,4.32-.53,1.52-.92,3.09-1.3,4.66-.37,1.53-.68,3.07-.99,4.61-.32,1.58-.6,3.16-.88,4.68Z" style="fill:#303030;"/><path d="M205.9,39.46c-.09-.17-.23-.34-.25-.52-.11-.86-.25-1.73-.26-2.59-.02-6.05,0-12.11,.01-18.16,0-.12,.04-.24,.13-.36,.16,7.18,.32,14.37,.48,21.55-.04,.03-.08,.05-.12,.08Z" style="fill:#303030;"/><path d="M197.55,45.55c-.79-6.86-1.52-13.61-4.36-19.93,.09-.04,.19-.09,.28-.13,.29,.46,.68,.88,.84,1.38,.64,1.96,1.38,3.91,1.77,5.93,.62,3.16,1.03,6.36,1.45,9.55,.13,1.02,.02,2.07,.02,3.2Z" style="fill:#303030;"/><path d="M150.62,106.5c-5.44-2.44-10.13-6.04-14.71-9.81,4.85,3.35,9.53,6.95,14.71,9.81Z" style="fill:#303030;"/><path d="M131.01,137.06c.13-.68,.77-.6,1.17-.72,3.24-.98,6.5-1.89,9.75-2.83,.82-.24,1.64-.48,2.73-.8-2.04,1.23-11.79,4.3-13.64,4.36Z" style="fill:#303030;"/><path d="M215.03,34.99c-.72,4.76-1.3,9.5-1.31,14.3,0,.04-.12,.09-.19,.13-.67-2.19,.17-10.71,1.5-14.43Z" style="fill:#303030;"/><path d="M105.71,60.21c1.82,.47,7.83,5.09,9.35,7.1-3.18-2.41-6.26-4.76-9.35-7.1Z" style="fill:#303030;"/><path d="M138.64,60.26c2.1,2.37,4.2,4.74,6.35,7.17-1.04-.16-4.71-4.24-6.35-7.17Z" style="fill:#303030;"/><path d="M203.03,26.85c.2,3.25,.41,6.5,.62,9.88-.7-.9-1-5.88-.62-9.88Z" style="fill:#303030;"/><path d="M128.61,34.34c1.65,2.16,3.04,4.5,4.38,6.86-.09,.06-.17,.11-.26,.17l-4.51-6.75c.13-.09,.26-.19,.39-.28Z" style="fill:#303030;"/><path d="M261.73,63.83c-.85,2.7-2.15,5.2-3.81,7.51,1.16-2.55,2.32-5.11,3.48-7.66,.11,.05,.22,.1,.33,.15Z" style="fill:#303030;"/><path d="M209.13,35.87c.41-3.17,.82-6.35,1.17-9.01,.17,2.72-.08,5.91-1.17,9.01Z" style="fill:#303030;"/><path d="M229.93,46.98c-.16,2.69-.57,5.38-1.57,7.94l1.57-7.94Z" style="fill:#303030;"/><path d="M222.39,88.39c-.6,.85-1.2,1.7-1.8,2.55-.08-.06-.16-.12-.23-.17,.64-.83,1.28-1.65,1.92-2.48,.04,.03,.08,.07,.11,.1Z" style="fill:#303030;"/></g></g></g><g><path d="M318.68,338.96c-12.11,.3-23.59-2.29-34.46-7.61-6.23-3.05-12.41-6.22-18.65-9.25-3.32-1.61-6.73-3.07-10.11-4.57-6.28-2.78-12.9-4.26-19.65-5.34-9.59-1.53-18.6-4.65-26.65-10.21-.43-.3-1.11-.45-1.02-1.36,.33,.18,.62,.3,.86,.47,7.68,5.42,16.27,8.6,25.47,10.19,6.96,1.2,13.91,2.43,20.43,5.29,4.11,1.81,8.23,3.59,12.27,5.54,5.39,2.59,10.7,5.36,16.07,8,6.06,2.98,12.32,5.43,18.97,6.71,2.85,.55,5.74,.87,8.63,1.15,2.19,.22,4.4,.22,6.6,.3,.41,.02,.82-.05,1.23-.08v.75Z" style="fill:#303030;"/><g><path d="M281.13,263.07c-.79,.66-1.69,1.26-2.65,1.61-7.92,2.84-15.36,6.76-22.96,10.31-4.3,2.01-8.75,3.61-13.46,4.39-3.62,.6-7.26,.77-10.93,.49-9.24-.71-17.73-3.82-25.89-8.02-2.88-1.48-5.77-2.96-8.67-4.41-2.8-1.4-5.72-2.46-8.81-3.02-.35-.06-.71-.09-1.12,.06,.37,.16,.74,.31,1.1,.49,1.45,.73,3,1.31,4.31,2.23,3.61,2.54,7.03,5.31,9.82,8.79,2.66,3.31,4.88,6.84,5.79,11.05,.79,3.67,1.2,7.36,.97,11.13-.64,10.57-4.41,19.96-10.59,28.45-3.09,4.25-6.91,7.62-11.95,9.45-4.85,1.75-11.79,.83-15.61-4.1-.76-.99-1.53-1.97-2.21-3.02-3.34-5.12-6.67-10.24-9.98-15.38-1.87-2.91-3.54-5.93-4.33-9.34-1.88-8.14-.6-15.86,3.35-23.13,2.34-4.29,5.35-8.14,8.8-11.6,1.54-1.54,3.38-2.78,5.16-4.22-.2-.12-.48-.32-.8-.47-1.99-.92-4.11-1.34-6.27-1.49-5.07-.34-10.13-.07-15.16,.65-7.29,1.05-14.6,1.87-21.98,1.55-11.21-.5-22-2.7-31.9-8.27-4.68-2.64-8.9-5.84-12.19-10.16-2.41-3.16-4.37-6.57-5.48-10.42-.38-1.34-.5-2.7-.41-4.07,.15-2.39,1.56-3.77,3.96-3.68,1.18,.04,2.41,.26,3.52,.66,1.71,.62,3.36,1.43,5.01,2.21,2.1,1,4.19,2.05,6.56,2.23,1.03,.08,2.07,.1,3.11,.08,2.49-.05,4.98-.23,7.47-.2,4.13,.06,8.15,.91,12.15,1.89,6.69,1.63,13.06,4.13,19.24,7.14,.4,.19,.81,.37,1.31,.43-.13-.13-.25-.27-.4-.38-6.41-4.7-10.87-10.93-14.2-18.04-2.33-4.99-4.01-10.21-4.72-15.68-1.37-10.57,.5-20.59,5.43-30.04,.53-1.02,1.23-1.99,2-2.85,2.15-2.39,5.04-2.55,7.38-.36,1.11,1.05,2.12,2.24,3,3.49,1.92,2.72,3.93,5.35,6.06,7.92,6.45,7.73,10.5,16.61,12.17,26.53,.4,2.37,.51,4.78,.75,7.17,.03,.28,.03,.57,.21,.88,.27-1.23,.56-2.45,.82-3.67,.62-2.99,1.67-5.84,3.18-8.49,1.49-2.59,3.08-5.13,4.71-7.64,2.84-4.36,5.61-8.74,7.71-13.53,.75-1.71,1.67-3.34,2.65-4.94,.49-.8,1.19-1.49,1.91-2.11,.63-.55,1.18-.51,1.8,.05,.55,.5,1.03,1.09,1.46,1.69,2.05,2.85,3.19,6.09,4.01,9.46,1.06,4.37,1.9,8.75,2.04,13.26,.08,2.62,.29,5.23,.45,7.84,.01,.2,.05,.39,.29,.6,.1-1.24,.18-2.48,.29-3.73,.69-7.99,2.58-15.65,7.55-22.09,3.47-4.5,7.46-8.61,11.3-12.81,.84-.92,2-1.64,3.14-2.2,2.05-1.02,4.01-.22,4.92,1.88,.79,1.82,1.09,3.77,.83,5.73-.39,2.83-.86,5.66-1.42,8.46-1,4.96-2.05,9.91-2.47,14.97-.28,3.35-.6,6.7-.98,10.04-.2,1.81-.56,3.61-.84,5.41-.06,.38-.09,.77,.1,1.21,.2-.39,.41-.79,.61-1.18,3.07-6.04,6.04-12.13,9.27-18.08,1.34-2.46,3.16-4.68,4.88-6.91,.67-.87,1.63-1.53,2.52-2.2,.95-.72,2.06-1.04,3.26-1.1,1.35-.08,2.15,.35,2.62,1.61,.55,1.46,.66,2.99,.49,4.54-.38,3.48-1.23,6.86-2.41,10.15-1.57,4.39-2.7,8.89-3.54,13.47-1.14,6.2-3.82,11.74-7.3,16.93-5.16,7.69-11.6,14.02-19.83,18.39-1.36,.72-2.78,1.32-4.17,1.98-.29,.13-.57,.28-.85,.41,.02,.07,.04,.14,.07,.22,2.11-.54,4.25-1.02,6.34-1.64,5.45-1.61,10.92-3.14,16.51-4.25,5.26-1.05,10.56-1.84,15.94-1.81,3.7,.02,7.38,.35,11.05,.88,3.57,.52,7.14,1.07,10.73,1.43,2.18,.22,4.4,.09,6.61,.15,4.12,.1,8.21,.47,12.21,1.52,1.36,.35,2.66,.93,3.95,1.48,.57,.24,1.09,.62,1.57,1.01,1.85,1.48,1.91,3.16,.08,4.68Z" style="fill:#fff;"/><path d="M281.05,258.39c-.48-.39-1.01-.77-1.57-1.01-1.3-.55-2.6-1.13-3.95-1.48-4-1.05-8.09-1.41-12.21-1.52-2.2-.06-4.42,.07-6.61-.15-3.59-.36-7.16-.91-10.73-1.43-3.66-.53-7.35-.86-11.05-.88-5.38-.03-10.67,.76-15.94,1.81-5.58,1.12-11.06,2.64-16.51,4.25-2.09,.62-4.22,1.09-6.34,1.64-.02-.07-.04-.14-.07-.22,.28-.14,.57-.28,.85-.41,1.39-.66,2.81-1.26,4.17-1.98,8.24-4.37,14.67-10.7,19.83-18.39,3.48-5.19,6.16-10.74,7.3-16.93,.84-4.58,1.97-9.08,3.54-13.47,1.17-3.29,2.03-6.66,2.41-10.15,.17-1.56,.05-3.08-.49-4.54-.47-1.26-1.27-1.69-2.62-1.61-1.2,.06-2.31,.38-3.26,1.1-.89,.67-1.85,1.33-2.52,2.2-1.72,2.24-3.54,4.45-4.88,6.91-3.23,5.95-6.2,12.04-9.27,18.08-.2,.4-.41,.79-.61,1.18-.18-.43-.16-.82-.1-1.21,.28-1.8,.64-3.6,.84-5.41,.38-3.34,.7-6.69,.98-10.04,.42-5.06,1.47-10.01,2.47-14.97,.57-2.8,1.04-5.63,1.42-8.46,.26-1.96-.04-3.91-.83-5.73-.91-2.11-2.87-2.9-4.92-1.88-1.14,.56-2.29,1.28-3.14,2.2-3.85,4.2-7.83,8.31-11.3,12.81-4.97,6.44-6.86,14.1-7.55,22.09-.11,1.24-.19,2.49-.29,3.73-.24-.2-.28-.4-.29-.6-.16-2.61-.37-5.22-.45-7.84-.13-4.51-.98-8.9-2.04-13.26-.82-3.38-1.96-6.61-4.01-9.46-.43-.6-.91-1.19-1.46-1.69-.62-.56-1.17-.6-1.8-.05-.71,.62-1.42,1.32-1.91,2.11-.97,1.6-1.9,3.23-2.65,4.94-2.09,4.79-4.87,9.17-7.71,13.53-1.63,2.51-3.23,5.04-4.71,7.64-1.52,2.64-2.56,5.49-3.18,8.49-.26,1.23-.55,2.45-.82,3.67-.18-.31-.18-.59-.21-.88-.24-2.39-.35-4.81-.75-7.17-1.67-9.92-5.73-18.81-12.17-26.53-2.13-2.56-4.15-5.19-6.06-7.92-.88-1.25-1.89-2.44-3-3.49-2.34-2.19-5.23-2.03-7.38,.36-.77,.86-1.47,1.83-2,2.85-4.93,9.44-6.8,19.47-5.43,30.04,.71,5.47,2.39,10.69,4.72,15.68,3.32,7.12,7.79,13.35,14.2,18.04,.15,.11,.27,.25,.4,.38-.5-.06-.91-.24-1.31-.43-6.18-3.01-12.55-5.5-19.24-7.14-4-.98-8.02-1.83-12.15-1.89-2.49-.03-4.98,.15-7.47,.2-1.04,.02-2.08,0-3.11-.08-2.37-.18-4.46-1.24-6.56-2.23-1.65-.78-3.3-1.6-5.01-2.21-1.11-.4-2.33-.61-3.52-.66-2.39-.09-3.81,1.28-3.96,3.68-.09,1.38,.02,2.73,.41,4.07,1.11,3.86,3.07,7.26,5.48,10.42,3.28,4.31,7.51,7.52,12.19,10.16,9.89,5.58,20.69,7.77,31.9,8.27,7.38,.33,14.69-.49,21.98-1.55,5.04-.73,10.09-1,15.16-.65,2.16,.14,4.28,.56,6.27,1.49,.31,.15,.6,.35,.8,.47-1.77,1.43-3.62,2.67-5.16,4.22-3.45,3.46-6.46,7.3-8.8,11.6-3.96,7.27-5.23,14.99-3.35,23.13,.79,3.41,2.45,6.43,4.33,9.34,3.31,5.14,6.64,10.27,9.98,15.38,.68,1.04,1.45,2.03,2.21,3.02,3.82,4.93,10.76,5.86,15.61,4.1,5.04-1.83,8.86-5.2,11.95-9.45,6.18-8.49,9.95-17.88,10.59-28.45,.23-3.77-.18-7.46-.97-11.13-.91-4.21-3.13-7.74-5.79-11.05-2.79-3.47-6.21-6.25-9.82-8.79-1.31-.92-2.86-1.51-4.31-2.23-.36-.18-.73-.33-1.1-.49,.41-.15,.77-.13,1.12-.06,3.09,.56,6.01,1.62,8.81,3.02,2.9,1.45,5.79,2.93,8.67,4.41,8.16,4.19,16.64,7.3,25.89,8.02,3.67,.28,7.3,.12,10.93-.49,4.71-.78,9.16-2.38,13.46-4.39,7.6-3.55,15.04-7.47,22.96-10.31,.96-.34,1.86-.95,2.65-1.61,1.83-1.52,1.77-3.21-.08-4.68Zm-52.67-65c.87-.45,1.84-.73,2.8-.95,.82-.19,1.53,.23,1.87,1.1,.28,.72,.48,1.51,.54,2.28,.25,3.5-.63,6.84-1.67,10.13-1.21,3.84-2.65,7.6-3.45,11.56-.47,2.32-.9,4.65-1.49,6.93-1.31,5.04-3.72,9.59-6.61,13.89-4.9,7.29-10.99,13.31-18.69,17.65-4.53,2.55-9.4,4.18-14.43,5.36-2.62,.61-5.27,1.11-7.92,1.64-.43,.09-.89,.09-1.41,.14,2.8-1.41,5.49-2.69,8.12-4.1,4.33-2.33,7.98-5.51,11.28-9.14,3.73-4.1,6.73-8.65,8.91-13.75,1.41-3.3,3.17-6.41,5.2-9.36,4.3-6.24,7.59-12.95,9.75-20.23,.8-2.7,1.83-5.34,2.93-7.94,.9-2.12,2.13-4.09,4.27-5.2Zm-16.79,26.94c3.05-5.81,6.01-11.66,9.06-17.48,.69-1.31,1.55-2.53,2.33-3.79,.07,.04,.14,.08,.21,.11-.49,1.3-1.01,2.59-1.47,3.91-.95,2.75-1.83,5.51-2.8,8.25-1.59,4.49-3.82,8.66-6.38,12.66-1.3,2.03-2.58,4.07-3.87,6.11-.13,.2-.28,.38-.57,.5,.09-.43,.17-.86,.26-1.29,.65-3.15,1.72-6.13,3.22-8.98Zm-19.78-22.63c1.55-4.23,3.77-8.03,6.8-11.38,2.04-2.25,4.01-4.56,6.05-6.8,1.2-1.32,2.45-2.6,3.75-3.83,.6-.56,1.32-1.02,2.05-1.39,1.87-.95,3.59-.32,4.39,1.62,.83,2,1.03,4.13,.65,6.24-.86,4.82-1.87,9.6-2.72,14.42-.49,2.78-.9,5.58-1.12,8.38-.71,8.82-1.77,17.59-4.37,26.09-4.2,13.73-12.97,23.54-25.83,29.78-.77,.37-1.56,.7-2.33,1.04-.05-.07-.11-.15-.16-.23,.3-.31,.59-.62,.9-.93,5.11-5.23,8.72-11.28,10.11-18.54,.61-3.19,1.09-6.41,.82-9.65-.18-2.18-.5-4.38-1.03-6.5-.74-2.97-.97-5.96-1-9-.08-6.62,.76-13.08,3.05-19.32Zm-32.47,17.91c1.29-4.4,3.73-8.24,6.27-12,3.34-4.93,6.53-9.93,8.84-15.45,.14-.33,.34-.64,.51-.95,.07,.02,.13,.04,.2,.05-.09,.84-.19,1.68-.27,2.53-.15,1.49-.33,2.97-.43,4.46-.32,4.8-1.55,9.34-4.02,13.48-1.47,2.46-3.11,4.82-4.69,7.21-2.8,4.25-5.29,8.65-6.64,13.61-1.2,4.41-1.63,8.89-1.21,13.45,.04,.41,0,.82,0,1.52-.69-1.45-.85-2.75-.97-4.01-.77-8.12,.11-16.09,2.41-23.89Zm-25.22,22.36c-5.99-6.45-9.81-14.06-12.16-22.47-1.33-4.75-1.98-9.6-1.73-14.53,.37-7.47,2.15-14.61,5.69-21.24,.62-1.16,1.42-2.27,2.32-3.22,1.76-1.84,4.14-1.94,6.02-.22,1.19,1.08,2.25,2.34,3.18,3.65,1.9,2.68,3.87,5.29,5.99,7.81,6.25,7.43,10.16,16.01,12.05,25.53,.56,2.86,.81,5.74,1.07,8.64,.19,2.11-.03,4.13-.28,6.18-1.25,10.4,.97,19.98,6.72,28.74,.18,.28,.37,.56,.53,.84,.03,.05,0,.15-.02,.32-.34-.2-.66-.36-.96-.55-5.68-3.54-11.38-7.04-17.02-10.64-4.07-2.59-8.08-5.28-11.4-8.85Zm-19.79-2.68c1.92,.47,3.85,.92,5.76,1.42,8.18,2.13,15.83,5.54,23.19,9.61,7.28,4.02,14.34,8.42,21.19,13.16,.4,.28,.79,.58,1.41,1.04-.42,0-.57,.04-.68,0-5.74-2.57-11.72-4.46-17.73-6.23-6.24-1.83-11.98-4.68-17.35-8.32-2.82-1.92-5.59-3.91-8.43-5.79-2.29-1.51-4.66-2.89-6.99-4.34-.16-.1-.3-.22-.45-.34,.03-.07,.06-.14,.09-.21Zm50.46,27.54c-3.44-.08-6.9-.27-10.32,0-5.13,.4-10.21,1.32-15.34,1.7-4.64,.34-9.32,.51-13.95,.26-9.44-.5-18.59-2.47-27.13-6.72-3.85-1.91-7.45-4.23-10.64-7.13-4.11-3.73-7.1-8.22-9-13.44-.58-1.58-.81-3.22-.67-4.9,.17-2.16,1.5-3.37,3.66-3.1,1.3,.16,2.61,.5,3.84,.98,1.81,.71,3.59,1.54,5.32,2.45,3.4,1.78,7.01,1.78,10.7,1.57,2.27-.13,4.56-.04,6.84,0,3.33,.04,6.2,1.45,8.89,3.24,3.78,2.5,7.49,5.1,11.24,7.64,4.55,3.09,9.21,6,14.42,7.85,3.63,1.29,7.36,2.33,11.01,3.57,3.49,1.19,6.96,2.46,10.41,3.78,1.66,.63,3.23,1.48,4.53,2.79-1.26-.18-2.52-.5-3.79-.53Zm4.11-.38c-.4-.42-.76-.89-1.21-1.26-2.9-2.38-4.85-5.47-6.46-8.77-1.4-2.86-2.18-5.94-2.57-9.07-1.12-8.96,.86-17.26,5.64-24.89,1.48-2.36,3.03-4.68,4.59-6.98,2.39-3.54,4.42-7.25,5.31-11.47,.44-2.1,.66-4.26,.92-6.4,.3-2.51,.24-5.08,1.02-7.51,.33-1.05,.85-2.06,1.41-3.02,.29-.5,.85-.85,1.5-1.47,.74,.86,1.34,1.48,1.84,2.17,2.12,2.92,3.18,6.27,4.03,9.72,1.27,5.1,1.94,10.27,2.04,15.52,.11,5.96,.92,11.83,2.34,17.62,.8,3.29,1.1,6.64,.85,10.02-.69,9.72-4.63,17.92-11.71,24.6-1.35,1.28-4.01,2.87-5.93,3.61-1.34-.5-2.56-1.33-3.61-2.42Zm22.94,5.34c3.5,2.48,6.77,5.22,9.52,8.57,3.43,4.18,5.6,8.83,6.34,14.24,1.07,7.75-.21,15.15-2.9,22.36-2.33,6.24-5.66,11.93-10.25,16.82-2.94,3.13-6.44,5.5-10.68,6.29-4.69,.87-9.05-.03-12.37-3.82-.98-1.12-1.87-2.34-2.69-3.59-3.29-5.04-6.55-10.12-9.81-15.19-1.91-2.98-3.69-6.04-4.43-9.56-.39-1.86-.63-3.76-.83-4.98-.07-5.34,.68-9.88,2.54-14.16,.96-2.2,2.1-4.35,3.47-6.32,1.92-2.76,4.05-5.37,6.23-7.94,1.96-2.3,4.38-4.08,7.21-5.2,.91-.36,1.92-.49,2.89-.64,2.17-.33,4.32-.81,6.55-.47,3.34,.51,6.46,1.63,9.2,3.58Zm88.37-4.73c-.92,.62-1.95,1.13-2.99,1.51-5.95,2.14-11.65,4.84-17.32,7.64-4.62,2.28-9.3,4.42-14.31,5.76-4.62,1.23-9.33,1.66-14.08,1.31-7.71-.57-15.01-2.74-21.96-6.07-4.27-2.04-8.47-4.24-12.71-6.35-2.95-1.47-6.03-2.59-9.3-3.1-1.23-.19-2.47-.28-3.71-.38-.53-.04-1.07,0-1.6,0,0-.11,.01-.22,.02-.34,4.38-.92,8.77-1.76,13.12-2.79,4.32-1.02,8.6-2.17,12.87-3.35,5.85-1.61,11.76-2.92,17.75-3.77,4.53-.64,9.1-.75,13.68-.38,4.51,.37,8.97,1.1,13.45,1.71,2.99,.41,6.04,.47,9.07,.53,4.2,.08,8.37,.38,12.48,1.31,1.96,.44,3.84,1.05,5.52,2.2,2.19,1.5,2.23,3.08,0,4.57Z" style="fill:#303030;"/><g><path d="M179.1,263.74c.48-.23,.94-.51,1.45-.67,8.22-2.53,15.15-7.11,21.04-13.31,4.34-4.56,7.98-9.68,11.52-14.87,.96-1.4,1.84-2.85,2.91-4.2-.53,.95-1.03,1.91-1.6,2.83-3.69,6-7.82,11.68-12.64,16.82-5.16,5.52-11.29,9.64-18.39,12.29-.39,.14-.79,.26-1.18,.38-.38,.12-.76,.24-1.31,.42,.23,.15,.33,.22,.44,.28,6.66,4.16,10.82,10.15,13.03,17.61,1.13,3.82,1.98,7.69,2.65,11.61,.06,.36,0,.74,0,1.2-1.02-5.19-1.97-10.31-3.86-15.18-2.34-6.06-6.2-10.96-11.57-14.64-.41-.28-.85-.5-1.29-.76-.39,.1-.74,.19-1.1,.28-.04-.04-.07-.08-.11-.12Z" style="fill:#303030;"/><path d="M158.24,262.93c-3.94-.13-7.88-.22-11.81-.41-5.59-.27-11.13-.98-16.6-2.23-5.82-1.32-11.59-2.85-17.08-5.24-5.49-2.39-10.73-5.25-15.55-8.83-.23-.17-.44-.36-.57-.68,.66,.44,1.32,.88,1.98,1.32,9.45,6.25,19.71,10.55,30.82,12.76,3.69,.73,7.4,1.41,11.12,1.92,2.62,.36,5.29,.41,7.94,.55,2.49,.13,4.98,.16,7.47,.29,.79,.04,1.58,.28,2.36,.43-.03,.04-.06,.07-.09,.11Z" style="fill:#303030;"/><path d="M180.32,261.62c.71-.56,1.43-1.1,2.12-1.67,3.76-3.13,6.56-7.04,9.05-11.2,4.03-6.72,6.71-13.99,8.37-21.61,1.18-5.45,2.07-10.98,3.06-16.47,.33-1.83,.58-3.67,.95-5.5-.12,1.47-.18,2.96-.39,4.42-.43,3.03-.9,6.06-1.41,9.08-1.55,9.14-3.69,18.11-7.94,26.45-2.16,4.24-4.69,8.23-7.86,11.8-1.49,1.69-3.14,3.21-5.05,4.43-.26,.16-.54,.29-.81,.43l-.09-.15Z" style="fill:#303030;"/><path d="M132.16,201.64c.84,3.7,1.6,7.38,2.52,11.02,1.58,6.22,3.42,12.38,6,18.27,3.59,8.22,8.64,15.42,15.21,21.53,1.05,.98,2.22,1.82,3.24,2.91-.34-.18-.73-.3-1.02-.54-1.5-1.25-3.06-2.44-4.43-3.82-7.47-7.49-12.64-16.39-15.92-26.42-1.84-5.63-3.51-11.3-4.68-17.11-.38-1.9-.61-3.83-.92-5.84Z" style="fill:#303030;"/><path d="M179.21,263.86c4.25,5.09,6.27,11.17,7.61,17.5,.72,3.43,1.1,6.94,1.54,10.43,.39,3.12,.76,6.25,.94,9.39,.21,3.56,.2,7.14,.27,10.71,.02,1.02,0,2.05-.12,3.07,0-1.16,.06-2.33-.01-3.49-.22-3.89-.47-7.78-.74-11.67-.15-2.11-.32-4.21-.54-6.32-.77-7.52-1.91-14.95-4.93-21.97-1.21-2.8-2.66-5.44-4.74-7.71-.15-.17-.26-.37-.28-.66,.3,.19,.6,.39,.9,.58,.03,.04,.07,.08,.11,.12Z" style="fill:#303030;"/><path d="M238.25,265.38c-4.06-.12-8.14-.13-12.19-.4-4.17-.27-8.33-.73-12.48-1.23-3.74-.46-7.44-1.12-11.17-1.65-4.03-.58-8.06-1.07-12.14-.79-.93,.06-1.86,.26-2.8,.34,.92-.55,1.95-.7,2.98-.77,3.78-.27,7.53,.1,11.27,.68,4.42,.68,8.84,1.28,13.28,1.83,3.24,.4,6.5,.73,9.76,.99,4.5,.36,9.01,.63,13.52,.95,0,.02,0,.05-.01,.07Z" style="fill:#303030;"/><path d="M173.15,264.81c.76-1.22,1.58-2.41,2.28-3.67,2.09-3.78,3.22-7.88,4-12.1,.84-4.58,1.22-9.19,1.29-13.84,.05-3.15,.17-6.31,.19-9.46,0-1.53-.17-3.06-.18-4.59,.67,5.13,.85,10.27,.43,15.43-.15,1.9-.13,3.82-.3,5.71-.58,6.55-1.67,12.98-4.83,18.88-.51,.95-1.11,1.85-1.72,2.74-.27,.4-.66,.71-.99,1.06-.05-.05-.11-.11-.16-.16Z" style="fill:#303030;"/><path d="M207.53,264.71c2.64,.4,5.27,.82,7.91,1.2,2.95,.43,5.9,.84,8.85,1.21,4.37,.55,8.77,.84,13.17,.69,3.36-.11,6.71-.43,10.06-.67,2.27-.16,4.55-.35,6.82-.54,.99-.08,1.97-.2,2.96-.25-16.7,2.89-33.3,2.42-49.77-1.64Z" style="fill:#303030;"/><path d="M179.7,333.85c-.46-1.26-.89-2.33-1.25-3.42-1.64-5-2.91-10.09-3.53-15.33-.37-3.08-.78-6.16-.96-9.26-.21-3.6-.29-7.22-.21-10.83,.07-3.19,.43-6.37,.68-9.55,.08-1.07,.21-2.14,.41-3.2-.09,1.61-.13,3.21-.28,4.81-.4,4.35-.54,8.71-.47,13.07,.04,2.66,.07,5.32,.33,7.96,.83,8.63,2.34,17.13,5.38,25.29,.02,.06-.03,.15-.09,.46Z" style="fill:#303030;"/><path d="M156.23,259.44c-15.8-1.77-29.22-8.62-40.9-19.18,1.33,1.03,2.66,2.05,3.98,3.09,7.53,5.96,15.84,10.46,25.01,13.35,3.48,1.1,7.02,1.94,10.63,2.45,.43,.06,.85,.19,1.28,.29Z" style="fill:#303030;"/><path d="M165.4,224.16c0,4.82-.12,9.65,.03,14.47,.21,6.88,.64,13.76,2.95,20.35,.57,1.62,1.24,3.2,1.73,4.89-.23-.37-.48-.72-.67-1.1-1.47-2.82-2.32-5.85-2.97-8.94-.82-3.9-1.25-7.85-1.29-11.85-.03-2.58-.21-5.15-.21-7.72,0-3.36,.09-6.73,.15-10.09,.1,0,.19-.01,.29-.02Z" style="fill:#303030;"/><path d="M147.96,204.93c-.1,1.53-.26,3.06-.28,4.59-.04,3.91-.22,7.82,.03,11.72,.57,8.95,2.43,17.61,6.42,25.72,.16,.33,.32,.67,.47,1.01,.01,.03-.02,.07-.06,.24-.21-.32-.39-.55-.52-.82-2.51-4.81-4.13-9.92-5.28-15.2-1.52-6.94-1.68-13.98-1.46-21.03,.07-2.07,.32-4.13,.49-6.19l.19-.04Z" style="fill:#303030;"/><path d="M209.69,190.42c-.5,4.06-1,8.13-1.5,12.19-1.16,9.58-3.21,18.96-6.11,28.16,3.71-13.22,5.64-26.77,7.3-40.36,.1,0,.2,0,.3,.01Z" style="fill:#303030;"/><path d="M183.76,199.86c1.58,7.48,2.7,15.05,2.61,22.76-.09,7.7-1.16,15.27-2.64,22.82,2.8-15.18,3.26-30.36,.04-45.57Z" style="fill:#303030;"/><path d="M176.45,214.69c.88,13.81,1.32,27.57-1.48,41.21,.18-1.47,.37-2.93,.54-4.4,.24-2.06,.46-4.11,.68-6.17,.78-7.25,.45-14.53,.47-21.8,0-2.74-.14-5.48-.21-8.23,0-.21,0-.41,0-.62Z" style="fill:#303030;"/><path d="M202.2,289.48c.21,2.8,.44,5.6,.63,8.4,.1,1.49,.23,2.99,.19,4.48-.1,3.4-.16,6.81-.5,10.19-.27,2.66-.89,5.3-1.47,7.91-.26,1.15-.78,2.24-1.71,3.11,.12-.33,.2-.67,.36-.98,1.13-2.17,1.54-4.53,1.94-6.9,.63-3.69,.86-7.42,.88-11.15,.02-3.65-.2-7.3-.33-10.95-.05-1.36-.16-2.72-.25-4.09l.26-.03Z" style="fill:#303030;"/><path d="M196.17,225.37c-.36,1.82-.67,3.65-1.09,5.46-1.05,4.56-2.14,9.1-3.98,13.43-1.61,3.8-3.58,7.39-6.25,10.57-.22,.26-.48,.5-.87,.62,.52-.73,1.04-1.46,1.56-2.19,3.59-5.07,6.02-10.68,7.61-16.65,1-3.75,1.92-7.52,2.88-11.29l.14,.05Z" style="fill:#303030;"/><path d="M133.67,224.9c1.1,2.09,2.17,4.19,3.3,6.27,2.46,4.53,5.12,8.94,8.44,12.91,2.49,2.98,5.31,5.61,8.41,7.95,.42,.32,.84,.65,1.26,.98-.05,.08-.1,.15-.14,.23-.38-.24-.77-.47-1.14-.73-4.91-3.47-8.94-7.81-12.25-12.81-3.03-4.57-5.61-9.4-7.91-14.38-.05-.11-.06-.23-.09-.34,.04-.02,.09-.04,.13-.06Z" style="fill:#303030;"/><path d="M119,260.88c-1.56-.36-3.14-.65-4.68-1.09-7.62-2.18-14.62-5.62-20.84-10.56-2.89-2.3-5.21-5.12-7.28-8.16-.03-.05,0-.14,0-.32,.19,.2,.34,.32,.44,.47,3.95,5.95,9.47,10.07,15.69,13.35,4.71,2.48,9.6,4.51,14.81,5.66,.64,.14,1.27,.28,1.91,.42-.02,.08-.03,.16-.05,.24Z" style="fill:#303030;"/><path d="M176.57,263.81c-1.02,.96-1.98,1.68-2.73,2.58-3.39,4.08-5.65,8.77-7.15,13.82-1.49,5-2.45,10.12-3.31,15.26-.05,.28-.04,.57-.24,.83,.2-1.59,.28-3.21,.62-4.78,.92-4.24,1.8-8.49,2.98-12.66,1.34-4.75,3.66-9.06,6.83-12.88,.76-.91,1.63-1.71,3-2.17Z" style="fill:#303030;"/><path d="M206.57,248.29c8.44-9.04,13.83-19.9,18.64-31.09-4.47,11.41-9.77,22.33-18.64,31.09Z" style="fill:#303030;"/><path d="M159.64,292.76c0,2.53-.03,5.07,0,7.6,.06,4.36,.41,8.7,1.26,12.98,.46,2.32,1.11,4.59,2.26,6.69,.09,.16,.13,.35,.2,.52-.08,.04-.16,.09-.24,.13-.31-.5-.66-.98-.91-1.51-1.21-2.62-1.86-5.41-2.23-8.25-.6-4.66-.92-9.34-.76-14.04,.05-1.37,.18-2.73,.27-4.09,.05-.01,.09-.02,.14-.03Z" style="fill:#303030;"/><path d="M228.95,273.33c.77,.09,1.55,.2,2.32,.28,3.38,.34,6.75,.74,10.14,.98,2.65,.19,5.32,.3,7.97,.19,2.14-.08,4.26-.54,6.4-.83,.29-.04,.59-.03,.88-.05,.01,.11,.02,.22,.04,.34-1.35,.26-2.7,.67-4.06,.74-3.36,.17-6.73,.36-10.08,.23-4.22-.17-8.42-.65-12.58-1.47-.36-.07-.7-.2-1.05-.31,0-.03,.01-.07,.02-.1Z" style="fill:#303030;"/><path d="M227.22,261.05c-3.19-.1-6.39-.15-9.58-.3-5.22-.25-10.43-.62-15.65-.81-2.23-.08-4.47,.19-6.7,.3-.24,.01-.48,0-.71,0-.01-.09-.02-.17-.03-.26,.86-.12,1.73-.34,2.59-.35,3.36-.04,6.72-.1,10.08,.02,3.02,.11,6.03,.44,9.04,.67,1.24,.09,2.48,.2,3.72,.27,2.4,.14,4.8,.27,7.2,.4,.01,.02,.03,.03,.04,.05Z" style="fill:#303030;"/><path d="M210.95,267.95c-8.66-1.43-17.19-3.62-25.97-4.34,8.87,.15,17.41,2.33,25.97,4.34Z" style="fill:#303030;"/><path d="M123.8,183.42c-1.36,8.9-.36,17.74,.76,26.58-1.68-8.81-2.53-17.65-.76-26.58Z" style="fill:#303030;"/><path d="M194.76,191.15c-1.25,7.22-.98,14.53-1.91,21.76,.08-2.38,.15-4.75,.23-7.13,.02-.54,.04-1.08,.07-1.62,.25-3.63,.48-7.27,.79-10.9,.06-.73,.11-1.57,.81-2.11Z" style="fill:#303030;"/><path d="M236.83,255.51c6.95-.84,13.93-1.3,20.93-1.04,0,.11,.02,.21,.03,.32-.6,.07-1.2,.21-1.8,.21-2.28,.03-4.56-.03-6.84,.04-3.44,.11-6.88,.31-10.32,.46-.66,.03-1.33,0-1.99,0Z" style="fill:#303030;"/><path d="M110.78,246.17c-5.97-3.09-11.53-6.7-16.07-11.69,.06-.09,.12-.18,.19-.27,.27,.19,.6,.34,.82,.58,4.13,4.43,9.17,7.66,14.26,10.83,.24,.15,.49,.3,.74,.45,.03,.02,.05,.07,.07,.1Z" style="fill:#303030;"/><path d="M162.7,242.12c-.32-2.54-.76-5.08-.92-7.63-.22-3.56-.27-7.13-.3-10.7,0-.91,.36-1.82,.56-2.73,.12,.01,.25,.02,.37,.04-.02,.32,0,.65-.07,.96-.73,2.95-.5,5.93-.3,8.91,.09,1.36,.2,2.73,.31,4.09,.17,2.11,.34,4.21,.51,6.32,.02,.25,0,.5,0,.74-.05,0-.11,0-.16,0Z" style="fill:#303030;"/><path d="M201.22,201.89c-.11-6.06-.23-12.12-1.09-18.41,1.24,1.74,1.69,10.53,1.09,18.41Z" style="fill:#303030;"/><path d="M170.19,209.26c.05,.4,.16,.81,.15,1.21-.06,4.77-.16,9.54-.2,14.3,0,1.11,.17,2.22,.22,3.34-.8-4.04-1.03-17.39-.18-18.86Z" style="fill:#303030;"/><path d="M140.38,202.7c-1.1-7-1.01-16.55,.22-18.52-.71,6.17-.52,12.34-.22,18.52Z" style="fill:#303030;"/><path d="M150.17,213.97c-.09-4.97,.13-9.92,.9-14.81,.14-.02,.18-.03,.22-.02,.03,0,.06,.05,.07,.08,.02,.41,.08,.83,.04,1.24-.4,4.51-.82,9.02-1.23,13.52Z" style="fill:#303030;"/><path d="M177.78,263.71c3.29,4.55,4.8,9.83,6.23,15.15-.92-2.54-1.75-5.12-2.78-7.62-1.05-2.55-2.29-5.02-3.45-7.53Z" style="fill:#303030;"/><path d="M216.1,218.83c-.02,.3,.03,.63-.08,.89-1.59,3.72-3.2,7.43-4.82,11.14-.04,.09-.14,.15-.32,.17,1.66-4.07,3.32-8.14,4.97-12.21,.08,0,.16,0,.25,0Z" style="fill:#303030;"/><path d="M129.01,254.71c5.37,2.16,10.89,3.85,16.5,5.25-5.72-1.05-11.25-2.71-16.5-5.25Z" style="fill:#303030;"/><path d="M174.23,321.01c-1.05-5.98-1.64-11.91-1.53-16.9,.45,4.94,.98,10.87,1.53,16.9Z" style="fill:#303030;"/><path d="M249.32,272.91c4.09-.38,8.18-.76,12.37-1.15-.24,.47-.64,.48-1.03,.51-1.93,.18-3.86,.38-5.79,.52-1.85,.13-3.7,.19-5.54,.29,0-.06,0-.12,0-.18Z" style="fill:#303030;"/><path d="M266.77,262.18c-5.27,1.05-10.58,2.11-15.73,2.35,5.06-.76,10.39-1.55,15.73-2.35Z" style="fill:#303030;"/><path d="M97.93,234.34c2.19,1.75,4.38,3.5,6.64,5.31-1.34-.43-5.92-3.87-6.84-5.09,.07-.07,.14-.14,.2-.22Z" style="fill:#303030;"/><path d="M142.07,194.01c-.51-2.54-.31-5.23-.23-7.91,.39,.86,.46,5.77,.23,7.91Z" style="fill:#303030;"/><path d="M210.14,182.13c.2-3.03,.42-5.76,1.26-8.41,.21,1.36-.28,2.66-.45,3.98-.18,1.38-.49,2.75-.8,4.43Z" style="fill:#303030;"/><path d="M199.06,190.41c-.08-1.67-.16-3.35-.25-5.08,.62,.74,.7,1.64,.25,5.08Z" style="fill:#303030;"/></g></g><g><path d="M272.84,325.28c-1.26-.21-2.51-.41-3.76-.63-3.9-.67-7.76-.42-11.61,.39-2.95,.62-5.51,2.03-7.92,3.77-6.24,4.53-11.98,9.63-17.52,14.99-4.22,4.09-8.73,7.82-13.83,10.78-4.81,2.79-9.99,4.65-15.28,6.28-3.09,.95-6.15,2-9.23,2.98-.53,.17-1.09,.26-1.63,.39-.08-.14-.16-.27-.25-.41,.32-.32,.62-.69,.98-.96,3.61-2.59,7.19-5.23,10.87-7.73,9.77-6.62,19.56-13.21,29.4-19.73,4.64-3.08,9.52-5.77,14.61-8.06,4.08-1.83,8.37-2.97,12.79-3.53,3.93-.5,7.87-.28,11.69,.95,.26,.08,.5,.21,.7,.51Z" style="fill:#fff;"/><path d="M272.14,324.77c-3.82-1.23-7.76-1.45-11.69-.95-4.41,.56-8.71,1.7-12.79,3.53-5.09,2.29-9.97,4.98-14.61,8.06-9.84,6.52-19.63,13.11-29.4,19.73-3.68,2.49-7.26,5.14-10.87,7.73-.37,.26-.66,.64-.98,.96,.08,.13,.16,.27,.25,.41,.55-.13,1.1-.22,1.63-.39,3.08-.99,6.14-2.03,9.23-2.98,5.29-1.62,10.47-3.48,15.28-6.28,5.1-2.96,9.62-6.7,13.83-10.78,5.53-5.36,11.28-10.46,17.52-14.99,2.4-1.74,4.97-3.15,7.92-3.77,3.85-.81,7.71-1.07,11.61-.39,1.25,.22,2.51,.42,3.76,.63-.2-.3-.44-.43-.7-.51Zm-24.22,4.39c-5.29,3.85-10.21,8.12-14.89,12.68-3.45,3.37-7.06,6.57-10.99,9.39-5.43,3.89-11.46,6.51-17.81,8.46-3.16,.98-6.32,1.98-9.51,2.97,.97-1.48,36.79-25.85,39.32-26.79-6.73,5.38-13.49,10.79-20.26,16.2,.06,.09,.13,.17,.2,.26,1.39-1.03,2.8-2.04,4.16-3.1,4.9-3.79,9.75-7.64,14.69-11.38,4.65-3.52,9.58-6.6,14.81-9.17,.37-.18,.75-.35,1.14-.51,.06-.02,.14,0,.34,.03-.45,.36-.81,.68-1.2,.96Z" style="fill:#303030;"/></g></g></svg>